<svg width="29" height="28" viewBox="0 0 29 28" fill="none" xmlns="http://www.w3.org/2000/svg">
<g id="Frame" clip-path="url(#clip0_70_5)">
<path id="Vector" d="M14.1141 24.457L14.4996 24.9233L14.885 24.4569L23.9878 13.4397L24.6641 12.6213L23.6023 12.6213L19.0547 12.6213L19.0547 2.38877e-06L19.0547 -0.499998L18.5547 -0.499998L10.4402 -0.499999L9.94022 -0.499999L9.94022 7.95135e-07L9.94022 12.6213L5.39258 12.6213L4.33056 12.6213L5.00719 13.4398L14.1141 24.457ZM16.8105 14.3375L16.8105 14.8375L17.3105 14.8375L19.9354 14.8375L14.4995 21.4137L9.06368 14.8375L11.6927 14.8375L12.1927 14.8375L12.1927 14.3375L12.1927 1.71625L16.8105 1.71625L16.8105 14.3375Z" fill="#F2F2F2" stroke="#F2F2F2"/>
<path id="Vector_2" d="M29.5 26.7838L29.5 26.2838L29 26.2838L8.74228e-08 26.2838L-0.5 26.2838L-0.5 26.7838L-0.5 28L-0.5 28.5L-3.00078e-07 28.5L29 28.5L29.5 28.5L29.5 28L29.5 26.7838Z" fill="#F2F2F2" stroke="#F2F2F2"/>
</g>
<defs>
<clipPath id="clip0_70_5">
<rect width="29" height="28" fill="white"/>
</clipPath>
</defs>
</svg>
