<svg width="53" height="68" viewBox="0 0 53 68" fill="none" xmlns="http://www.w3.org/2000/svg">
<g id="Group 6">
<path id="Vector" d="M38.3233 29.4158H8.4707V32.5928H38.3233V29.4158Z" fill="#3BC4F4"/>
<path id="Vector_2" d="M38.3233 41.4778H8.4707V44.6548H38.3233V41.4778Z" fill="#3BC4F4"/>
<path id="Vector_3" d="M38.3233 53.5388H8.4707V56.7158H38.3233V53.5388Z" fill="#3BC4F4"/>
<path id="Vector_4" d="M45.9345 0.728516H5.59813V6.88343H0V61.1975C0 64.5005 2.89686 67.1893 6.45664 67.1893H46.793V61.2801H52.3901V6.72034C52.3901 3.41626 49.4943 0.728516 45.9345 0.728516ZM6.45664 64.0102C4.64556 64.0102 3.17176 62.7468 3.17176 61.1954V10.0604H27.8354V17.3548H8.47069V20.5318H27.8354V24.178H43.6213V64.0102H6.45664ZM49.2184 58.1031H46.793V22.1924L29.8611 6.88343H8.7699V3.90552H45.9345C47.7456 3.90552 49.2184 5.16785 49.2184 6.72034V58.1031Z" fill="#3BC4F4"/>
</g>
</svg>
