<svg width="63" height="57" viewBox="0 0 63 57" fill="none" xmlns="http://www.w3.org/2000/svg">
<g id="Group 7">
<path id="Vector" d="M60.5723 53.5132H1.95703V56.6902H60.5723V53.5132Z" fill="#3BC4F4"/>
<path id="Vector_2" d="M55.2621 0.913574H0.390625V42.3205C0.3937 44.1452 1.11868 45.8943 2.40679 47.1845C3.6949 48.4747 5.44112 49.201 7.26278 49.204H62.1343V7.79708C62.1312 5.97241 61.4062 4.22335 60.1181 2.93311C58.83 1.64287 57.0838 0.916654 55.2621 0.913574ZM58.9625 46.027H7.26278C6.28198 46.0251 5.34188 45.6339 4.64835 44.9393C3.95481 44.2446 3.56434 43.303 3.56239 42.3205V4.09058H55.2621C56.2429 4.09254 57.183 4.48367 57.8765 5.17835C58.5701 5.87303 58.9606 6.81466 58.9625 7.79708V46.027Z" fill="#3BC4F4"/>
<path id="Vector_3" d="M20.1067 25.2717C19.0734 24.3949 17.6197 23.7062 15.7455 23.2056C13.9715 22.7298 12.8342 22.3312 12.3338 22.01C11.8333 21.6888 11.5834 21.2172 11.5842 20.5952C11.5842 19.9527 11.8175 19.4437 12.2841 19.0681C12.7507 18.6925 13.4795 18.5047 14.4705 18.5047C15.4622 18.5047 16.2079 18.7426 16.7076 19.2185C17.2073 19.6943 17.4572 20.3202 17.4572 21.0961V21.3587H21.3067V21.041C21.3067 19.389 20.6818 18.0663 19.4322 17.0729C18.1825 16.0796 16.5244 15.5833 14.4578 15.584C12.3835 15.584 10.732 16.0637 9.50351 17.0232C8.27498 17.9826 7.66037 19.2679 7.65966 20.879C7.66812 22.3722 8.17239 23.5445 9.17255 24.3959C10.1727 25.2474 11.6264 25.9181 13.5337 26.408C15.3078 26.8676 16.4553 27.2912 16.9762 27.6788C17.497 28.0664 17.7575 28.6199 17.7575 29.3394C17.766 29.6632 17.6953 29.9842 17.5516 30.2743C17.4079 30.5645 17.1954 30.815 16.9328 31.0041C16.3831 31.4214 15.5957 31.63 14.5709 31.63C13.5461 31.63 12.7422 31.4069 12.1593 30.9607C11.5841 30.5138 11.2966 29.8431 11.2966 28.9486V28.6605H7.38477V28.9857C7.38477 30.7965 8.05436 32.1732 9.39355 33.1158C10.7327 34.0583 12.4634 34.5309 14.5857 34.5338C16.7185 34.5338 18.4327 34.054 19.7282 33.0946C21.0237 32.1351 21.6707 30.7927 21.6693 29.0672C21.6609 27.413 21.14 26.1479 20.1067 25.2717Z" fill="#3BC4F4"/>
<path id="Vector_4" d="M36.1151 25.2717C35.0818 24.3949 33.6281 23.7062 31.7539 23.2056C29.9785 22.7298 28.8412 22.3312 28.3422 22.01C27.8432 21.6888 27.5922 21.2172 27.5894 20.5952C27.5894 19.9527 27.8223 19.4437 28.2882 19.0681C28.7541 18.6925 29.4833 18.5047 30.4757 18.5047C31.4674 18.5047 32.2131 18.7426 32.7129 19.2185C33.2126 19.6943 33.4624 20.3202 33.4624 21.0961V21.3587H37.3162V21.041C37.3162 19.389 36.6909 18.0663 35.4406 17.0729C34.1902 16.0796 32.5338 15.5833 30.4715 15.584C28.3971 15.584 26.7454 16.0637 25.5161 17.0232C24.2869 17.9826 23.6726 19.2679 23.6733 20.879C23.6818 22.3722 24.1857 23.5445 25.1852 24.3959C26.1846 25.2474 27.6384 25.9181 29.5464 26.408C31.3218 26.8676 32.4697 27.2912 32.9899 27.6788C33.51 28.0664 33.7705 28.6192 33.7712 29.3372C33.7797 29.6611 33.709 29.982 33.5653 30.2722C33.4215 30.5624 33.2091 30.8129 32.9465 31.002C32.396 31.4192 31.6087 31.6279 30.5846 31.6279C29.5605 31.6279 28.7562 31.4048 28.1719 30.9586C27.5975 30.5117 27.3103 29.841 27.3103 28.9465V28.6584H23.3984V28.9835C23.3984 30.7944 24.068 32.1711 25.4072 33.1136C26.7464 34.0561 28.4772 34.5274 30.5994 34.5274C32.733 34.5274 34.4471 34.0477 35.7419 33.0882C37.0367 32.1288 37.6816 30.7884 37.6767 29.0672C37.6682 27.413 37.1477 26.1479 36.1151 25.2717Z" fill="#3BC4F4"/>
<path id="Vector_5" d="M52.6677 18.1922C51.0134 16.6948 48.9659 15.946 46.525 15.946H40.4141V34.1715H46.525C48.9659 34.1715 51.0134 33.4203 52.6677 31.9179C54.3219 30.4155 55.1487 28.3169 55.148 25.6221V24.4827C55.148 21.7871 54.3212 19.6903 52.6677 18.1922ZM51.2235 25.7111C51.2235 27.5559 50.784 28.9495 49.905 29.892C49.0261 30.8345 47.8786 31.3062 46.4626 31.3069H44.2255V18.8244H46.4626C47.8779 18.8244 49.0254 19.2939 49.905 20.2329C50.7847 21.1719 51.2242 22.5634 51.2235 24.4075V25.7111Z" fill="#3BC4F4"/>
</g>
</svg>
