<svg width="62" height="63" viewBox="0 0 62 63" fill="none" xmlns="http://www.w3.org/2000/svg">
<g id="Group 8">
<path id="Vector" d="M54.2006 0.88916H0.134766V42.1087C0.136725 43.9376 0.86295 45.6911 2.15408 46.9844C3.44521 48.2776 5.19575 49.0051 7.02169 49.007H42.8626L53.7523 62.9858H61.0813V47.4185H61.0908V7.78749C61.0888 5.95799 60.3622 4.20404 59.0704 2.91068C57.7785 1.61733 56.0271 0.890281 54.2006 0.88916ZM57.9063 47.4185V59.8088H55.297L44.4073 45.83H7.02169C6.03661 45.8292 5.09214 45.4368 4.39558 44.7391C3.69903 44.0414 3.30737 43.0954 3.30653 42.1087V4.06616H54.2006C55.1857 4.06701 56.1302 4.45934 56.8267 5.15704C57.5233 5.85475 57.915 6.80079 57.9159 7.78749V47.4185H57.9063Z" fill="#3BC4F4"/>
<path id="Vector_2" d="M45.4952 17.3206H15.6426V20.4976H45.4952V17.3206Z" fill="#3BC4F4"/>
<path id="Vector_3" d="M45.4952 29.3816H15.6426V32.5586H45.4952V29.3816Z" fill="#3BC4F4"/>
</g>
</svg>
