<svg width="160" height="40" viewBox="0 0 160 40" fill="none" xmlns="http://www.w3.org/2000/svg">
<g id="logo">
<path id="Vector" d="M9.96099 17.4055C11.2586 16.1223 12.7618 15.0623 14.4089 14.2688C15.8469 13.6217 17.4085 13.2909 18.9869 13.2987C21.6865 13.2987 23.695 14.0182 24.996 15.4734C26.297 16.9286 26.9638 19.1518 26.9638 22.1591V34.0673H30.5091V39.3787H16.9947V34.0673H20.5725V23.5577C20.6461 22.4227 20.2729 21.3036 19.5317 20.4372C19.1429 20.0562 18.6775 19.7613 18.166 19.5718C17.6545 19.3823 17.1084 19.3025 16.5637 19.3377C15.3793 19.3433 14.2177 19.6613 13.1973 20.2593C11.9551 21.0028 10.8541 21.9578 9.94477 23.0807V34.0511H13.5144V39.3626H0V34.0511H3.56971V19.2488H0V13.9616H9.96099V17.4055Z" fill="#F2F2F2"/>
<path id="Vector_2" d="M60.1812 34.0673H63.7509V39.3787H53.8143V36.6624C52.7724 37.728 51.524 38.5726 50.1446 39.145C48.7652 39.7175 47.2833 40.006 45.7885 39.9931C44.0523 40.0503 42.3232 39.7454 40.7126 39.098C39.102 38.4505 37.6457 37.4749 36.4374 36.2339C34.0755 33.6049 32.7747 30.2005 32.7852 26.6755C32.7957 23.1505 34.1168 19.7538 36.4943 17.1387C37.685 15.8851 39.1281 14.8951 40.7296 14.2334C42.3311 13.5717 44.0549 13.2532 45.7885 13.2987C47.2522 13.275 48.7051 13.5502 50.0575 14.1071C51.4585 14.7157 52.7327 15.5794 53.8143 16.6537V13.9293H63.7509V19.2164H60.1812V34.0673ZM39.2834 26.6782C39.2446 27.6817 39.4065 28.6829 39.7596 29.6238C40.1127 30.5646 40.6502 31.4265 41.3407 32.1594C42.7555 33.5283 44.6519 34.2943 46.6261 34.2943C48.6004 34.2943 50.4967 33.5283 51.9115 32.1594C52.6142 31.4374 53.1635 30.5822 53.5267 29.6447C53.8899 28.7072 54.0596 27.7066 54.0257 26.7025C54.0588 25.693 53.888 24.6871 53.5235 23.7442C53.159 22.8014 52.6081 21.9408 51.9034 21.2132C50.4999 19.8274 48.6043 19.0463 46.6263 19.0387C44.6483 19.0312 42.7467 19.7978 41.3325 21.1728C39.9432 22.6658 39.2062 24.6457 39.2834 26.6782Z" fill="#F2F2F2"/>
<path id="Vector_3" d="M84.4051 0H94.2848V34.0673H97.8626V39.3787H87.926V36.6624C86.8831 37.729 85.6335 38.5741 84.2526 39.1466C82.8716 39.7192 81.3882 40.0071 79.8921 39.9931C78.157 40.0507 76.429 39.7459 74.8197 39.0984C73.2104 38.4509 71.7556 37.4751 70.5491 36.2339C68.1895 33.6043 66.8895 30.201 66.8985 26.677C66.9075 23.153 68.2249 19.7564 70.5979 17.1388C71.7886 15.8851 73.2317 14.8951 74.8332 14.2334C76.4347 13.5718 78.1585 13.2533 79.8921 13.2987C81.3558 13.2751 82.8087 13.5502 84.1611 14.1071C85.5635 14.7175 86.84 15.5809 87.926 16.6537V5.3114H84.4051V0ZM73.3951 26.6782C73.3628 27.679 73.5325 28.6761 73.8942 29.6106C74.2559 30.545 74.8024 31.398 75.5012 32.119C76.9038 33.5112 78.8047 34.2931 80.7866 34.2931C82.7685 34.2931 84.6695 33.5112 86.072 32.119C87.4303 30.6159 88.1817 28.6666 88.1817 26.6459C88.1817 24.6253 87.4303 22.676 86.072 21.1728C85.3849 20.4838 84.5673 19.9369 83.6664 19.5636C82.7655 19.1904 81.7992 18.9982 80.8232 18.9982C79.8472 18.9982 78.8809 19.1904 77.98 19.5636C77.0791 19.9369 76.2615 20.4838 75.5744 21.1728C74.8574 21.8976 74.2949 22.7588 73.9205 23.7048C73.546 24.6507 73.3673 25.662 73.3951 26.6782Z" fill="#F2F2F2"/>
<path id="Vector_4" d="M127.989 34.0673H131.558V39.3787H121.622V36.6624C120.581 37.7299 119.333 38.5757 117.953 39.1483C116.574 39.7209 115.091 40.0084 113.596 39.9931C111.861 40.0507 110.133 39.7459 108.523 39.0984C106.914 38.4509 105.459 37.4751 104.253 36.2339C101.888 33.6067 100.585 30.2026 100.594 26.677C100.603 23.1515 101.924 19.754 104.302 17.1387C105.492 15.8851 106.935 14.8951 108.537 14.2334C110.138 13.5717 111.862 13.2532 113.596 13.2987C115.06 13.275 116.512 13.5502 117.865 14.1071C119.266 14.7157 120.54 15.5794 121.622 16.6537V13.9293H131.558V19.2164H127.989V34.0673ZM107.099 26.6782C107.059 27.6812 107.22 28.682 107.571 29.6229C107.923 30.5637 108.459 31.4258 109.148 32.1594C110.564 33.5264 112.46 34.2911 114.433 34.2911C116.407 34.2911 118.303 33.5264 119.719 32.1594C121.081 30.6579 121.834 28.708 121.834 26.6863C121.834 24.6647 121.081 22.7147 119.719 21.2132C118.315 19.8274 116.42 19.0463 114.442 19.0387C112.464 19.0312 110.562 19.7978 109.148 21.1728C107.759 22.6658 107.022 24.6457 107.099 26.6782Z" fill="#F2F2F2"/>
<path id="Vector_5" d="M159.174 34.0673H138.414V39.3787H159.174V34.0673Z" fill="#F2F2F2"/>
</g>
</svg>
