<svg width="38" height="20" viewBox="0 0 38 20" fill="none" xmlns="http://www.w3.org/2000/svg">
<path id="Vector" d="M33.2763 8.6063e-07H4.72369C4.10325 -0.000364325 3.48885 0.115492 2.91557 0.34095C2.34229 0.566408 1.82139 0.897047 1.38268 1.31395C0.94397 1.73086 0.596036 2.22586 0.358784 2.77064C0.121533 3.31542 -0.000383382 3.89929 9.05648e-07 4.48888V15.5111C-0.000383382 16.1007 0.121533 16.6846 0.358784 17.2294C0.596036 17.7741 0.94397 18.2691 1.38268 18.686C1.82139 19.103 2.34229 19.4336 2.91557 19.659C3.48885 19.8845 4.10325 20.0004 4.72369 20H33.2763C33.8968 20.0004 34.5112 19.8845 35.0844 19.659C35.6577 19.4336 36.1786 19.103 36.6173 18.686C37.056 18.2691 37.404 17.7741 37.6412 17.2294C37.8785 16.6846 38.0004 16.1007 38 15.5111V4.48888C38.0004 3.89929 37.8785 3.31542 37.6412 2.77064C37.404 2.22586 37.056 1.73086 36.6173 1.31395C36.1786 0.897047 35.6577 0.566408 35.0844 0.34095C34.5112 0.115492 33.8968 -0.000364325 33.2763 8.6063e-07ZM13.7882 16.5528V3.72499L25.4805 10.1389L13.7882 16.5528Z" fill="white"/>
</svg>
