<svg width="260" height="233" viewBox="0 0 260 233" fill="none" xmlns="http://www.w3.org/2000/svg">
<g clip-path="url(#clip0_66_770)">
<path d="M47.4186 164.698L47.1416 164.299C45.4706 161.83 43.7631 159.383 42.1409 156.878C40.9001 154.915 39.8843 152.819 39.1126 150.628C39.0243 150.382 38.9087 150.144 38.8082 149.913C37.119 150.348 31.3818 153.036 29.297 154.36C29.3602 154.607 29.4533 154.845 29.574 155.07C30.7488 156.744 31.9326 158.418 32.8579 160.244C32.992 160.442 33.1461 160.626 33.3176 160.792C35.5059 159.34 37.6304 157.843 40.0957 156.966C40.254 156.941 40.4151 156.941 40.5735 156.966C40.7226 157.362 40.3969 157.441 40.193 157.56C38.8569 158.333 37.4965 159.082 36.1755 159.87C35.3325 160.381 34.5441 160.981 33.6858 161.578C34.5532 163.66 35.7494 165.45 36.7294 167.361C37.7095 169.273 38.653 171.078 39.6665 173.032C39.902 172.963 40.1265 172.861 40.333 172.728C41.9772 171.428 43.5367 170.023 45.002 168.524C46.3699 167.008 47.8557 165.602 49.4455 164.32C50.1425 163.782 50.8426 163.246 51.7314 163.018C52.7358 162.762 53.311 162.941 53.8163 163.8C54.0689 164.226 54.2728 164.683 54.495 165.127C56.4239 168.977 58.5816 172.707 60.9566 176.299C61.1426 176.529 61.3461 176.745 61.5653 176.944C61.7144 176.64 61.8696 176.469 61.897 176.274C61.9883 174.536 62.6275 172.926 63.2027 171.337C63.8693 169.474 64.6941 167.666 65.3971 165.815C66.6541 162.503 68.1607 159.307 69.7343 156.141C69.7854 155.972 69.8142 155.797 69.8196 155.621C68.4621 155.426 67.1655 155.751 65.8629 155.779C65.3707 155.821 64.8757 155.821 64.3836 155.779C63.6836 155.666 63.3792 155.143 63.5771 154.449C63.9988 152.845 64.6194 151.301 65.4245 149.852C67.1472 146.902 68.8455 143.934 70.623 141.024C71.5911 139.355 72.4159 137.607 73.0883 135.798C73.5144 134.72 73.9557 133.649 74.3758 132.568C74.4152 132.384 74.4295 132.196 74.4184 132.008C73.4719 131.92 72.5466 131.828 71.6214 131.746C68.6265 131.481 65.7928 130.583 62.9957 129.545C62.2074 129.241 61.474 128.842 61.1514 127.99C61.0449 127.719 60.9687 127.417 61.2183 127.232C61.3189 127.148 61.4357 127.085 61.5613 127.048C61.6869 127.011 61.8186 127 61.9487 127.016C62.6731 127.265 63.3731 127.594 64.0792 127.911C64.8607 128.315 65.6633 128.676 66.4836 128.994C68.5291 129.669 70.6505 130.087 72.7991 130.239C74.3392 130.343 75.8885 130.334 77.4347 130.309C78.4786 130.294 79.5195 130.151 80.5634 130.09C81.8296 130.02 83.0987 129.987 84.3648 129.917C85.2444 129.868 86.1241 129.813 87.0006 129.722C90.2958 129.381 93.5901 129.03 96.8833 128.669C97.4342 128.611 97.9697 128.443 98.5176 128.398C99.2572 128.337 99.9633 128.252 100.316 127.378C101.619 128.358 102.961 127.987 104.218 127.838C106.958 127.491 109.717 127.314 112.479 127.308C113.252 127.317 114.025 127.284 114.795 127.21C115.177 127.135 115.551 127.023 115.912 126.876C115.151 126.306 114.36 126.434 113.599 126.361C113.5 126.339 113.407 126.293 113.328 126.229C113.25 126.164 113.187 126.083 113.145 125.99C113.045 125.685 113.279 125.463 113.568 125.408C113.946 125.338 114.344 125.366 114.716 125.281C115.03 125.18 115.336 125.053 115.629 124.9C114.953 124.328 114.207 124.428 113.517 124.337C112.649 124.221 112.299 124.033 112.415 123.667C112.606 123.08 113.118 123.058 113.632 123.028C114.147 122.998 114.731 122.952 115.273 122.864C115.555 122.778 115.828 122.662 116.085 122.517C114.868 121.098 112.923 121.472 111.696 120.483C111.76 119.935 112.123 119.874 112.424 119.798C113.291 119.628 114.165 119.494 115.041 119.378C115.678 119.324 116.291 119.115 116.828 118.769C116.657 118.609 116.459 118.479 116.244 118.386C115.489 118.226 114.724 118.114 113.955 118.051C112.582 117.972 111.216 118.024 109.831 117.774C108.866 117.597 107.849 117.698 106.854 117.686C105.475 117.667 104.097 117.64 102.718 117.652C100.399 117.67 98.0763 117.695 95.7571 117.75C93.8305 117.795 91.9069 117.896 89.9742 117.963C88.4267 117.982 86.885 118.156 85.3723 118.483C85.1032 118.542 84.8309 118.583 84.5567 118.608C82.4262 118.839 80.2955 119.129 78.1376 119.278C76.6158 119.381 75.0575 119.296 73.4139 119.296C73.07 120.09 72.3001 120.343 71.527 120.672C68.0036 122.119 64.5924 123.825 61.3217 125.777C61.133 125.892 60.9626 126.039 60.7678 126.142C60.0769 126.51 59.4468 126.425 59.039 125.749C58.6207 125.038 58.2791 124.284 58.0195 123.5C57.5782 122.206 57.6999 120.885 58.0408 119.585C58.1073 119.377 58.232 119.192 58.4 119.052C58.7348 118.766 59.106 118.523 59.5321 118.212C59.6812 116.097 60.3782 114.063 61.1878 112.079C61.9365 110.252 62.7096 108.426 63.927 106.831C65.0988 105.309 66.0972 103.64 67.4759 102.265C69.1411 100.652 70.9136 99.1539 72.781 97.7807C74.0137 96.8492 75.2768 95.9543 76.5916 95.1415C78.7221 93.8295 81.093 93.0716 83.4549 92.3106C84.2949 92.0396 85.1684 91.8874 86.0176 91.6409C88.2535 91.0286 90.5407 90.621 92.8505 90.4233C93.6723 90.3441 94.4879 90.1402 95.3127 90.1189C97.0719 90.0428 98.8402 89.988 100.602 90.0214C102.197 90.0519 103.795 90.1645 105.384 90.3259C106.815 90.4669 108.238 90.6854 109.645 90.9803C110.436 91.1508 111.167 91.5891 112.031 91.924C112.756 91.1325 112.85 89.9118 113.389 88.9104C113.927 87.9089 114.442 86.9744 115.029 85.9029C114.775 85.7282 114.494 85.5946 114.198 85.5071C112.981 85.3641 112.351 84.5939 112.004 83.5407C111.763 82.8162 111.645 82.0491 111.453 81.212C110.721 80.923 110.081 80.4424 109.599 79.8205C109.117 79.1987 108.811 78.4586 108.714 77.6779C108.467 75.9823 108.741 75.197 109.989 73.2336C109.946 73.1362 109.931 73.0022 109.858 72.9292C108.872 72.1468 108.534 71.1788 108.586 69.8851C108.662 68.0435 109.606 66.7924 110.896 65.6965C111.338 65.366 111.813 65.0833 112.314 64.8533C113.188 64.3876 114.07 63.9401 114.932 63.4957C114.886 63.3222 114.889 63.1912 114.828 63.1212C113.915 62.0345 113.997 60.7591 114.192 59.4958C114.646 56.537 116.371 54.4944 118.952 53.1216C120.429 52.3362 121.981 51.7792 123.804 52.0714C123.865 51.1034 123.889 50.1871 123.987 49.2769C124.04 48.73 124.158 48.1914 124.34 47.6727C125.134 45.4567 126.68 44.9331 128.488 45.2101C130.956 45.5967 133.309 46.4856 135.199 48.2085C135.92 48.866 136.417 49.7701 137.004 50.5707C137.193 50.8355 137.33 51.1338 137.482 51.3986C137.975 51.4686 137.969 50.9999 138.2 50.8081C138.453 50.5945 138.682 50.3536 138.882 50.0897C141.012 47.3501 143.807 46.3029 147.209 46.9391C149.477 47.3623 151.568 48.2146 153.199 49.9071C155.001 51.7761 155.491 54.0044 154.766 56.4852C154.392 57.7637 153.446 58.6556 152.472 59.4501C152.042 59.8002 151.343 59.8428 150.755 59.9615C149.894 60.135 149.599 60.5703 149.866 61.3313C150.259 62.4455 150.378 62.5855 151.592 63.2613L150.731 64.3267C150.942 64.4375 151.169 64.5146 151.403 64.555C153.156 64.4241 154.59 65.1638 156.005 66.077C156.54 66.4489 157.011 66.9054 157.399 67.4286C158.279 68.497 158.209 69.6598 157.956 70.8805C157.539 72.8835 156.301 74.3294 154.745 75.5501C154.614 75.6505 154.465 75.7297 154.331 75.8271C154.197 75.9245 154.082 76.0402 153.875 76.2167C153.726 77.7387 153.619 79.3277 153.397 80.9045C153.205 82.2622 153.059 83.6746 152.365 84.8618C151.512 86.405 150.376 87.7742 149.017 88.8982C148.231 89.5058 147.375 90.0168 146.467 90.4202C144.866 91.1569 143.228 91.8053 141.597 92.4567C141.333 92.5393 141.09 92.6774 140.885 92.8617C140.679 93.046 140.515 93.2722 140.404 93.5251C140.075 94.3379 139.774 95.1598 139.491 95.8903L140.897 97.9907C141.119 97.9055 141.372 97.8264 141.603 97.7107C141.947 97.5402 142.263 97.2967 142.62 97.1628C144.75 96.35 146.604 95.0319 148.485 93.7717C150.545 92.3928 152.663 91.099 154.736 89.7353C156.209 88.7612 157.655 87.7445 159.095 86.7217C160.718 85.571 162.325 84.4042 163.916 83.221C164.235 83.0102 164.498 82.7237 164.68 82.387C164.868 81.973 165.133 81.8817 165.529 81.7508C165.984 81.5637 166.398 81.2885 166.746 80.9411C167.659 80.1435 168.411 79.206 169.485 78.5546C170.499 77.9457 171.446 77.5348 172.599 78.2228C174.492 76.7007 176.334 75.1969 178.169 73.6993C178.68 73.2822 179.14 72.7861 179.672 72.4147C183.063 69.9551 186.475 67.5229 189.862 65.0633C191.688 63.7361 193.49 62.3755 195.295 61.0178C197.277 59.5293 199.279 58.0682 201.215 56.5248C202.679 55.359 204.046 54.0713 205.476 52.872C206.131 52.2836 206.82 51.7347 207.54 51.2282C209.141 50.1536 210.608 48.8995 212.282 47.9163C213.07 47.4536 213.703 46.6987 214.373 46.0564C214.963 45.481 215.508 44.857 216.171 44.1477C216.182 43.9304 216.166 43.7126 216.123 43.4994C215.684 41.9591 215.191 40.4371 214.78 38.8907C213.937 35.6944 212.985 32.5256 212.37 29.2685C212.327 29.0523 212.285 28.8362 212.26 28.614C212.087 27.0615 212.333 26.538 213.715 25.7952C217.023 24.0205 220.286 22.1667 223.418 20.0846C225.165 18.9197 226.856 17.6808 228.492 16.3678C230.342 14.8762 232.193 13.3877 234.001 11.8505C236.104 10.0667 238.164 8.23416 240.234 6.41078C241.688 5.13236 243.014 3.71412 244.191 2.17651C244.659 1.56771 245.125 0.940633 245.621 0.350089C246.063 -0.173486 246.647 -0.0730158 246.924 0.557101C247.012 0.759342 247.079 0.970607 247.122 1.1872C247.338 2.26783 247.563 3.34849 247.746 4.43825C248.354 8.02718 248.963 11.6161 250.034 15.0924C250.777 17.5276 251.389 19.9629 252.165 22.3981C252.71 24.1241 253.382 25.8074 253.854 27.573C254.217 28.9003 254.693 30.1937 255.279 31.4389C255.546 31.9576 255.671 32.5377 255.641 33.1204C255.612 33.7031 255.429 34.2677 255.111 34.7569C254.009 36.5377 252.871 38.2971 251.717 40.0444C250.092 42.5131 247.852 44.4126 245.767 46.4551C244.486 47.7374 243.084 48.8944 241.582 49.9101C239.972 50.9725 238.405 52.0988 236.795 53.1551C236.23 53.4996 235.636 53.7939 235.02 54.0348C233.453 54.7045 231.84 55.2859 230.303 56.0195C228.766 56.7531 227.18 57.0758 225.564 57.3771C224.94 57.4958 224.264 57.3437 223.674 57.3163L223.032 56.3787C222.873 56.413 222.718 56.4662 222.572 56.537C219.86 58.2325 217.118 59.8854 214.616 61.8915C213.624 62.6829 212.738 63.6022 211.761 64.415C210.151 65.7574 208.495 67.048 206.876 68.3722C204.873 70.019 202.892 71.6963 200.889 73.3462C198.887 74.9961 196.777 76.6946 194.735 78.381C193.886 79.0842 193.025 79.7843 192.252 80.5667C190.498 82.3383 188.52 83.8329 186.618 85.4371C185.096 86.7126 183.641 88.058 182.15 89.3792C182.15 89.9149 182.494 90.2711 182.786 90.6729C183.477 91.6287 183.446 92.3136 182.609 93.169C181.955 93.8387 181.228 94.4353 180.534 95.0654C180.251 95.3211 179.861 95.522 179.7 95.8416C179.606 96.0673 179.453 96.2633 179.257 96.4087C179.061 96.554 178.829 96.6431 178.586 96.6666C178.239 96.7183 177.922 97.0349 177.624 97.2754C174.909 99.4468 172.199 101.621 169.495 103.799C167.562 105.351 165.538 106.812 163.712 108.49C161.645 110.395 159.469 112.191 157.624 114.319C156.431 115.686 155.168 116.992 153.972 118.361C152.819 119.697 151.884 121.206 151.202 122.833C150.642 124.151 150 125.436 149.431 126.751C148.822 128.16 148.214 129.557 147.511 130.933C146.955 132.135 146.532 133.394 146.247 134.687C145.334 138.273 143.965 141.688 142.729 145.173C142.288 146.412 141.983 147.703 141.548 148.948C140.806 151.079 140.142 153.252 139.049 155.249C138.389 156.467 137.741 157.684 137.041 158.868C136.644 159.523 136.205 160.151 135.729 160.75C135.224 161.398 134.67 162.01 134.07 162.713C135.157 164.235 136.283 165.739 137.321 167.297C137.943 168.272 138.514 169.279 139.031 170.314C139.923 172.025 140.799 173.745 141.639 175.489C142.382 177.011 143.073 178.585 143.77 180.14C144.785 182.403 145.799 184.669 146.814 186.938C147.167 187.738 147.526 188.542 147.824 189.373C148.433 191.077 148.926 192.843 149.65 194.499C150.761 197.029 151.148 199.799 152.371 202.289C152.706 202.974 152.758 203.792 153.08 204.486C154.426 207.394 155.126 210.535 156.407 213.466C156.87 214.52 157.068 215.689 157.503 216.757C158.416 219.013 158.845 221.417 159.648 223.707C159.849 224.276 160.078 224.836 160.309 225.396C160.826 226.638 160.723 227.11 159.7 228.011C159.542 228.166 159.369 228.303 159.183 228.422C157.494 229.335 155.817 230.248 153.905 230.72C151.333 231.329 148.759 231.977 146.296 233.006C146.032 233.043 145.763 233.043 145.499 233.006C146.211 232.181 146.969 231.846 147.693 231.502C149.681 230.553 151.665 229.588 153.78 228.951C155.446 228.424 156.995 227.584 158.346 226.477C157.761 225.405 157.941 224.096 157.159 223.146C156.994 223.18 156.927 223.174 156.891 223.204C155.065 224.799 152.846 225.64 150.667 226.553C149.042 227.241 147.428 227.959 145.797 228.647C145.146 228.921 144.476 229.152 143.667 229.451C143.733 230.309 144.099 231.277 143.809 232.215C143.149 232.492 142.796 232.093 142.55 231.676C142.063 230.875 141.632 230.042 141.259 229.183C140.419 227.155 139.704 225.073 138.724 223.095C138.361 222.364 138.212 221.527 137.917 220.754C136.666 217.456 135.211 214.239 133.559 211.123C132.089 208.349 130.631 205.564 129.072 202.84C128.418 201.698 127.818 200.523 127.125 199.409C126.339 198.149 125.463 196.943 124.617 195.723C123.807 194.551 122.918 193.428 122.273 192.149C122.202 192 122.11 191.861 121.999 191.738C120.392 190.131 119.26 188.146 117.808 186.423C116.992 185.461 116.347 184.35 115.611 183.318C114.968 182.405 114.323 181.525 113.647 180.652C112.241 178.825 110.847 176.999 109.386 175.227C107.56 173.014 105.734 170.81 103.826 168.682C102.608 167.334 101.245 166.129 99.8691 164.786C99.6773 165.036 99.5008 165.228 99.3638 165.444C98.0337 167.541 96.7493 169.666 95.3705 171.733C94.2992 173.334 93.0939 174.847 91.986 176.427C91.1612 177.598 90.3607 178.792 89.6211 180.022C87.9979 182.714 86.402 185.424 84.8335 188.149C83.7528 189.947 82.5604 191.675 81.2634 193.324C80.396 194.466 79.559 195.631 78.6763 196.758C77.7937 197.884 76.8837 199.004 75.9371 200.106C74.3453 201.933 72.7506 203.759 71.107 205.555C70.0075 206.8 68.6666 207.809 67.1656 208.521C65.6646 209.233 64.0347 209.632 62.3748 209.695C62.2104 209.695 62.0462 209.734 61.8818 209.753C59.2187 210.072 56.7685 209.354 54.3702 208.27C52.1544 207.269 50.4317 205.704 48.849 203.905C47.6833 202.578 46.5267 201.248 45.4189 199.872C43.5927 197.595 41.8274 195.266 40.4274 192.679C39.7973 191.519 39.1643 190.362 38.6317 189.157C38.5221 188.904 38.4065 188.654 38.3273 188.393C37.4832 185.884 36.6433 183.375 35.8073 180.865C35.6155 180.286 35.4146 179.714 35.2503 179.13C34.8881 177.848 35.0554 176.752 36.2546 175.924C37.1129 175.334 37.8952 174.637 38.7687 173.94C38.6659 173.67 38.5287 173.416 38.3608 173.182C36.8998 171.702 36.002 169.876 35.1589 168.007C35.0676 167.806 35.0037 167.593 34.9033 167.398C33.2841 164.199 31.6679 161.005 30.0335 157.803C29.5343 156.826 28.9621 155.885 28.3686 154.835C27.8816 155.036 27.4221 155.185 26.996 155.404C24.5398 156.659 22.0257 157.8 19.7704 159.426C18.9902 159.947 18.1515 160.375 17.2716 160.701C16.5034 161.033 15.6454 161.097 14.8367 160.881C13.4427 160.5 12.7063 159.383 13.1506 158.025C13.3565 157.397 13.665 156.808 14.0636 156.281C14.5622 155.619 15.1409 155.021 15.7864 154.5C17.5273 153.143 19.2591 151.776 21.2648 150.796C22.8993 149.995 24.4575 149.042 26.092 148.242C28.5972 146.965 31.1922 145.872 33.8563 144.972C34.6933 144.702 35.5637 144.531 36.419 144.321C36.662 144.257 36.919 144.272 37.1531 144.363C37.3872 144.454 37.5862 144.618 37.7216 144.829C37.9 145.041 38.0384 145.283 38.1295 145.545C38.4978 146.808 39.3073 147.922 39.3743 149.298C39.3895 149.657 39.6392 150.013 39.8157 150.357C41.3187 153.374 43.0579 156.267 45.0172 159.009C46.0858 160.486 46.9365 162.11 47.5433 163.83C47.6164 164.086 47.6713 164.346 47.7077 164.61L47.4186 164.698ZM145.003 74.442C145.164 73.9824 145.371 73.5288 145.03 73.0326L145.006 74.439C145.252 74.7221 145.487 75.0143 145.748 75.2792C146.311 75.8484 147.002 76.2928 147.794 76.1041C148.841 75.8575 149.964 75.7083 150.782 74.9169C150.89 73.6586 150.681 72.3933 150.174 71.2367C149.939 71.3699 149.712 71.5173 149.495 71.6781C148.643 72.3752 147.788 73.0661 146.969 73.8089C146.579 74.1559 146.208 74.4177 145.651 74.3294C145.43 74.3309 145.211 74.3689 145.003 74.442ZM119.592 79.7843C118.983 79.8513 118.374 80.0522 117.811 79.9487C117.248 79.8452 116.77 79.4343 116.329 79.1968C115.824 79.5682 115.382 79.8909 114.947 80.2166C114.535 80.492 114.143 80.7972 113.775 81.1298C113.255 81.6625 113.307 82.3291 113.775 82.9106C114.244 83.492 114.837 83.6624 115.507 83.7811C116.177 83.8999 116.813 84.0034 117.449 84.1738C117.544 84.1988 117.632 84.2453 117.706 84.3097C117.781 84.3741 117.839 84.4547 117.877 84.5453C117.916 84.6358 117.932 84.734 117.927 84.8321C117.921 84.9303 117.893 85.0258 117.844 85.1114C117.619 85.4881 117.361 85.8437 117.072 86.1738C115.826 87.5819 114.873 89.2241 114.268 91.0047C113.726 92.7093 113.848 94.2557 115.276 95.5098C115.565 95.7655 115.854 96.0182 116.149 96.2587C117.431 97.3089 118.691 98.3895 120.002 99.391C121.22 100.326 122.477 101.217 124.072 101.476C125.104 101.634 126.123 101.918 127.161 102.012C128.744 102.155 130.32 102.575 131.918 102.255C133.102 102.015 134.353 102.182 135.61 101.58C135.914 100.627 136.252 99.5797 136.624 98.5356C136.885 97.8111 137.031 96.9345 137.537 96.4383C138.194 95.7869 138.337 95.0289 138.593 94.2557C138.78 93.6786 139.009 93.116 139.278 92.5723C139.411 92.2766 139.642 92.0359 139.932 91.8905C141.758 91.2117 143.28 89.9636 145.018 89.1235C146.656 88.3265 148.077 87.1454 149.16 85.6807C149.9 84.7092 150.382 83.567 150.563 82.3596C150.749 81.1146 150.798 79.8452 150.868 78.588C150.869 78.1583 150.839 77.729 150.779 77.3034L148.691 77.5378L146.832 77.7357C146.464 78.2623 146.223 78.9137 145.764 79.1999C144.948 79.7052 143.998 79.9852 142.97 80.4175C142.97 79.0842 144.172 78.7615 144.576 77.894C143.937 76.6764 143.292 75.4831 142.626 74.2411C141.916 74.5455 141.104 74.5455 140.705 75.0235C140.559 76.2198 140.522 77.2182 140.3 78.1771C139.719 80.6945 138.249 82.6701 136.31 84.3139C135.927 84.6323 135.498 84.8919 135.038 85.084C133.165 85.9264 131.11 86.2834 129.063 86.122C128.299 86.049 127.496 85.9972 126.866 85.4889C125.953 84.7614 125.119 83.9669 124.772 82.7888C124.522 81.9517 124.257 81.1207 123.974 80.2166C121.938 80.4814 120.176 81.6016 118.225 82.0765C117.991 81.4312 117.981 81.3155 118.155 81.1359C118.616 80.6691 119.079 80.2064 119.546 79.7478C119.865 79.721 120.182 79.6691 120.492 79.5926C121.594 79.2334 122.669 78.7859 123.783 78.4936C124.529 78.311 125.206 77.9167 125.734 77.3582C127.082 75.9793 128.473 74.6186 130.232 73.7541C133.175 72.3417 136.158 71.6233 139.183 73.3888C140.026 73.1514 140.818 72.9383 141.603 72.6978C141.746 72.6522 141.859 72.503 141.971 72.4147C141.822 72.0359 141.699 71.6474 141.603 71.2519C141.586 71.1482 141.594 71.0419 141.625 70.9415C141.656 70.8412 141.71 70.7494 141.783 70.6735C141.88 70.631 141.985 70.6121 142.091 70.6184C142.197 70.6248 142.3 70.6562 142.391 70.71C142.747 70.9453 143.088 71.2014 143.414 71.4771C143.663 70.9658 143.84 70.5639 144.05 70.1773C144.26 69.7907 144.497 69.4133 144.75 69.0511C145.003 68.6888 145.283 68.3479 145.56 68.0039C145.837 67.6599 146.168 67.2094 146.509 66.8563C146.834 66.5553 147.179 66.2766 147.541 66.0222C147.864 65.7726 148.351 65.7178 148.618 65.2034C148.372 65.1547 148.226 65.0786 148.107 65.109C147.465 65.2734 146.826 65.4469 146.193 65.6448C145.903 65.7392 145.596 65.7696 145.293 65.7338C144.991 65.6981 144.699 65.5971 144.44 65.4378C144.302 65.3712 144.183 65.2731 144.091 65.1515C143.998 65.0299 143.936 64.8883 143.909 64.7381C143.882 64.5879 143.891 64.4335 143.935 64.2874C143.979 64.1413 144.057 64.0077 144.163 63.8975C144.363 63.6387 144.604 63.4135 144.887 63.1091L143.137 61.9797C142.546 62.4942 142.069 62.9508 141.548 63.3526C141.179 63.6502 140.73 63.8314 140.258 63.8731C139.786 63.9149 139.313 63.8153 138.897 63.587C138.616 63.4402 138.344 63.2776 138.081 63.0999C137.722 63.3404 137.266 63.4835 137.107 63.7818C136.617 64.695 135.711 64.9811 134.916 65.4469C134.571 65.6171 134.244 65.821 133.939 66.0557C133.565 66.3845 133.102 66.5961 132.609 66.6645C132.281 66.712 131.961 66.8031 131.656 66.9354C131.045 67.2066 130.363 67.2717 129.712 67.1211C129.407 67.0724 129.103 66.9628 128.735 66.8654C128.345 67.6295 128.025 68.3266 127.645 68.9962C126.832 70.4269 125.758 71.5715 124.136 72.1012C123.728 72.2579 123.329 72.4357 122.94 72.6339C123.11 74.0311 122.705 75.203 122.166 76.378C121.561 77.7174 120.605 78.7615 119.592 79.7843ZM122.556 147.876C121.838 147.876 121.296 147.858 120.757 147.876C119.662 147.922 118.572 148.044 117.479 148.038C115.005 148.038 112.527 147.934 110.053 147.931C109.07 147.931 108.087 148.196 107.101 147.931C107.006 147.904 106.888 147.977 106.778 147.986C105.028 148.108 103.269 148.391 101.528 148.309C99.1027 148.227 96.6771 148.452 94.3084 148.978C93.6084 149.118 92.89 149.17 92.3908 149.819C92.2478 150.007 91.9069 150.041 91.6604 150.153C91.2468 150.29 90.8521 150.478 90.4856 150.714C89.3625 151.627 88.0507 152.236 86.7724 152.863C85.2575 153.673 83.607 154.199 81.9026 154.415C80.4204 154.558 78.9565 154.789 77.4803 154.954C75.3498 155.197 73.2192 155.426 70.9212 155.678C70.7295 156.071 70.4647 156.549 70.2547 157.051C67.695 163.221 65.3333 169.465 63.4797 175.885C63.1936 176.877 62.5452 177.766 62.6091 178.868C62.6091 178.974 62.2866 179.099 62.1496 179.187C61.5622 178.664 61.0234 178.204 60.5091 177.714C60.2291 177.452 59.8669 177.178 59.7665 176.841C59.4834 175.876 58.7073 175.318 58.1229 174.6C57.6586 174.056 57.2441 173.471 56.8842 172.853C56.1446 171.504 55.478 170.113 54.7719 168.749C54.5801 168.372 54.3641 168.004 54.0963 167.532C53.4449 168.205 52.9031 168.819 52.3035 169.358C50.6782 170.853 49.0256 172.32 47.382 173.793C45.3982 175.553 43.5248 177.434 41.7726 179.425C41.6344 179.597 41.4807 179.756 41.3131 179.9C41.1761 180.012 41.0848 180.308 40.8017 180.082C40.8504 179.498 41.2278 179.087 41.5504 178.652C42.9049 176.834 44.412 175.136 46.0551 173.574C47.0169 172.661 47.9938 171.766 48.9404 170.835C50.4318 169.373 51.8226 167.791 53.8771 166.978C53.7766 166.576 53.7159 166.256 53.6185 165.949C53.5058 165.579 53.3706 165.216 53.2136 164.862C52.8423 164.068 52.3158 163.879 51.634 164.412C50.377 165.398 49.1199 166.393 47.9664 167.495C45.8115 169.553 43.7206 171.678 41.3436 173.492C40.0287 174.5 38.7565 175.562 37.4203 176.536C37.0916 176.747 36.846 177.065 36.7256 177.436C36.6051 177.807 36.6173 178.209 36.7599 178.573C37.1129 179.729 37.5178 180.871 37.9317 182.009C38.6987 184.134 39.4798 186.256 40.2752 188.374C40.4958 188.996 40.7624 189.6 41.0727 190.183C41.8488 191.58 42.6249 192.983 43.4893 194.325C44.6184 196.085 45.7659 197.841 47.1964 199.388C47.7169 199.954 48.2099 200.548 48.7182 201.114C50.3922 202.94 52.0418 204.767 54.288 205.984C56.9876 207.442 59.7665 208.234 62.8527 207.935C64.956 207.761 66.9492 206.922 68.5442 205.54C69.8193 204.41 71.0181 203.197 72.1326 201.908C74.3889 199.339 76.5194 196.67 78.5242 193.902C79.4981 192.566 80.5848 191.312 81.507 189.945C83.1523 187.599 84.6761 185.169 86.0724 182.667C87.9533 179.145 90.3943 176.006 92.7166 172.783C94.6828 170.043 96.6733 167.34 98.6395 164.613C98.7794 164.44 98.8829 164.242 98.9438 164.028C99.0777 163.419 99.5037 163.264 100.039 163.212C100.414 163.607 100.81 163.98 101.227 164.33C103.707 166.186 105.81 168.436 107.922 170.689C108.635 171.45 109.313 172.25 110.022 173.005C110.697 173.729 111.325 174.495 111.904 175.297C112.29 175.833 112.719 176.341 113.139 176.856C114.119 178.049 115.114 179.23 116.085 180.436C116.74 181.245 117.348 182.095 118 182.91C118.377 183.382 118.818 183.802 119.193 184.277C120.042 185.358 120.87 186.457 121.707 187.546C122.882 189.068 124.096 190.59 125.222 192.149C126.023 193.263 126.692 194.469 127.438 195.622C128.418 197.144 129.468 198.627 130.396 200.188C131.185 201.512 131.869 202.898 132.548 204.283C133.461 206.161 134.502 207.978 135.379 209.884C136.088 211.43 136.931 212.928 137.552 214.511C138.334 216.504 139.132 218.492 139.88 220.501C140.793 222.936 141.846 225.277 142.851 227.658C142.906 227.786 143.067 227.871 143.116 227.913C144.723 227.283 146.26 226.696 147.788 226.087C149.315 225.478 150.923 224.982 152.371 224.203C153.82 223.423 155.488 223.159 156.857 222.178C156.647 221.36 156.501 220.608 156.249 219.886C155.74 218.364 155.168 216.888 154.645 215.381C153.577 212.313 152.445 209.269 151.248 206.249C150.031 203.178 149.054 200.018 147.982 196.892C147.751 196.216 147.632 195.494 147.374 194.834C146.512 192.685 145.608 190.554 144.716 188.417C143.907 186.484 143.152 184.524 142.254 182.633C141.609 181.357 141.082 180.024 140.681 178.652C140.582 178.332 140.447 178.026 140.276 177.739C139.725 176.78 139.294 175.758 138.992 174.694C138.947 174.422 138.834 174.165 138.663 173.949C138.054 173.34 137.789 172.558 137.427 171.818C136.94 170.832 136.435 169.848 135.878 168.899C135.044 167.471 134.164 166.074 133.294 164.667C133.13 164.403 132.926 164.168 132.761 163.946C132.619 163.971 132.481 164.014 132.35 164.074C130.524 165.371 128.327 165.87 126.29 166.686C125.047 167.128 123.771 167.471 122.474 167.711C121.546 167.918 120.556 168.171 119.543 167.873C118.453 167.55 118.176 167.246 118.325 166.119C118.426 165.355 118.545 164.597 118.688 163.833C119.035 162.007 119.196 160.117 119.808 158.327C120.091 157.493 120.328 156.643 120.578 155.797C120.986 154.424 121.409 153.057 121.795 151.672C122.133 150.494 122.519 149.341 122.568 147.876H122.556ZM164.941 84.1099C163.858 84.8374 162.917 85.5132 161.937 86.119C158.833 88.0337 155.878 90.1645 152.898 92.2619C150.329 94.07 147.867 96.0456 145.085 97.5463C144.071 98.0942 143.067 98.6665 142.056 99.2236C141.855 99.3156 141.676 99.4492 141.53 99.6155C141.384 99.7818 141.275 99.9771 141.21 100.189C140.684 102.103 140.13 104.012 139.618 105.933C139.554 106.314 139.527 106.7 139.536 107.086C139.538 107.252 139.525 107.417 139.497 107.579C139.465 107.714 139.387 107.834 139.275 107.916C139.163 107.998 139.026 108.037 138.888 108.027C138.693 108.036 138.5 107.995 138.326 107.906C138.153 107.817 138.005 107.685 137.899 107.522C137.683 107.217 137.497 106.861 137.29 106.535C136.986 106.088 136.855 105.525 136.243 105.202C136.131 105.381 136.037 105.571 135.963 105.768C135.403 107.785 134.85 109.806 134.304 111.829C133.677 114.173 132.865 116.462 132.42 118.858C131.842 121.833 131.059 124.766 130.077 127.634C129.188 130.3 128.159 132.918 127.38 135.618C126.893 137.314 126.351 138.994 125.898 140.696C125.594 141.868 125.408 143.073 125.131 144.254C124.459 147.095 123.773 149.936 123.073 152.777C122.839 153.739 122.559 154.689 122.34 155.654C121.591 158.935 120.856 162.219 120.133 165.505C120.111 165.781 120.118 166.06 120.152 166.336C121.625 165.964 122.958 165.62 124.294 165.294C127.283 164.567 130.062 163.435 132.262 161.179C132.685 160.747 133.066 160.266 133.48 159.833C136.751 156.354 139.083 152.36 140.191 147.682C140.535 146.233 140.979 144.805 141.375 143.368C141.898 141.461 142.422 139.55 142.945 137.636C143.268 136.467 143.417 135.259 143.715 134.093C144.287 131.853 145.042 129.661 145.736 127.451C145.843 127.136 145.977 126.831 146.135 126.538C146.941 124.912 147.757 123.293 148.57 121.667C149.44 119.929 150.472 118.319 151.942 117.007C152.681 116.349 153.414 115.683 154.143 115.007C154.544 114.633 154.916 114.222 155.327 113.853C156.882 112.459 158.413 111.034 160.014 109.698C162.004 108.042 164.059 106.462 166.08 104.828C166.768 104.277 167.425 103.689 168.119 103.147C169.507 102.061 170.922 101.017 172.301 99.9146C173.68 98.8126 175.168 97.7137 176.516 96.3469C176.281 96.1021 176.03 95.8732 175.764 95.662C174.775 94.9802 173.747 94.3531 172.776 93.6469C171.579 92.7721 170.487 91.7619 169.522 90.6363C167.833 88.6821 166.116 86.7613 164.941 84.1099ZM225.071 55.1915C225.358 55.2213 225.648 55.2213 225.935 55.1915C226.901 54.9756 227.854 54.7062 228.79 54.3849C231.465 53.3529 233.985 51.974 236.582 50.7594C238.758 49.7396 240.642 48.3059 242.459 46.8021C244.931 44.7729 247.209 42.5188 249.264 40.0687C249.614 39.6486 250.025 39.2742 250.336 38.8268C251.06 37.7918 251.663 36.6624 252.466 35.6914C253.592 34.3277 253.933 33.0126 253.148 31.311C252.279 29.3448 251.517 27.3328 250.865 25.2838C250.08 22.9399 249.417 20.5564 248.689 18.1912C248.51 17.6128 248.211 17.0619 248.105 16.4744C247.8 14.9067 247.31 13.3999 247.033 11.8231C246.729 10.088 246.376 8.36203 246.12 6.6117C245.962 5.48236 245.755 4.35908 245.539 3.03796C245.165 3.36672 244.93 3.55851 244.705 3.77464C243.253 5.21142 241.832 6.67866 240.353 8.08196C239.391 8.99517 238.298 9.76228 237.349 10.6816C234.442 13.4821 231.201 15.8869 228.078 18.4226C225.509 20.5108 222.584 22.1089 219.738 23.7983C217.937 24.8668 216.086 25.8409 214.26 26.8424C214.059 26.9369 213.896 27.0974 213.798 27.2973C213.701 27.4972 213.675 27.7245 213.724 27.9413C213.929 29.4711 214.25 30.9832 214.683 32.4647C215.444 35.0582 216.12 37.6761 216.88 40.2666C217.139 41.1402 217.252 42.0717 217.678 42.9149C218.308 42.5861 218.828 42.2817 219.376 42.0382C220.067 41.7338 220.791 41.6364 221.376 42.2422C221.634 42.4972 221.808 42.8261 221.872 43.1836C221.936 43.5412 221.889 43.9099 221.735 44.2391C221.607 44.5648 221.352 44.8479 221.385 45.2984C221.689 45.2984 221.899 45.2984 222.115 45.2984C222.889 45.2984 223.257 45.8159 223.105 46.6682C223.022 46.987 222.9 47.2939 222.739 47.5814C222.529 48.0198 222.298 48.4429 222.039 48.9512C222.617 48.9806 223.192 49.0426 223.762 49.1369C224.008 49.1982 224.231 49.3308 224.402 49.5182C224.573 49.7056 224.685 49.9393 224.724 50.1902C224.809 50.6924 224.675 51.2343 224.635 51.7944C225.069 51.7248 225.506 51.6841 225.944 51.6726C226.098 51.6683 226.251 51.7017 226.389 51.7699C226.527 51.8381 226.646 51.939 226.736 52.0639C226.826 52.1888 226.884 52.3339 226.905 52.4864C226.927 52.6389 226.91 52.7943 226.857 52.9389C226.764 53.2526 226.609 53.5444 226.401 53.7973C226.06 54.2083 225.661 54.5858 225.083 55.1915H225.071ZM123.14 145.825C123.323 144.939 123.445 144.239 123.612 143.545C124.148 141.11 124.559 138.674 125.259 136.291C126.193 133.125 127.344 130.02 128.424 126.897C129.27 124.462 130.056 121.99 130.698 119.473C131.879 114.827 133.157 110.203 134.871 105.713C135.051 105.311 135.176 104.886 135.242 104.45C135.269 104.173 135.056 103.878 134.937 103.574C134.073 104.036 133.3 104.423 132.405 104.487C130.704 104.596 129.002 104.745 127.313 104.328C126.784 104.198 126.233 104.134 125.691 104.051C123.186 103.668 120.891 102.764 118.971 101.096C117.558 99.8781 116.256 98.5174 114.914 97.2115C114.601 96.9002 114.304 96.573 114.025 96.2313C113.72 95.869 113.44 95.4885 113.084 95.0319C112.921 95.2325 112.774 95.4464 112.646 95.6712C112.141 96.834 111.642 97.9999 111.161 99.1688C110.576 100.593 110.032 102.027 109.539 103.491C108.729 105.887 107.871 108.258 107.189 110.7C106.808 112.069 106.471 113.476 105.649 114.693C105.5 114.9 105.416 115.145 105.407 115.399C105.398 115.653 105.464 115.905 105.597 116.121C105.841 116.121 106.057 116.158 106.267 116.151C109.078 116.033 111.891 116.318 114.621 116.998C115.416 117.216 116.194 117.491 116.95 117.82C117.394 118.005 117.945 118.228 117.863 118.842C117.802 119.384 117.321 119.658 116.858 119.853C116.545 119.958 116.223 120.036 115.897 120.087L114.557 120.392C115.22 120.751 115.864 121.143 116.487 121.567C117.214 122.106 117.208 122.602 116.575 123.363L116.231 123.771C116.734 124.276 117.056 124.83 116.688 125.545C116.524 125.85 116.807 126.039 116.913 126.279C117.199 126.927 117.081 127.323 116.487 127.661C116.208 127.836 115.898 127.957 115.574 128.017C114.71 128.181 113.833 128.266 112.953 128.27C109.852 128.127 106.778 128.471 103.698 128.696C102.928 128.754 102.176 128.888 101.4 128.985C101.205 128.994 101.017 129.063 100.863 129.182C100.708 129.302 100.594 129.465 100.536 129.652C100.161 130.805 99.7198 131.947 99.4611 133.128C99.2395 134.092 98.9456 135.037 98.5816 135.956C98.2773 136.778 97.9454 137.597 97.6532 138.428C96.7726 140.918 95.9042 143.41 95.0479 145.904C95.0266 145.968 95.1301 146.074 95.191 146.193C96.8376 145.77 98.5283 145.543 100.228 145.517C102.203 145.517 104.185 145.402 106.157 145.502C106.702 145.53 107.262 145.368 107.801 145.429C110.094 145.692 112.401 145.827 114.71 145.834C117.476 145.837 120.225 145.825 123.14 145.825ZM107.545 92.7976C106.218 92.6089 105.238 92.4932 104.276 92.3227C101.955 91.8488 99.5857 91.6526 97.2181 91.7383C95.2885 91.8326 93.3558 91.924 91.4353 92.1371C89.7915 92.3288 88.1589 92.6061 86.5441 92.9681C85.0365 93.2914 83.548 93.6979 82.0852 94.1857C80.4721 94.7336 78.8134 95.2176 77.3798 96.1917C76.1959 96.9953 74.9876 97.7685 73.8584 98.627C72.1245 99.9018 70.4791 101.293 68.9338 102.791C67.0311 104.79 65.3943 107.027 64.0641 109.445C62.9745 111.368 62.163 113.435 61.6536 115.585C61.5075 116.194 61.1483 116.803 61.3643 117.561C61.9764 117.478 62.5725 117.304 63.1327 117.043C63.43 116.898 63.7437 116.79 64.067 116.721C65.6801 116.371 67.2933 116.021 68.9095 115.704C70.206 115.451 71.5087 115.095 72.8174 115.059C73.7471 115.011 74.6502 114.732 75.4441 114.246C76.4485 113.671 77.4193 113.028 78.4603 112.523C81.7382 110.949 84.9706 109.275 88.3368 107.881C89.1342 107.552 89.7977 108.018 89.7277 108.876C89.6422 109.424 89.411 109.938 89.0582 110.365C87.999 111.911 86.7754 113.33 85.5793 114.766C85.0649 115.375 84.5384 116.033 84.4258 116.998C84.8245 116.973 85.1471 116.964 85.4666 116.931C87.3293 116.718 89.1738 116.352 91.0639 116.352C94.211 116.352 97.358 116.288 100.499 116.228C101.54 116.206 102.578 116.103 103.558 116.039C103.807 115.758 103.986 115.422 104.08 115.058C104.175 114.695 104.182 114.314 104.103 113.948C104.008 113.515 104.003 113.067 104.088 112.633C104.174 112.198 104.348 111.786 104.599 111.421C104.861 111.019 104.937 110.493 105.098 110.027C105.707 108.307 105.947 106.481 106.729 104.815C107.314 103.57 107.843 102.298 108.388 101.032C108.507 100.758 108.58 100.463 108.692 100.088C107.755 99.9298 106.939 99.805 106.127 99.6528C105.314 99.5006 104.504 99.324 103.692 99.1536C103.448 99.0983 103.219 98.9946 103.017 98.8487C102.814 98.7028 102.643 98.5176 102.514 98.3043C102.4 98.1443 102.338 97.9535 102.335 97.7572C102.333 97.5609 102.389 97.3685 102.499 97.2054C102.649 96.9738 102.836 96.7682 103.053 96.5966C104.027 95.7838 105.019 94.9924 105.99 94.1796C106.461 93.8174 106.891 93.3942 107.545 92.7976ZM215.934 47.5266C215.648 47.7367 215.38 47.9041 215.146 48.1111C214.58 48.6225 214.071 49.213 213.459 49.6635C212.221 50.5768 210.909 51.3895 209.664 52.2936C208.197 53.3621 206.767 54.4823 205.321 55.5812C204.712 56.05 204.103 56.5157 203.495 56.9906C202.104 58.0682 200.698 59.1214 199.328 60.2355C197.876 61.4105 196.345 62.479 194.83 63.5839C192.379 65.3556 189.944 67.1577 187.485 68.9232C185.251 70.5274 182.969 72.0707 180.747 73.6932C178.525 75.3157 176.431 76.9443 174.276 78.5637C174.023 78.7555 173.777 78.9503 173.503 79.1725C173.612 79.3307 173.733 79.4803 173.865 79.62C175.329 80.865 176.671 82.2409 178.032 83.5772C179.148 84.6456 180.063 85.9068 180.731 87.3001C180.892 87.5926 181.07 87.8752 181.264 88.1463C182.354 87.1905 183.34 86.3199 184.335 85.4493C185.166 84.7218 185.933 83.8908 186.855 83.3185C188.828 82.0796 190.572 80.5788 192.358 79.0934C196.147 75.9732 199.663 72.5425 203.577 69.5563C205.723 67.9156 207.874 66.2779 210.011 64.622C210.662 64.1167 211.256 63.5383 211.892 63.0117C213.292 61.8488 214.646 60.6221 216.123 59.5658C218.542 57.8338 220.855 55.9434 223.47 54.4914C224.074 54.1618 224.587 53.6868 224.961 53.1094C224.481 53.1389 224.014 53.274 223.592 53.5051C222.426 53.9983 221.263 54.5036 220.079 54.9602C219.702 55.1063 219.267 55.4259 218.862 54.9784C218.597 54.674 218.81 54.2205 219.404 53.7608C220.277 53.0881 221.163 52.4306 222.027 51.7457C222.214 51.5324 222.375 51.2973 222.505 51.0456C221.732 51.0813 220.974 51.2739 220.277 51.6117C219.739 51.8894 219.174 52.1127 218.591 52.2784C218.381 52.3573 218.15 52.3624 217.936 52.2927C217.723 52.223 217.539 52.0826 217.416 51.8948C217.2 51.56 217.273 51.1825 217.696 50.7168C218.433 49.901 219.191 49.1034 219.93 48.2815C220.05 48.125 220.152 47.9555 220.234 47.7763C219.857 47.5297 219.626 47.7427 219.404 47.8615C218.764 48.1902 218.15 48.5647 217.504 48.8721C216.591 49.3104 216.104 48.9817 216.047 47.9193C216.017 47.7862 215.979 47.6551 215.934 47.5266ZM65.0623 153.733C65.2381 153.797 65.4211 153.839 65.6071 153.858C66.6511 153.791 67.695 153.706 68.739 153.624C69.719 153.548 70.7204 153.319 71.6761 153.441C72.4368 153.523 73.2041 153.523 73.9648 153.441C76.4941 153.228 79.005 152.811 81.5556 152.832C81.8296 152.807 82.1014 152.762 82.3683 152.695C83.8658 152.488 85.2323 151.87 86.5714 151.234C88.0932 150.519 89.5238 149.545 90.2847 148.047C90.8934 146.829 91.8065 145.916 92.6679 144.927C92.8288 144.699 93.0203 144.494 93.237 144.318C93.6568 144.042 93.9551 143.616 94.0709 143.128C94.2596 142.44 94.4026 141.734 94.6492 141.07C95.6292 138.434 96.6946 135.828 97.6198 133.174C97.9988 132.027 98.4564 130.909 98.9894 129.825C99.0107 129.789 98.9712 129.719 98.9377 129.554C98.641 129.53 98.3426 129.53 98.0459 129.554C97.5559 129.624 97.0781 129.777 96.5911 129.859C94.6858 130.163 92.7835 130.513 90.8722 130.796C87.929 131.229 85.004 131.813 82.0121 131.871C80.2499 131.904 78.4877 132.005 76.7285 132.099C76.4279 132.142 76.1324 132.215 75.8458 132.315C75.7424 132.553 75.6632 132.699 75.6115 132.854C75.0271 134.58 74.5127 136.33 73.8492 138.029C72.6592 141.073 70.9851 143.864 69.1529 146.552C67.7863 148.561 66.3711 150.54 65.3698 152.768C65.2498 153.084 65.1471 153.406 65.0623 153.733ZM137.853 74.3903C136.356 73.6658 134.925 73.4101 133.437 73.8271C131.121 74.4755 129.124 75.7266 127.271 77.2273C127.055 77.3987 126.863 77.5971 126.698 77.8179C126.574 77.9853 126.394 78.2501 126.446 78.3932C126.75 79.2334 125.989 79.5439 125.6 80.11C125.7 80.6245 125.776 81.1663 125.904 81.6899C126.422 83.6685 127.943 84.8527 129.839 84.7796C130.771 84.7283 131.696 84.599 132.606 84.393C135.461 83.7842 137.056 81.766 138.228 79.2851C138.708 78.2654 138.785 77.1938 138.864 76.1041C138.733 76.0884 138.602 76.0813 138.471 76.0828C137.467 76.165 137.29 75.9488 137.61 75.0174C137.674 74.856 137.735 74.719 137.853 74.3903ZM181.471 92.0457C181.401 91.7407 181.26 91.4566 181.059 91.2169C180.858 90.9771 180.603 90.7886 180.314 90.6668C180.123 90.5815 179.858 90.4841 179.791 90.3259C179.459 89.5253 178.793 89.0291 178.221 88.4385C177.776 88.0211 177.427 87.5122 177.198 86.947C176.888 86.1843 176.447 85.4818 175.895 84.8709C174.881 83.5721 173.856 82.2744 172.821 80.9776C172.621 80.714 172.398 80.4685 172.155 80.244C171.187 79.3825 170.907 79.3582 169.838 80.0583C169.465 80.2951 169.118 80.5695 168.801 80.8772C168.073 81.6229 167.379 82.3992 166.609 83.2363C166.677 83.4 166.759 83.5578 166.853 83.7081C167.038 83.982 167.242 84.2408 167.461 84.4996C168.052 85.2241 168.661 85.9363 169.239 86.67C169.817 87.4036 170.828 87.711 171.144 88.6821C172.62 89.7383 173.789 91.1903 175.433 92.0305C176.553 92.6089 177.651 93.2146 178.507 94.1796C178.604 94.2892 178.793 94.3135 178.994 94.4018C179.855 93.6834 180.808 93.0168 181.474 92.0518L181.471 92.0457ZM60.7313 124.976C61.6443 124.51 62.5148 124.063 63.3944 123.615C66.015 122.319 68.6295 121.007 71.2714 119.756C72.431 119.205 72.4643 119.266 72.3487 118.088C72.3082 117.844 72.2461 117.605 72.1631 117.372C71.4752 117.232 70.9791 117.515 70.4647 117.677C70.1081 117.823 69.7433 117.948 69.3721 118.051C67.6494 118.404 65.9176 118.721 64.198 119.062C63.76 119.118 63.3313 119.232 62.9227 119.399C62.0096 119.85 61.0387 120.008 60.0708 120.224C59.7665 120.294 59.4834 120.392 59.1395 120.492C59.6325 122.063 59.7056 123.646 60.7344 124.982L60.7313 124.976ZM86.2429 110.593L85.9963 110.356C85.7484 110.426 85.5054 110.512 85.2688 110.614C83.257 111.628 81.2452 112.63 79.2516 113.658C77.8394 114.395 76.4667 115.202 75.0606 115.951C74.2175 116.398 73.8066 117.08 73.6666 118.081C74.336 118.234 75.0266 118.273 75.7088 118.194C78.2076 117.89 80.7003 117.524 83.2478 117.174C83.2752 114.584 85.0619 112.724 86.2458 110.599L86.2429 110.593ZM103.969 97.6255C105.664 97.8203 106.961 97.9755 108.26 98.1186C108.482 98.1307 108.703 98.0879 108.905 97.9939C109.106 97.8999 109.281 97.7577 109.414 97.5798C109.959 96.971 110.458 96.3074 110.999 95.6894C111.648 94.9497 111.785 94.1674 111.277 93.2055L108.872 92.8524C107.67 94.758 105.841 95.9208 103.972 97.6315L103.969 97.6255ZM138.568 105.391C139.449 103.327 139.883 101.099 139.841 98.8553C139.314 98.6391 139.095 97.942 138.319 97.872C138.127 98.7365 137.966 99.5919 137.738 100.429C137.509 101.266 137.217 102.085 136.961 102.886L138.568 105.391ZM151.528 66.1683C151.881 67.2063 152.207 68.077 152.475 68.9658C152.779 69.9582 153.013 70.9657 153.29 71.9642C153.359 72.1429 153.443 72.315 153.543 72.4786C154.228 71.9368 154.456 71.261 154.712 70.5974C155.439 68.768 154.544 66.6736 151.531 66.1744L151.528 66.1683ZM149.093 66.3784C148.521 66.7406 148.083 66.9081 147.8 67.2185C146.574 68.4924 145.679 70.0478 145.194 71.7481C145.097 72.1073 145.295 72.3569 145.803 72.4086C146.132 71.8942 146.467 71.331 146.838 70.7922C147.22 70.1876 147.652 69.6154 148.128 69.0815C148.632 68.6406 149.169 68.2396 149.735 67.8821C149.544 67.4468 149.358 67.0055 149.096 66.3845L149.093 66.3784ZM148.71 70.7557C149.178 71.0358 149.51 70.7557 149.842 70.6035C150.551 70.2808 150.579 69.879 149.952 69.0815C149.404 69.5289 148.978 70.1067 148.713 70.7618L148.71 70.7557ZM218.168 45.9072L217.967 45.6606C217.544 45.965 217.091 46.2177 217.054 46.9148L218.168 45.9072ZM218.506 45.1036C219.288 45.0123 219.288 45.0123 219.358 44.3182L218.506 45.1036ZM147.894 62.4333C147.864 62.3998 147.83 62.3389 147.803 62.342C147.717 62.3537 147.632 62.373 147.55 62.3998C147.581 62.4333 147.614 62.4942 147.644 62.4911C147.73 62.4813 147.815 62.4639 147.897 62.4394L147.894 62.4333Z" fill="black"/>
<path d="M190.955 54.4365C190.865 54.1659 190.812 53.8843 190.797 53.5994C190.894 53.0487 191.19 52.5527 191.628 52.2052C193.125 50.9876 194.62 49.77 196.126 48.5524C197.894 47.1369 199.976 46.2146 201.876 45.0031C203.239 44.1406 204.857 43.7731 206.459 43.962C206.679 43.9823 206.896 44.023 207.108 44.0838C207.197 44.12 207.277 44.1749 207.344 44.245C207.41 44.315 207.46 44.3985 207.491 44.4897C207.523 44.5809 207.534 44.6778 207.524 44.7737C207.515 44.8696 207.485 44.9623 207.436 45.0456C207.319 45.2313 207.169 45.3934 206.992 45.5236C206.36 45.9649 205.698 46.3606 205.01 46.7077C204.155 47.0943 203.294 47.4352 202.576 48.0745C202.302 48.2601 201.998 48.3971 201.678 48.4793C198.313 49.712 195.146 51.4286 192.276 53.5751C191.932 53.8521 191.549 54.056 190.955 54.4365Z" fill="black"/>
<path d="M255.946 5.14747C254.22 7.05304 253.958 9.3574 255.31 11.82C255.809 12.7332 256.527 13.5125 257.166 14.3435C257.323 14.4982 257.487 14.6445 257.659 14.7819C259.233 16.4043 259.406 17.1532 258.372 19.2018C258.171 19.529 258.079 19.9108 258.108 20.2933C258.137 20.6757 258.286 21.0394 258.533 21.3327C258.905 21.8119 259.223 22.3304 259.482 22.879C259.75 23.482 259.916 24.1247 259.976 24.7815C260.035 26.4953 259.851 28.2088 259.431 29.8712C259.325 30.1627 259.183 30.4399 259.008 30.6961C258.53 30.5835 258.621 30.2547 258.624 30.0173C258.648 28.7997 258.716 27.582 258.74 26.3644C258.767 24.7815 258.435 23.2991 257.455 22.0054C257.321 21.8288 257.245 21.6157 257.124 21.4331C256.799 20.982 256.606 20.449 256.569 19.8943C256.531 19.3396 256.65 18.7855 256.911 18.2947C257.474 17.1745 257.194 16.2947 256.302 15.4881C255.829 15.0249 255.38 14.5383 254.957 14.03C253.773 12.6939 253.067 11.0018 252.951 9.2204C252.817 7.54009 253.112 5.91154 254.549 4.74568C255.081 4.33169 255.501 4.45343 255.946 5.14747Z" fill="black"/>
<path d="M1.40295 163.599C1.07119 163.681 0.89167 163.489 0.766882 163.225C0.0942451 161.788 -0.0396705 160.251 0.00902714 158.704C0.0392747 157.822 0.15545 156.946 0.355965 156.086C0.762501 154.302 1.69815 152.682 3.04045 151.438C3.16935 151.347 3.31369 151.28 3.46652 151.24C3.50609 151.24 3.56396 151.268 3.66745 151.304C3.69647 151.446 3.69647 151.592 3.66745 151.733C3.14699 152.826 2.62653 153.919 2.06651 154.99C0.60862 157.779 0.435075 160.655 1.39685 163.626L1.40295 163.599Z" fill="black"/>
<path d="M50.4536 110.03C50.2954 111.132 49.6107 111.759 49.2759 112.544C48.9411 113.33 48.5119 114.136 48.244 114.979C48.0038 115.768 47.8346 116.577 47.7388 117.396C47.6201 118.267 47.5957 119.15 47.5044 120.331C47.2913 119.85 47.1239 119.628 47.0996 119.39C46.92 117.518 46.9017 115.652 47.4039 113.814C47.7909 112.483 48.5591 111.294 49.6137 110.395C49.7811 110.228 50.058 110.191 50.4536 110.03Z" fill="black"/>
<path d="M55.0469 111.302C54.2739 113.095 53.5252 114.562 53.0047 116.109C52.5056 117.6 52.2438 119.171 51.8146 120.979C51.5102 119.104 51.9211 117.558 52.189 116.011C52.365 115.206 52.6031 114.415 52.9011 113.646C53.1485 112.853 53.6123 112.145 54.2403 111.601C54.4961 111.469 54.7671 111.369 55.0469 111.302Z" fill="black"/>
<path d="M11.7325 148.455C11.7325 148.668 11.7324 148.738 11.7111 148.774C10.378 150.573 9.03883 152.369 7.58398 154.327C7.70573 152.707 8.60053 151.63 9.31273 150.497C10.1071 149.234 10.4937 148.981 11.7325 148.455Z" fill="black"/>
<path d="M196.846 44.8479C196.907 44.65 196.907 44.3638 197.041 44.2725C198.364 43.3032 199.832 42.5481 201.39 42.0352C201.478 42.0078 201.597 42.0747 201.834 42.1265C201.592 42.3378 201.334 42.5292 201.061 42.6987C199.652 43.4202 198.234 44.1203 196.818 44.8296L196.846 44.8479Z" fill="black"/>
<path d="M196.818 44.8265C196.575 44.793 196.697 44.8265 196.818 44.8265C196.602 44.7596 196.724 44.7961 196.849 44.8418L196.818 44.8265Z" fill="black"/>
<path d="M1.38867 163.626V163.9C1.38867 163.803 1.38869 163.709 1.41 163.596C1.40391 163.599 1.38867 163.626 1.38867 163.626Z" fill="black"/>
<path d="M218.173 45.9133L217.059 46.9209C217.095 46.2238 217.549 45.962 217.972 45.6667L218.173 45.9133Z" fill="white"/>
<path d="M218.51 45.1096L219.362 44.3242C219.292 45.0243 219.292 45.0244 218.51 45.1096Z" fill="white"/>
<path d="M145.007 74.4391L145.031 73.0327C145.372 73.5289 145.165 73.9825 145.004 74.4421L145.007 74.4391Z" fill="white"/>
<path d="M147.899 62.4393C147.817 62.4658 147.734 62.4851 147.649 62.4972C147.619 62.4972 147.585 62.4393 147.555 62.4058C147.637 62.379 147.722 62.3597 147.807 62.348C147.838 62.345 147.871 62.4058 147.899 62.4393Z" fill="white"/>
<path d="M116.394 160.954C116.249 161.23 116.073 161.488 115.868 161.724C115.49 162.028 115.067 162.305 114.666 162.594C113.372 163.508 112.048 164.399 110.794 165.374C110.085 165.921 109.272 165.982 108.481 166.052C107.69 166.122 107.328 165.419 107.608 164.686C107.766 164.211 108.103 163.818 108.548 163.59C108.888 163.409 109.238 163.246 109.595 163.103C111.549 162.378 113.503 161.66 115.466 160.972C115.773 160.926 116.086 160.919 116.394 160.954Z" fill="black"/>
<path d="M112.512 158.126C112.208 158.512 112.114 158.777 111.904 158.896C111.2 159.319 110.467 159.696 109.743 160.089C108.294 160.878 106.842 161.66 105.399 162.46C105.042 162.719 104.604 162.843 104.164 162.811C103.998 162.796 103.84 162.74 103.702 162.648C103.565 162.555 103.453 162.429 103.378 162.281C103.318 162.098 103.312 161.901 103.362 161.715C103.411 161.529 103.514 161.362 103.658 161.234C103.79 161.133 103.932 161.046 104.081 160.975C104.373 160.819 104.679 160.691 104.994 160.591C107.244 160.047 109.329 159.042 111.496 158.269C111.83 158.193 112.17 158.145 112.512 158.126Z" fill="black"/>
<path d="M114.567 166.664C114.43 167.206 114.037 167.313 113.705 167.434C112.628 167.83 111.541 168.192 110.458 168.551C110.198 168.636 109.929 168.693 109.657 168.722C109.494 168.752 109.325 168.724 109.181 168.64C109.037 168.557 108.927 168.425 108.872 168.268C108.847 168.107 108.876 167.942 108.953 167.798C109.031 167.654 109.153 167.539 109.301 167.471C109.607 167.354 109.923 167.265 110.245 167.206C111.48 167.003 112.718 166.809 113.958 166.625C114.162 166.617 114.366 166.63 114.567 166.664Z" fill="black"/>
<path d="M60.2634 201.156C59.8768 200.998 59.6151 200.974 59.4964 200.828C58.7689 199.948 58.0476 199.062 57.3902 198.131C57.2549 197.837 57.2238 197.506 57.3019 197.193C57.3199 197.084 57.3683 196.982 57.4413 196.899C57.5144 196.816 57.6093 196.755 57.7152 196.723C57.8212 196.692 57.9339 196.69 58.0405 196.719C58.1472 196.749 58.2436 196.807 58.3186 196.889C58.6222 197.199 58.8594 197.567 59.0156 197.972C59.2783 198.858 59.6811 199.695 60.2087 200.453C60.2848 200.575 60.2421 200.767 60.2634 201.156Z" fill="black"/>
<path d="M140.072 194.624C138.754 195.446 136.855 195.878 135.711 195.607C135.511 195.536 135.334 195.412 135.199 195.248C135.159 195.194 135.133 195.131 135.121 195.065C135.11 194.999 135.115 194.931 135.134 194.867C135.154 194.803 135.189 194.745 135.236 194.697C135.282 194.648 135.34 194.612 135.403 194.59C135.617 194.555 135.833 194.547 136.049 194.566C137.241 194.732 138.452 194.701 139.634 194.475C139.753 194.45 139.896 194.56 140.072 194.624Z" fill="black"/>
<path d="M58.4154 191.507C58.2267 190.956 58.0928 190.758 58.111 190.569C58.1689 189.595 58.245 188.618 58.3637 187.647C58.4083 187.377 58.5384 187.128 58.7349 186.938C58.8274 186.851 58.9369 186.785 59.0564 186.743C59.1758 186.701 59.3027 186.684 59.4289 186.694C59.7333 186.761 59.7728 187.084 59.6724 187.364C59.4563 187.973 59.1946 188.581 59.0029 189.19C58.8111 189.799 58.6711 190.466 58.4154 191.507Z" fill="black"/>
<path d="M65.1126 189.461C64.5465 189.014 64.5374 188.451 64.5039 187.738C65.1978 188.341 65.1978 188.341 65.1126 189.461Z" fill="black"/>
<path d="M143.496 82.1616C143.694 82.3321 143.906 82.4859 144.13 82.6213C144.677 82.9013 145.198 83.1753 145.286 83.8815C145.435 84.6407 145.313 85.4279 144.942 86.1067C144.634 86.5554 144.255 86.9521 143.822 87.2817C143.732 87.3458 143.629 87.3891 143.521 87.4085C143.412 87.4278 143.301 87.4227 143.194 87.3936C143.088 87.3644 142.989 87.312 142.906 87.24C142.822 87.1679 142.756 87.0782 142.711 86.9773C142.547 86.5785 142.325 86.1219 142.382 85.7262C142.538 84.6516 142.818 83.5954 143.076 82.533C143.107 82.396 143.305 82.3108 143.496 82.1616ZM143.496 86.9408C144.47 85.7688 144.656 84.8495 144.023 83.6775C143.502 84.6753 143.319 85.8148 143.499 86.9256L143.496 86.9408Z" fill="black"/>
<path d="M135.831 69.4711C135.647 69.6505 135.442 69.8078 135.222 69.9399C134.723 70.1712 134.19 70.3325 133.7 70.5487C132.945 70.8805 132.114 71.127 131.472 71.6141C130.255 72.5273 128.821 72.923 127.515 73.5866C127.281 73.7332 127.022 73.8363 126.752 73.891C126.624 73.9127 126.492 73.9079 126.366 73.877C126.24 73.8462 126.122 73.7898 126.018 73.7114C125.884 73.5501 125.933 73.2061 125.954 72.9474C125.969 72.7812 126.041 72.6254 126.158 72.506C127.071 71.6506 127.823 70.6156 129.168 70.296C131.034 69.8516 132.851 69.191 134.79 69.0784C135.167 69.0419 135.551 68.9719 135.831 69.4711Z" fill="black"/>
<path d="M129.421 79.4982C129.74 78.5332 130.638 78.2806 131.204 77.6504C130.693 77.346 130.291 77.5865 129.884 77.6109C129.476 77.6352 129.119 77.69 128.739 77.6778C128.664 77.6574 128.596 77.619 128.54 77.5659C128.483 77.5128 128.441 77.4467 128.417 77.3734C128.409 77.2985 128.42 77.2229 128.448 77.1533C128.477 77.0836 128.522 77.0222 128.581 76.9746C128.863 76.8071 129.172 76.6878 129.494 76.6216C131.341 76.3113 133.216 76.1919 135.088 76.2654C135.194 76.261 135.299 76.2852 135.392 76.3354C135.528 76.4172 135.635 76.5397 135.697 76.6855C135.715 76.8452 135.673 77.0061 135.578 77.136C135.478 77.2705 135.343 77.3756 135.189 77.4404C133.554 78.0888 131.92 78.7372 130.276 79.3642C129.996 79.4346 129.709 79.4794 129.421 79.4982Z" fill="black"/>
</g>
<defs>
<clipPath id="clip0_66_770">
<rect width="260" height="233" fill="white"/>
</clipPath>
</defs>
</svg>
