<svg width="423" height="193" viewBox="0 0 423 193" fill="none" xmlns="http://www.w3.org/2000/svg">
<g clip-path="url(#clip0_66_1191)">
<path d="M382.169 177.171C384.789 177.003 387.239 176.852 389.703 176.688C390.405 176.642 391.107 176.517 391.809 176.509C394.208 176.509 396.602 176.288 398.989 176.214C403.146 176.085 407.28 175.521 411.468 175.603C412.373 175.603 413.29 175.381 414.198 175.443C416.308 175.583 418.391 175.272 420.489 175.272C421.122 175.284 421.744 175.433 422.314 175.708C422.521 175.811 422.696 175.968 422.822 176.162C422.948 176.355 423.021 176.579 423.031 176.809C423.042 177.04 422.991 177.269 422.883 177.473C422.776 177.678 422.616 177.85 422.419 177.972C422.005 178.241 421.534 178.41 421.043 178.466C419.927 178.583 418.796 178.591 417.673 178.653C416.698 178.707 415.723 178.898 414.748 178.816C413.274 178.692 411.827 178.917 410.365 178.96C408.902 179.003 407.545 178.983 406.133 178.991C405.92 178.98 405.707 178.98 405.494 178.991C400.716 179.548 395.916 179.513 391.115 179.594C389.497 179.621 387.882 179.859 386.267 179.983C385.847 180.046 385.421 180.064 384.996 180.038C382.8 179.75 380.663 180.116 378.514 180.493C377.675 180.612 376.827 180.666 375.98 180.652C372.446 180.703 368.929 181.01 365.411 181.158C363.048 181.259 360.645 181.57 358.262 181.158C357.772 181.084 357.275 181.061 356.78 181.092C353.895 181.209 351.009 181.372 348.123 181.481C344.535 181.609 340.955 182.033 337.359 181.87C335.316 181.769 333.272 181.683 331.232 181.586C328.132 181.434 325.02 181.567 321.912 181.586C320.285 181.586 318.659 181.586 317.033 181.586C313.496 181.586 309.959 181.547 306.421 181.543C304.942 181.481 303.459 181.512 301.983 181.637C298.762 182.026 295.51 181.539 292.3 182.026C292.02 182.053 291.738 182.053 291.458 182.026C290.467 181.971 289.473 181.874 288.568 182.442C288.462 182.508 288.244 182.57 288.178 182.516C287.215 181.652 286.142 182.325 285.136 182.333C284.151 182.401 283.172 182.531 282.203 182.722C281.854 182.776 281.5 182.8 281.146 182.796C279.526 182.707 277.902 182.717 276.283 182.827C274.883 182.948 273.46 182.745 272.048 182.749C268.725 182.749 265.418 182.804 262.076 182.854C261.439 182.872 260.805 182.942 260.181 183.064C259.207 183.222 258.214 183.222 257.24 183.064C256 182.897 254.709 183.064 253.442 183.064C252.595 183.064 251.749 183.064 250.903 183.064C249.713 183.064 248.52 183.13 247.327 183.15C244.718 183.185 242.101 183.329 239.496 183.197C237.386 183.088 235.28 183.228 233.166 183.13C230.436 183.006 227.66 183.204 224.906 183.263C223.491 183.294 222.079 183.313 220.667 183.36C220.102 183.36 219.54 183.446 218.978 183.504C217.578 183.671 216.168 183.727 214.759 183.671C212.645 183.562 210.523 183.617 208.402 183.621C205.672 183.621 202.915 183.838 200.158 183.718C197.127 183.582 194.085 183.683 191.051 183.636C189.008 183.601 186.968 183.484 184.925 183.418C183.943 183.349 182.959 183.336 181.976 183.379C177.183 183.768 172.383 183.438 167.594 183.632C165.063 183.737 162.524 183.574 159.985 183.838C157.952 184.028 155.911 184.102 153.87 184.06C151.331 184.037 148.8 184.231 146.25 184.161C144.491 184.115 142.74 184.379 140.965 184.527C137.374 184.823 133.79 185.2 130.194 185.414C127.854 185.55 125.561 185.71 123.248 186.029C122.024 186.2 120.721 186.13 119.465 186.289C116.384 186.678 113.272 186.558 110.187 186.931C109.698 187.002 109.199 186.966 108.725 186.826C106.284 186.005 103.866 186.293 101.417 186.776C100.516 186.938 99.5976 186.976 98.6867 186.888C97.6377 186.799 96.6042 186.534 95.4733 186.332C94.6543 187.11 93.8119 187.97 92.9227 188.771C90.7528 190.698 88.1303 192.046 85.2985 192.692C81.1724 193.692 77.7639 192.331 74.9287 189.405C73.2674 187.694 71.8088 185.787 70.1748 183.877C67.9674 184.126 65.6392 184.266 63.35 184.679C61.5308 184.94 59.6784 184.857 57.8902 184.434C53.5923 183.551 49.2016 183.201 44.8178 183.391C42.7079 183.492 40.6059 183.745 38.4961 183.854C36.3161 183.967 34.1321 183.94 31.9521 184.056C29.4913 184.189 27.0382 184.414 24.5813 184.601C24.3707 184.62 24.1601 184.679 23.9495 184.686C21.2742 184.788 18.5976 184.885 15.9197 184.978C15.6389 184.978 15.3542 184.998 15.0734 185.033C11.0566 185.554 7.02409 185.352 2.98382 185.223C2.27836 185.173 1.58095 185.043 0.90518 184.834C0.292899 184.667 -0.1049 184.142 0.0393952 183.796C0.238289 183.333 0.667271 183.282 1.10796 183.29C1.60292 183.315 2.09887 183.315 2.59383 183.29C4.15378 183.169 5.69032 183.018 7.23857 182.874C7.44729 182.836 7.65844 182.814 7.87035 182.808C10.7797 182.998 13.6266 182.216 16.532 182.29C17.6434 182.321 18.7705 182.057 19.8859 181.901C23.115 181.454 26.3675 181.415 29.6356 181.376C32.9036 181.337 36.1405 181.228 39.3852 181.162C42.0021 181.111 44.615 181.057 47.2279 181.049C48.0745 181.075 48.9192 181.144 49.7589 181.255C51.7088 181.45 53.6939 181.586 55.6438 181.862C58.5214 182.241 61.4226 182.413 64.325 182.376C65.8849 182.376 67.4448 182.376 69.1725 182.376C68.8254 181.5 68.5875 180.703 68.217 179.979C66.0491 175.862 64.1915 171.589 62.6597 167.196C61.9148 165.002 61.0646 162.843 60.2613 160.668C60.2145 160.536 60.156 160.408 60.117 160.279C58.8729 155.794 57.6718 151.297 56.3692 146.831C55.8645 145.218 55.2695 143.635 54.587 142.089C53.417 139.288 52.1573 136.526 50.9757 133.729C50.5077 132.628 50.1294 131.488 49.7433 130.352C49.5494 129.852 49.5228 129.303 49.6676 128.787C49.8125 128.271 50.1208 127.816 50.5467 127.489C51.1824 126.933 51.8375 126.4 52.4966 125.867C52.5811 124.079 52.3393 122.29 51.7829 120.588C51.003 118.176 50.184 115.76 48.9399 113.539C48.1069 112.066 47.174 110.652 46.1476 109.306C45.1025 107.925 44.5292 106.334 43.8545 104.786C43.7256 104.456 43.643 104.111 43.6088 103.759C43.4723 102.72 43.7882 102.273 44.8802 101.919C45.1337 101.841 45.3988 101.794 45.5704 101.752C45.5193 100.81 45.5193 99.8655 45.5704 98.9234C45.6835 97.9275 46.2685 97.6747 47.2474 98.0715C47.5594 98.1998 47.8597 98.3632 48.2146 98.5305C48.2848 97.7214 48.3121 97.0172 48.4174 96.3209C48.4839 95.9061 48.6156 95.5044 48.8074 95.1305C48.8635 94.9992 48.9487 94.8823 49.0567 94.7885C49.1646 94.6948 49.2924 94.6267 49.4305 94.5892C49.5686 94.5518 49.7134 94.5461 49.854 94.5724C49.9946 94.5988 50.1275 94.6566 50.2425 94.7415C50.7351 95.1351 51.1549 95.6117 51.4827 96.1497C52.0325 97.1223 52.4537 98.1609 52.9841 99.2891C53.149 99.0997 53.2809 98.8841 53.3741 98.6511C53.5964 97.6941 53.6978 96.706 53.9864 95.7607C54.0609 95.4866 54.2015 95.2347 54.3959 95.0272C54.5903 94.8196 54.8326 94.6626 55.1017 94.5698C55.3709 94.477 55.6586 94.4512 55.9401 94.4947C56.2215 94.5382 56.4879 94.6496 56.7163 94.8193C57.1236 95.097 57.4645 95.4609 57.7147 95.8852C58.2791 96.7815 58.7695 97.7221 59.181 98.6978C60.3705 101.72 61.6145 104.716 62.5739 107.824C63.5918 111.123 64.7734 114.371 65.9044 117.635C66.0007 117.968 66.1869 118.268 66.4426 118.503C67.2927 119.148 67.6125 120.059 67.8894 121.016C68.3657 122.709 69.0591 124.335 69.9525 125.851C71.5124 128.609 72.9866 131.43 74.4412 134.254C74.9521 135.25 75.2758 136.347 75.7243 137.366C76.1455 138.331 76.6174 139.28 77.0697 140.233C77.6118 141.373 78.1461 142.521 78.7116 143.649C78.9222 144.065 79.2147 144.427 79.593 145.018C79.7334 144.629 79.8542 144.458 79.8425 144.302C79.5852 140.358 79.3824 136.409 79.0236 132.476C78.6336 128.197 78.0759 123.918 77.4324 119.67C76.9566 116.534 76.7149 113.356 76.5082 110.186C76.2835 106.698 77.3046 103.244 79.3902 100.437C80.1832 99.3477 81.2407 98.4777 82.4633 97.9081C85.7041 96.317 89.1632 95.2783 92.4937 93.9168C94.994 92.9271 97.568 92.1336 100.192 91.5437C101.428 91.2481 102.63 90.8007 103.858 90.4623C105.153 90.1083 106.459 89.8009 107.758 89.4742L108.982 89.159C109.322 86.5176 109.762 83.9695 109.372 81.2814C108.678 81.3786 108.444 81.9778 108.171 82.3823C106.611 84.6776 104.377 85.8835 101.799 86.6382C97.782 87.8053 94.7206 85.5723 93.4375 82.9581C92.866 81.9021 92.4708 80.7603 92.2676 79.5775C92.1357 78.7371 92.1809 77.8786 92.4005 77.0567C92.6201 76.2348 93.0091 75.4677 93.5428 74.8043C94.3424 73.7158 95.3447 72.7913 96.495 72.0811C96.9162 71.8361 97.3257 71.5598 97.8639 71.2175C97.6186 70.7268 97.2886 70.283 96.8889 69.9065C95.8944 68.9067 94.7596 68.0081 93.9445 66.8761C92.8595 65.486 92.0086 63.929 91.4252 62.2662C91.0079 60.9279 90.536 59.5936 90.5204 58.1504C90.4838 57.2662 90.6614 56.3863 91.0382 55.5852C91.415 54.784 91.9798 54.0853 92.6848 53.5483C92.9539 53.3343 93.2074 53.1048 93.5272 52.8286C93.3525 52.4298 93.1573 52.0402 92.9422 51.6615C91.4488 49.2511 90.64 46.4811 90.6023 43.6477C90.5227 41.74 90.8304 39.8359 91.5071 38.0497C92.9433 34.2798 95.0698 30.8091 97.7781 27.8147C99.2015 26.2275 100.691 24.7648 102.571 23.695C103.442 23.1536 104.419 22.8041 105.437 22.67C106.455 22.5358 107.489 22.62 108.472 22.9169C108.608 22.9558 108.729 23.0375 108.862 23.0764C109.038 23.116 109.216 23.1446 109.396 23.162C109.532 22.9014 109.719 22.6135 109.848 22.3062C110.901 19.7931 112.828 18.027 115.019 16.5876C116.302 15.7395 117.589 14.8565 119.122 14.4052C119.867 14.1874 120.612 14.0162 121.365 13.8411C123.556 13.3043 125.389 13.9228 127.062 15.3272C128.314 16.3775 128.868 17.8052 129.336 19.2913C129.48 19.7503 129.609 20.2132 129.784 20.7929C130.139 20.708 130.487 20.5975 130.826 20.4622C132.955 19.3963 135.201 18.7933 137.58 19.054C138.842 19.2191 140.082 19.5218 141.277 19.9565C142.887 20.5041 144.404 21.291 145.778 22.2906C148.266 24.0996 149.385 26.5698 149.498 29.5575C149.573 31.1152 149.356 32.6733 148.859 34.1518C148.469 35.2877 148.04 36.412 147.732 37.5713C147.486 38.4971 147.045 39.0923 146.051 39.2091C145.949 39.2091 145.867 39.3919 145.743 39.528C146.133 40.9168 146.464 42.3523 146.913 43.7489C147.813 46.472 147.891 49.3041 147.977 52.1206C148.044 54.1668 147.907 56.2131 147.954 58.2593C148.079 61.0092 147.793 63.7623 147.108 66.4287C146.425 68.8289 145.75 71.2914 144.128 73.3727C142.724 75.1699 141.227 76.6443 138.855 76.9361C138.627 77.0066 138.409 77.1088 138.208 77.2395C138.138 78.0487 138.742 78.6361 138.988 79.3402C139.234 80.1446 139.526 80.9343 139.862 81.7055C140.178 82.4057 140.595 83.0592 141.032 83.8451C142.051 84.0046 143.089 84.0046 144.109 83.8451C146.277 83.5883 148.43 83.1798 150.594 82.8492C151.011 82.783 151.44 82.7947 151.862 82.7558C153.422 82.6002 154.95 82.3901 156.502 82.3006C158.121 82.2034 159.751 82.2228 161.373 82.1839C162.364 82.1606 163.386 82.2695 164.333 82.0594C165.928 81.7054 167.422 82.1411 168.947 82.359C169.871 82.5062 170.705 82.9934 171.287 83.7244C172.288 84.8313 172.999 86.1676 173.358 87.6146C173.814 89.7465 174.212 91.8939 174.528 94.0529C175.154 98.231 175.746 102.413 176.302 106.599C176.559 108.575 176.692 110.567 176.891 112.823C177.117 112.298 177.316 111.762 177.488 111.216C178.069 108.816 178.607 106.408 179.2 104.012C179.39 103.262 179.642 102.53 179.952 101.822C180.479 100.612 181.395 99.931 182.776 100.009C183.045 100.009 183.31 100.009 183.579 100.009C183.735 96.8694 183.864 93.8545 184.036 90.8435C184.254 87.0389 184.913 83.2888 185.408 79.5153C185.712 77.2084 186.118 74.9171 186.489 72.618C186.772 71.2313 187.275 69.8984 187.978 68.6694C188.368 67.9264 188.91 67.4207 189.796 67.4284C190.552 67.4284 191.192 68.0275 191.496 69.0818C191.839 70.1622 191.932 71.3059 191.769 72.4274C191.512 74.0146 191.402 75.629 191.207 77.4185C191.909 76.9711 192.412 76.586 192.966 76.3098C193.123 76.2212 193.3 76.1745 193.48 76.1742C193.66 76.174 193.837 76.2201 193.994 76.3082C194.151 76.3962 194.282 76.5232 194.376 76.6768C194.469 76.8305 194.521 77.0055 194.526 77.1851C194.559 77.5368 194.572 77.89 194.565 78.2432C194.565 78.5894 194.565 78.9356 194.565 79.4958C194.877 79.3045 195.199 79.1292 195.528 78.9706C196.371 78.6283 196.929 78.8967 197.088 79.772C197.213 80.3828 197.237 81.013 197.322 81.7832C197.751 81.5848 198.102 81.3942 198.492 81.2542C199.635 80.7913 200.676 81.3203 200.875 82.5185C200.957 83.0783 200.957 83.647 200.875 84.2068C200.769 85.2557 200.587 86.2957 200.333 87.319C199.401 90.6801 199.237 94.1385 198.867 97.5735C198.711 99.0479 198.57 100.518 198.43 101.993C198.403 102.261 198.403 102.534 198.391 102.771C198.522 102.872 198.666 102.954 198.82 103.016C200.633 103.382 200.988 103.767 200.746 105.548C200.423 107.999 199.986 110.434 199.604 112.874C199.175 115.597 198.687 118.32 198.348 121.043C198.009 123.766 197.689 126.489 197.588 129.244C197.416 133.756 196.897 138.238 196.511 142.727C196 148.702 195.595 154.693 194.585 160.622C194.155 163.411 193.565 166.174 192.818 168.896C192.007 171.65 191.071 174.397 188.992 176.591C187.542 178.124 186.036 179.423 183.848 179.676C183.441 179.754 183.038 179.858 182.643 179.987C183.287 180.45 183.813 180.279 184.32 180.318C184.878 180.399 185.441 180.442 186.005 180.446C189.515 180.252 193.044 180.559 196.566 180.563C199.389 180.563 202.221 180.442 205.04 180.563C206.803 180.637 208.55 180.151 210.309 180.563C214.256 180.376 218.214 180.664 222.149 180.143C222.835 180.053 223.588 180.357 224.247 180.209C225.515 179.925 226.774 180.151 228.03 180.065C229.228 179.99 230.43 179.976 231.63 180.022C232.684 180.083 233.742 180.027 234.785 179.855C236.041 179.667 237.315 179.634 238.579 179.758C241.399 179.964 244.211 179.804 247.026 179.82C249.713 179.82 252.4 179.882 255.083 179.878C256.842 179.878 258.593 179.804 260.36 179.769C262.7 179.728 265.031 179.688 267.352 179.649C269.189 179.621 271.022 179.555 272.855 179.602C275.964 179.649 279.073 179.528 282.168 179.24C283.568 179.127 284.988 179.19 286.38 178.925C286.562 178.875 286.738 178.803 286.903 178.711C287.293 173.841 287.682 169.025 288.119 164.212C288.556 159.4 289.083 154.549 289.57 149.725C289.079 149.488 288.923 149.881 288.739 150.114C287.027 152.449 285.311 154.783 283.627 157.144C281.076 160.707 278.483 164.224 275.589 167.527C273.865 169.579 272.019 171.525 270.059 173.354C266.682 176.417 262.31 178.162 257.747 178.268C255.426 178.368 253.102 178.168 250.833 177.672C248.617 177.201 246.49 176.385 244.53 175.253C241.847 173.675 239.423 171.695 237.343 169.383C235.769 167.662 234.463 165.716 233.466 163.609C231.568 159.66 230.19 155.483 229.368 151.18C229.227 150.402 228.954 149.686 228.822 148.928C228.58 147.547 228.342 146.166 228.194 144.773C228.011 143.03 227.929 141.272 227.804 139.525C227.749 138.821 227.667 138.121 227.601 137.417C227.515 136.507 227.348 135.608 227.64 134.694C227.778 134.289 227.803 133.855 227.71 133.437C227.262 131.768 227.823 130.084 227.57 128.407C227.449 127.598 227.761 126.723 227.66 125.902C227.463 124.511 227.404 123.103 227.484 121.7C227.546 120.922 227.531 120.144 227.621 119.39C227.975 116.371 227.621 113.34 227.827 110.314C228.147 105.743 228.369 101.16 228.646 96.5854C228.673 96.1731 228.646 95.6323 228.911 95.3795C229.57 94.7104 229.43 94.0023 229.301 93.2243C229.079 91.9016 228.868 90.5751 228.748 89.2408C228.622 87.106 227.703 85.0946 226.17 83.6C225.16 82.6235 224.388 81.4098 223.44 80.3789C223.131 80.0387 222.899 79.6359 222.76 79.1982C222.622 78.7605 222.58 78.298 222.636 77.8425C222.632 77.4852 222.765 77.1399 223.009 76.8783C223.254 76.6168 223.589 76.4591 223.947 76.4381C224.3 76.4162 224.654 76.4292 225.004 76.477C225.269 76.5043 225.534 76.5626 225.862 76.6171C226.158 75.874 225.651 75.3372 225.557 74.7498C225.355 73.4505 225.827 72.7308 227.156 72.5479C227.644 72.4779 228.143 72.4896 228.771 72.4585C228.833 71.9994 228.876 71.5365 228.962 71.0774C229.208 69.7353 229.781 69.2568 231.13 69.2763C231.606 69.2763 232.082 69.3502 232.745 69.4086C232.472 68.6072 232.207 67.977 232.039 67.3196C231.689 66.1742 231.429 65.0037 231.259 63.8184C231.088 62.0872 232.148 61.1652 233.853 61.3559C234.419 61.4033 234.969 61.5716 235.465 61.8495C235.961 62.1274 236.391 62.5083 236.727 62.9664C237.569 64.0985 238.419 65.2305 239.188 66.4092C239.893 67.4674 240.472 68.6047 240.911 69.7976C242.194 73.3766 243.602 76.9128 244.893 80.4878C245.626 82.5263 246.422 84.5647 246.434 86.7977L248.204 87.6496C248.044 89.3847 248.485 90.9952 248.906 92.6252C249.417 94.6014 249.912 96.5698 250.575 98.5072C251.238 100.444 251.453 102.475 251.979 104.436C252.361 105.788 252.671 107.159 252.907 108.544C253.357 111.397 253.877 114.225 254.467 117.028C254.896 119.098 255.434 121.144 255.996 123.179C257.026 126.913 258.145 130.621 259.151 134.363C259.588 135.985 259.826 137.662 260.177 139.311C260.321 139.98 260.52 140.638 260.699 141.319C261.534 141.004 261.647 140.28 261.897 139.634C262.505 138.055 263.098 136.468 263.768 134.915C265.055 131.943 266.397 128.991 267.707 126.03C268.421 124.42 269.092 122.79 269.817 121.187C271.336 117.857 272.868 114.533 274.415 111.216C275.434 109.051 276.486 106.9 277.57 104.763C278.175 103.572 278.865 102.428 279.563 101.261C281.727 97.7097 283.853 94.1346 286.13 90.6529C286.969 89.3691 288.158 88.3188 289.2 87.1517C291.446 84.6815 294.269 83.1215 297.389 82.0594C297.933 81.9044 298.487 81.7849 299.047 81.7016C300.634 81.3826 302.217 81.0247 303.82 80.7718C304.787 80.6201 305.77 80.6473 306.772 80.5773C307.073 80.5396 307.371 80.4837 307.665 80.41C307.919 77.8814 307.236 75.485 307.252 73.0459C304.302 72.5701 301.508 71.4036 299.097 69.642C298.407 69.1557 297.705 68.6889 297.003 68.2221C295.358 67.0964 294.062 65.533 293.263 63.7094C291.675 60.3982 290.641 56.8502 290.202 53.2059C289.785 49.627 289.777 46.0363 289.718 42.4457C289.691 40.6834 289.597 38.9445 289.597 37.1667C289.638 36.4625 289.734 35.7627 289.886 35.0738C290.139 33.6227 290.409 32.1717 290.666 30.7946C290.457 30.4808 290.187 30.2128 289.871 30.0068C289.555 29.8007 289.201 29.6611 288.829 29.5964C286.855 29.0144 285.035 28.0048 283.498 26.6398C281.158 24.6364 279.598 21.3648 280.413 17.9531C281.404 13.9034 283.861 10.9079 286.735 8.13423C287.407 7.50596 288.121 6.92371 288.872 6.39143C289.207 6.20184 289.567 6.05788 289.941 5.96348C290.545 6.6287 290.233 7.24724 290.19 7.86578C290.05 10.0598 290.767 11.8571 292.803 13.1603C293.099 12.8102 293.384 12.5223 293.618 12.1995C294.195 11.3981 294.788 10.6045 295.303 9.76809C296.91 7.16945 299.378 5.71841 302.104 4.62138C304.694 3.5827 307.431 3.20922 310.181 2.94079C310.871 2.87466 311.604 2.83576 312.283 3.43096C312.341 4.25568 312.408 5.15046 312.474 6.0452C313.254 6.2047 313.722 5.72617 314.241 5.37216C315.762 4.33737 317.212 3.17034 318.835 2.33395C322.345 0.51334 326.178 -0.12076 330.144 -0.000164459C331.911 0.0468326 333.666 0.308098 335.37 0.777873C337.012 1.22524 337.975 2.40399 338.985 3.56326C339.169 3.78856 339.259 4.07573 339.237 4.36537C339.214 4.65502 339.081 4.92498 338.864 5.11934C338.58 5.42666 338.213 5.65618 337.905 5.94405C336.614 7.14612 335.327 8.35207 334.06 9.57748C333.828 9.86257 333.628 10.1717 333.463 10.4994C333.71 10.685 333.971 10.8514 334.243 10.9974C335.982 11.7754 337.726 12.5535 339.481 13.3043C342.967 14.7981 345.358 17.3851 346.965 20.7501C347.196 21.2659 347.364 21.8081 347.464 22.3645C347.725 23.73 347.074 24.3407 345.693 24.1112C345.447 24.0684 345.198 24.0334 344.812 23.9751C344.929 24.9904 345.639 25.4183 346.099 25.994C346.658 26.7172 347.26 27.407 347.9 28.0598C348.447 28.6238 348.78 29.3593 348.844 30.141C349.031 31.5959 349.441 33.0509 348.844 34.5175C348.735 34.9509 348.686 35.3973 348.7 35.844C349.043 36.0767 349.4 36.2885 349.769 36.4781C350.398 36.7381 350.934 37.181 351.308 37.7493C351.681 38.3175 351.875 38.9848 351.863 39.6642C351.917 40.7237 351.753 41.783 351.379 42.7763C350.833 44.2371 349.964 45.5563 348.836 46.6354C347.958 47.333 347.001 47.927 345.986 48.4055C345.283 48.7416 344.563 49.0403 343.829 49.3002C343.673 50.8563 345.736 72.7463 346.317 75.7068C346.442 75.7651 346.582 75.8974 346.688 75.8702C348.493 75.4539 350.322 75.4812 352.147 75.3761C354.409 75.3245 356.659 75.0324 358.859 74.5047C359.688 74.3359 360.527 74.2241 361.371 74.1702C361.991 74.0963 362.615 74.0223 363.239 73.9562C363.584 73.8982 363.934 73.8786 364.284 73.8978C367.084 74.2518 369.911 74.4853 372.672 75.0416C374.923 75.4967 377.208 75.8663 379.302 77.0683C380.995 78.0448 382.941 78.5777 384.782 79.2896C387.279 80.272 389.563 81.7249 391.509 83.5688C391.765 83.8114 391.986 84.0891 392.164 84.3935C392.796 85.4984 393.459 86.5876 394.001 87.7314C394.718 89.2563 395.405 90.7774 395.432 92.5474C395.459 94.5898 395.822 96.6282 395.822 98.6667C395.861 104.027 396.087 106.365 395.093 113.185C394.57 116.76 393.626 120.218 392.776 123.708C392.074 126.581 391.392 129.46 390.729 132.344C390.226 134.534 389.758 136.732 389.286 138.93C388.873 140.875 388.506 142.82 388.077 144.73C387.391 147.893 386.685 151.052 385.983 154.211C385.831 154.899 385.671 155.588 385.511 156.273C385.289 157.233 385.031 158.183 384.848 159.151C384.657 160.178 384.236 161.159 384.403 162.263C384.481 162.781 384.126 163.345 384.06 163.901C383.612 167.682 382.929 171.425 382.247 175.183C382.17 175.842 382.144 176.507 382.169 177.171ZM230.077 95.9396C230.3 98.7561 230.467 101.573 230.779 104.37C230.928 105.638 230.779 106.898 230.935 108.155C231.259 110.816 230.99 113.523 231.614 116.161C231.639 116.443 231.639 116.727 231.614 117.009C231.649 117.923 231.684 118.837 231.739 119.732C231.77 120.226 231.899 120.712 231.899 121.206C231.899 124.214 231.544 127.221 231.899 130.232C231.933 130.513 231.9 130.798 231.801 131.064C231.523 131.867 231.463 132.729 231.63 133.562C231.766 134.678 232 135.845 231.801 136.919C231.602 137.993 232.062 139.012 231.832 140.031C231.635 140.857 231.644 141.719 231.86 142.54C231.934 143.027 231.954 143.52 231.918 144.011C231.942 144.855 231.918 145.703 231.992 146.539C232.277 149.2 232.546 151.869 233.279 154.46C233.95 156.829 234.383 159.272 235.619 161.462C235.861 161.89 236.009 162.372 236.204 162.824C237.151 165.107 238.552 167.175 240.322 168.904C241.457 169.966 242.662 170.939 243.832 171.973C245.228 173.226 246.952 173.918 248.621 174.642C249.784 175.159 251.01 175.52 252.268 175.716C254.938 176.047 257.642 176.007 260.301 175.595C262.837 175.252 265.236 174.242 267.251 172.67C268.888 171.443 270.451 170.12 271.931 168.71C274.618 165.998 277.124 163.114 279.434 160.077C281.645 157.237 283.693 154.265 285.857 151.39C287.643 149.017 289.426 146.652 290.487 143.84C290.658 143.38 290.876 142.898 291.493 142.91C291.965 142.91 292.241 143.349 292.323 144.197C292.42 145.882 292.405 147.572 292.28 149.255C292.132 153.534 292.046 157.844 291.438 162.092C290.717 167.111 290.405 172.164 289.878 177.198C289.831 177.665 289.726 178.186 290.214 178.664C290.834 178.618 291.52 178.532 292.21 178.517C292.901 178.501 293.626 178.598 294.332 178.559C296.364 178.397 298.405 178.379 300.439 178.505C300.861 178.561 301.289 178.539 301.703 178.439C302.322 178.306 302.96 178.285 303.586 178.377C304.643 178.431 305.708 178.377 306.768 178.345C307.26 178.345 307.755 178.291 308.247 178.303C309.514 178.345 310.789 178.521 312.045 178.439C315.079 178.244 318.113 178.486 321.155 178.26C323.46 178.089 325.788 178.552 328.136 178.318C329.594 178.174 331.088 178.47 332.566 178.489C334.906 178.517 337.246 178.521 339.559 178.489C342.866 178.415 346.188 178.291 349.476 178.17C349.64 178.17 349.792 177.976 350.081 177.781C349.406 177.334 348.836 176.937 348.255 176.568C346.22 175.288 344.168 174.035 342.148 172.732C340.635 171.822 339.219 170.761 337.921 169.565C336.361 168.036 334.762 166.55 333.21 165.014C332.384 164.245 331.618 163.414 330.92 162.528C328.666 159.455 326.073 156.658 323.788 153.604C320.41 148.981 317.39 144.11 314.752 139.031C314.553 138.642 314.42 138.253 314.252 137.864C313.955 137.15 313.876 136.363 314.026 135.604C314.294 134.003 314.862 132.467 315.699 131.076C314.798 130.115 314.03 129.22 312.969 128.574C312.141 128.033 311.341 127.449 310.575 126.824C309.35 125.875 308.149 124.879 306.924 123.933C305.4 122.755 303.522 122.123 301.593 122.14C301.238 122.14 300.884 122.159 300.533 122.14C299.753 122.105 299.265 121.841 299.164 121.385C299.031 120.786 299.472 120.51 299.838 120.176C300.275 119.787 301.008 119.666 301.098 118.88C300.419 118.775 299.788 118.701 299.148 118.569C298.734 118.49 298.332 118.359 297.951 118.18C297.804 118.115 297.676 118.013 297.578 117.885C297.481 117.757 297.418 117.607 297.395 117.448C297.372 117.289 297.39 117.127 297.447 116.976C297.504 116.826 297.598 116.693 297.721 116.589C298.287 116.174 298.895 115.82 299.534 115.531C300.127 115.235 300.872 115.235 301.32 114.644C300.841 114.068 300.365 113.554 299.967 112.99C299.919 112.914 299.888 112.829 299.875 112.74C299.862 112.651 299.868 112.56 299.893 112.473C299.917 112.387 299.96 112.306 300.018 112.237C300.076 112.168 300.147 112.112 300.228 112.072C300.527 111.879 300.871 111.766 301.227 111.745C302.709 111.745 304.191 111.745 305.673 111.788C306.355 111.812 307.03 112.107 307.896 111.854C307.541 111.318 307.264 110.847 306.932 110.415C306.203 109.462 305.45 108.528 304.702 107.591C304.312 107.077 303.922 106.552 304.312 105.871C304.635 105.334 305.224 105.245 306.226 105.63C308.668 106.572 311.129 107.466 313.523 108.517C315.818 109.459 317.989 110.679 319.985 112.15C321.323 113.185 322.625 114.274 323.986 115.262C325.745 116.569 327.387 117.985 328.374 119.93C329.575 119.794 330.511 118.989 331.638 119.051C331.782 119.537 331.985 120.004 332.242 120.44C333.104 121.558 334.029 122.627 335.011 123.642C337.562 126.178 340.19 128.637 342.757 131.154C343.463 131.845 344.115 132.591 344.706 133.383C346.057 135.183 347.519 136.897 349.086 138.514C350.205 139.681 351.469 140.712 352.69 141.782C352.902 141.917 353.135 142.015 353.38 142.073C353.536 141.883 353.668 141.789 353.711 141.684C354.651 138.88 355.685 136.098 356.492 133.254C357.722 128.9 359.074 124.59 360.548 120.323C362.63 114.243 364.951 108.264 367.439 102.327C368.258 100.382 368.964 98.3749 369.744 96.4064C369.911 96.0774 370.111 95.766 370.34 95.4767C370.48 95.7515 370.505 96.0704 370.411 96.3637C369.291 99.7092 368.254 103.082 367.018 106.385C364.764 112.399 362.513 118.409 360.727 124.587C359.007 130.551 357.186 136.491 355.408 142.439C355.223 143.121 354.997 143.791 354.733 144.446C354.405 145.201 353.407 145.641 352.783 145.224C351.145 144.158 349.328 143.345 348.103 141.68C347.191 140.424 346.188 139.237 345.1 138.129C344.147 137.189 343.302 136.145 342.581 135.017C342.008 134.095 341.181 133.433 340.487 132.644C339.555 131.582 338.716 130.442 337.823 129.349C336.353 127.54 334.855 125.754 333.401 123.933C332.917 123.33 332.512 122.665 332.075 122.019C331.728 121.506 331.388 120.989 330.991 120.389C329.403 121.63 327.964 122.864 326.412 123.941C323.774 125.841 321.262 127.91 318.893 130.134C316.717 132.046 315.29 134.665 314.865 137.526C317.236 140.969 319.646 144.446 322.033 147.94C323.832 150.554 325.815 153.037 327.968 155.37C328.873 156.358 329.813 157.315 330.718 158.295C332.866 160.63 334.972 163.018 337.39 165.096C337.76 165.424 338.091 165.793 338.377 166.196C339.297 167.362 340.359 168.407 341.54 169.309C344.703 171.927 348.17 174.094 351.633 176.28C351.919 176.489 352.257 176.616 352.61 176.647C352.963 176.679 353.318 176.614 353.637 176.459C354.077 176.236 354.502 175.984 354.909 175.704C355.731 175.156 356.543 174.595 357.354 174.031C359.206 172.74 361.082 171.475 362.899 170.141C365.138 168.418 367.265 166.557 369.268 164.566C373.285 160.746 376.884 156.615 379.688 151.814C380.149 151.036 380.765 150.332 381.295 149.585C382.161 148.375 383.011 147.162 383.873 145.952C385.495 143.664 386.603 141.175 386.743 138.331C386.76 138.048 386.797 137.768 386.856 137.491C387.558 134.258 388.284 131.025 388.974 127.789C389.532 125.178 390.163 122.587 390.889 120.008C391.439 118.063 391.579 115.978 392.016 113.982C392.358 112.539 392.567 111.068 392.64 109.586C392.679 108.528 392.691 107.466 392.831 106.42C393.459 101.705 393.088 97.0017 392.698 92.2945C392.546 90.4156 391.684 88.7934 390.869 87.1478C389.699 84.8137 387.749 83.3705 385.476 82.2851C381.507 80.4173 377.228 79.2925 372.852 78.9668C370.122 78.7333 367.369 78.5777 364.627 78.3832C364.415 78.3645 364.206 78.3241 364.003 78.2627C362.901 77.9768 361.739 78.02 360.661 78.3871C359.719 78.6725 358.723 78.7285 357.755 78.5505C355.845 78.2043 353.875 78.1615 351.999 77.9903C351.878 78.1257 351.774 78.2761 351.691 78.4377C350.79 81.7088 349.253 84.7713 347.167 87.4513C343.626 91.8705 339.368 95.185 333.666 96.2859C333.389 96.3399 333.117 96.4194 332.855 96.5232C329.641 97.7719 326.322 97.5385 323.027 97.0717C320.008 96.6463 317.085 95.7068 314.385 94.2941C313.574 93.874 312.638 93.5939 311.963 93.0142C310.306 91.5865 308.598 90.1627 307.244 88.4666C306.172 87.1284 305.041 85.6851 304.776 83.849C304.748 83.6622 304.573 83.4949 304.429 83.2537C303.937 83.3199 303.45 83.3588 302.978 83.4599C300.977 83.8917 298.973 84.3119 296.984 84.7981C296.295 84.9489 295.637 85.2118 295.034 85.5762C291.134 88.1281 287.979 91.3765 285.889 95.609C284.719 98.0053 283.4 100.343 282.039 102.646C280.678 104.949 279.571 107.517 278.14 109.855C277.192 111.411 276.642 113.181 275.764 114.776C274.162 117.686 272.941 120.759 271.603 123.786C270.406 126.481 269.135 129.146 267.902 131.827C267.606 132.469 267.333 133.122 267.033 133.772C265.283 137.55 263.532 141.324 261.78 145.092C261.545 145.603 261.443 146.165 261.483 146.726C261.469 147.429 261.356 148.127 261.148 148.8C261.101 148.913 261.028 149.015 260.936 149.096C260.844 149.178 260.734 149.238 260.615 149.271C260.497 149.304 260.372 149.309 260.25 149.287C260.129 149.265 260.015 149.215 259.915 149.142C259.52 148.846 259.197 148.464 258.972 148.025C258.502 146.928 258.166 145.779 257.969 144.602C257.433 140.341 256.633 136.118 255.575 131.955C254.982 129.508 254.21 127.081 253.516 124.645C252.666 121.665 251.776 118.693 250.969 115.698C250.474 113.866 250.029 112.018 249.674 110.151C249.062 106.91 248.052 103.767 247.44 100.526C246.733 97.0818 246.342 93.5805 246.27 90.0655C246.236 89.8798 246.169 89.7019 246.071 89.5403C242.752 89.7932 233.034 93.6756 230.077 95.9396ZM180.939 179.968C180.673 179.897 180.402 179.85 180.128 179.828C178.026 179.828 176.306 178.773 174.727 177.634C172.991 176.296 171.479 174.693 170.246 172.884C168.966 171.125 167.586 169.433 166.595 167.476C166.57 167.386 166.522 167.304 166.458 167.236C166.393 167.168 166.313 167.116 166.224 167.086C166.135 167.056 166.04 167.048 165.947 167.062C165.854 167.077 165.766 167.113 165.691 167.169C165.476 170.775 165.753 174.451 165.141 178.061C164.61 177.999 164.505 177.673 164.462 177.307C164.248 175.482 163.994 173.662 163.846 171.833C163.682 169.795 163.635 167.749 163.503 165.706C163.39 163.944 163.206 162.205 163.113 160.427C163.019 158.649 162.723 156.957 162.984 155.207C162.504 151.748 163.089 148.313 163.253 144.87C163.374 142.534 164.068 140.264 165.273 138.257C166.275 136.557 167.196 134.803 168.073 133.033C169.446 130.255 169.766 127.38 168.643 124.42C168.523 124.087 168.423 123.748 168.342 123.404C167.859 121.414 167.014 119.528 165.85 117.841C165.07 116.74 164.31 115.64 163.616 114.492C162.625 112.854 161.791 111.139 161.642 109.193C161.545 107.937 161.592 106.68 162.555 105.692C163.3 106.046 163.14 106.677 163.136 107.206C163.107 109.052 163.577 110.871 164.497 112.473C165.355 113.936 166.29 115.352 167.297 116.717C168.549 118.433 169.5 120.348 170.109 122.381C170.62 124.062 171.185 125.738 171.26 127.524C171.345 129.633 170.698 131.562 169.836 133.433C168.888 135.483 167.906 137.518 166.911 139.545C166.238 140.866 165.84 142.31 165.741 143.789C165.549 146.599 165.5 149.416 165.593 152.231C165.628 153.145 165.667 154.067 165.624 154.981C165.487 157.102 165.864 159.225 166.724 161.17C168.273 164.573 170.18 167.802 172.414 170.802C172.964 171.534 173.752 172.094 174.255 172.845C174.976 173.926 175.955 174.724 176.875 175.595C177.64 176.344 178.621 176.834 179.679 176.996C180.797 177.167 181.923 177.275 183.053 177.318C184.122 177.363 185.175 177.052 186.048 176.435C187.143 175.645 188.057 174.63 188.727 173.459C190.097 171.067 191.059 168.464 191.574 165.757C191.792 164.656 191.898 163.536 192.128 162.435C193.224 157.249 193.516 151.978 193.82 146.707C193.875 145.718 193.852 144.726 193.93 143.742C194.136 141.151 194.413 138.564 194.592 135.962C194.799 133.083 194.885 130.193 195.099 127.314C195.419 123.105 195.677 118.888 196.32 114.706C196.761 111.843 197.264 109.003 198.27 106.264C198.345 105.91 198.377 105.548 198.368 105.187C197.635 105.182 196.904 105.127 196.18 105.023C192.596 104.245 189.02 103.42 185.443 102.596C184.62 102.405 183.821 102.109 182.994 101.915C182.167 101.72 181.793 101.915 181.481 102.693C181.111 103.607 180.803 104.549 180.526 105.494C179.243 109.921 178.806 114.508 178.186 119.04C177.706 122.451 177.761 125.937 177.628 129.391C177.421 134.896 177.967 140.393 177.765 145.901C177.694 147.874 177.706 149.854 177.632 151.826C177.632 152.262 177.753 152.865 177.012 153.028C176.528 152.639 176.47 152.098 176.407 151.538C176.099 148.877 175.666 146.244 175.627 143.544C175.596 141.373 175.159 139.21 175.093 137.02C174.988 133.429 174.769 129.839 174.656 126.244C174.574 123.719 174.691 121.187 174.524 118.662C174.313 115.426 173.9 112.201 173.592 108.972C173.455 107.567 173.408 106.155 173.233 104.755C172.882 101.962 172.476 99.1763 172.082 96.387C171.72 93.8039 171.388 91.2131 170.955 88.6378C170.784 87.7394 170.5 86.8663 170.109 86.0391C169.915 85.5462 169.577 85.1228 169.139 84.8238C168.701 84.5248 168.183 84.3641 167.652 84.3624C166.102 84.2962 164.549 84.3118 163 84.4091C158.901 84.5414 154.81 84.6425 150.707 84.8448C147.743 84.9926 144.795 85.4867 141.812 85.2961C141.644 85.2961 141.464 85.4361 141.269 85.5217C141.309 85.7462 141.361 85.9683 141.425 86.187C141.578 86.576 141.73 86.965 141.917 87.354C143.479 90.5998 144.628 94.0277 145.337 97.558C146.195 101.553 146.807 105.603 147.529 109.618C147.704 110.59 147.919 111.563 148.055 112.535C148.164 113.267 147.833 113.757 146.971 113.955C145.224 113.146 143.851 111.59 141.936 110.54C141.862 111.216 141.78 111.707 141.761 112.162C141.71 113.57 141.761 114.982 141.632 116.383C141.383 119.405 140.993 122.42 140.774 125.443C140.439 130.169 139.448 134.779 138.629 139.447C138.091 142.493 137.069 145.458 137.104 148.601C137.075 148.952 137.01 149.299 136.909 149.636C136.422 151.97 135.958 154.335 135.439 156.677C135.293 157.437 135.054 158.176 134.729 158.879C134.634 159.048 134.499 159.19 134.335 159.293C134.171 159.397 133.985 159.458 133.791 159.471C133.598 159.485 133.404 159.45 133.228 159.371C133.051 159.291 132.897 159.169 132.779 159.015C132.651 158.846 132.532 158.669 132.425 158.486C132.257 158.241 129.566 152.476 129.465 152.203C129.227 151.542 128.985 150.881 128.716 150.235C128.392 149.457 127.971 148.706 127.71 147.901C127.409 146.81 126.906 145.785 126.228 144.878C126.041 144.585 125.909 144.261 125.838 143.921C125.67 143.384 125.545 142.836 125.374 142.303C124.917 140.895 124.418 139.502 123.985 138.086C123.127 135.258 122.297 132.418 121.466 129.582C120.99 127.956 120.529 126.329 120.081 124.7C119.543 122.727 119.036 120.743 118.49 118.775C118.351 118.4 118.182 118.037 117.983 117.69C117.333 118.173 116.658 118.621 115.959 119.032C115.023 119.522 114.349 119.254 113.908 118.254C113.715 117.799 113.569 117.326 113.471 116.842C112.921 114.294 112.368 111.749 111.861 109.193C111.42 106.98 111.03 104.759 110.636 102.537C110.449 101.499 110.328 100.444 110.133 99.4252C109.829 97.8303 109.482 96.2508 109.493 94.6092C109.493 93.3565 109.357 92.1078 109.271 90.754C108.429 90.701 107.586 90.8188 106.791 91.1003C104.634 91.7888 102.477 92.4696 100.313 93.1232C99.2366 93.4499 98.1096 93.6366 97.0566 94.0218C94.0017 95.1395 90.965 96.2962 87.9465 97.4918C86.2422 98.1648 84.5497 98.8884 82.9079 99.7015C81.3176 100.517 80.0826 101.886 79.437 103.549C78.6142 105.433 78.1906 107.466 78.1929 109.52C78.2557 113.758 78.6023 117.987 79.2303 122.179C79.8894 127.077 80.5913 131.971 81.1451 136.884C81.6599 141.439 82.007 146.014 82.4243 150.581C82.4535 150.862 82.4652 151.144 82.4594 151.425C82.4524 151.584 82.4051 151.738 82.3218 151.873C82.2386 152.008 82.1223 152.12 81.9837 152.198C81.8452 152.276 81.689 152.317 81.53 152.318C81.371 152.319 81.2144 152.28 81.0749 152.203C80.7562 152.053 80.4761 151.832 80.2559 151.558C79.7178 150.819 79.2147 150.048 78.7467 149.259C78.2085 148.348 77.8029 147.348 77.1867 146.489C75.6049 144.243 74.3056 141.811 73.3181 139.249C72.3831 136.737 71.3089 134.278 70.1007 131.885C68.4053 128.787 67.0807 125.5 66.154 122.093C66.0004 121.696 65.8014 121.317 65.5612 120.965C64.4614 121.354 63.4475 121.658 62.4725 122.058C59.3721 123.323 56.7007 125.295 54.0449 127.275C53.0465 128.022 52.169 128.932 51.2214 129.784C51.3795 130.366 51.5669 130.94 51.7829 131.504C52.637 133.449 53.4482 135.394 54.4193 137.277C55.7842 139.922 56.6968 142.746 57.8902 145.446C59.4891 149.076 60.0468 153.04 61.6145 156.677C61.7548 157.078 61.863 157.489 61.9382 157.906C63.0692 162.493 64.867 166.854 66.388 171.324C66.7904 172.377 67.25 173.409 67.7646 174.412C69.1179 177.28 70.2762 180.248 72.191 182.831C72.971 183.905 73.9069 184.893 74.6167 186.021C76.1767 188.495 78.4893 189.876 81.1763 190.74C82.6123 191.189 84.1584 191.141 85.5637 190.603C88.1259 189.627 90.5633 188.425 92.6185 186.441C95.5044 183.656 97.9107 180.606 99.5291 176.926C100.057 175.701 100.242 174.356 100.063 173.035C99.7278 170.304 99.5299 167.558 99.4706 164.808C99.4043 155.351 99.4706 145.894 99.4433 136.436C99.4433 133.62 99.2366 130.8 99.2171 127.983C99.2171 126.081 98.9636 124.167 99.4199 122.284C99.4862 122.016 99.5798 121.728 100.13 121.895C100.644 124.389 100.282 126.987 100.45 129.555C100.617 132.122 100.746 134.756 100.89 137.358H101.027C101.093 136.005 101.159 134.635 101.229 133.165C101.935 135.211 101.935 137.199 102.099 139.164C102.532 144.442 102.992 149.721 102.856 155.028C102.828 156.016 102.809 157.004 102.782 157.988C102.661 162.789 102.532 167.589 102.423 172.382C102.37 173.367 102.39 174.356 102.481 175.338C102.786 177.789 103.168 180.228 103.538 182.667C103.631 183.065 103.752 183.455 103.901 183.835C107.742 183.636 111.478 183.446 115.211 183.243C116.127 183.189 117.04 182.811 117.94 182.854C119.071 182.895 120.2 182.731 121.271 182.368C121.467 182.287 121.675 182.238 121.887 182.224C123.925 182.288 125.965 182.187 127.987 181.924C131.418 181.535 134.905 181.851 138.325 181.17C138.818 181.13 139.313 181.14 139.803 181.201C141.496 181.201 143.192 181.244 144.873 181.201C147.486 181.158 150.095 181.053 152.708 181.003C154.896 180.96 157.087 181.002 159.275 180.917C162.231 180.796 165.187 180.551 168.144 180.431C169.341 180.38 170.561 180.664 171.743 180.536C173.919 180.298 176.091 180.567 178.264 180.45C178.895 180.415 179.531 180.528 180.167 180.516C180.494 180.536 180.861 180.462 180.955 179.968H180.939ZM331.521 28.3126C330.503 26.7838 329.126 25.9785 327.598 25.3405C326.244 24.7564 324.844 24.2841 323.413 23.9284C320.098 23.1705 316.655 23.1612 313.336 23.9011C311.326 24.3398 309.397 25.0851 307.615 26.1108C307.186 26.352 306.757 26.6048 306.308 26.8071C305.797 27.0405 305.462 26.881 305.138 26.2897C305.021 26.0719 304.939 25.8346 304.799 25.5117C304.454 25.7047 304.123 25.9218 303.808 26.1613C302.549 27.3284 301.079 28.1648 299.659 29.079C297.595 30.4709 295.126 31.14 292.639 30.9813C292.271 30.9967 291.906 31.0475 291.547 31.133C291.524 32.0706 291.469 32.9108 291.493 33.7511C291.493 34.1985 291.731 34.5525 292.273 34.4552C292.324 34.4057 292.37 34.3509 292.409 34.2919C292.507 34.1051 292.612 33.9028 292.69 33.7239C293.376 32.0122 293.54 31.9616 295.209 32.9458C296.118 31.7048 296.118 31.7049 297.549 32.2728C297.631 32.1678 297.721 32.0667 297.799 31.9616C298.497 30.9619 299.066 30.9035 299.749 31.7438C300.431 32.584 300.556 33.6889 300.743 34.712C300.754 34.8157 300.74 34.9206 300.701 35.0176C300.662 35.1145 300.6 35.2006 300.521 35.2683C299.842 35.5868 299.2 35.9781 298.606 36.4353C298.419 36.5715 297.943 36.3964 297.631 36.2797C297.319 36.163 297.3 35.6106 296.777 35.8401C296.818 36.1104 296.829 36.3843 296.812 36.6571C296.637 37.7346 295.989 38.0381 295.003 37.5207C294.769 37.3962 294.554 37.2367 294.308 37.0772C294.133 37.3067 294.004 37.4662 293.879 37.6374C293.033 38.7539 293.037 38.75 291.762 37.8397C291.695 37.793 291.516 37.8981 291.372 37.9408C291.263 39.4425 291.068 40.9557 291.543 42.5818C292.83 40.7301 293.263 40.2477 294.601 39.5008C295.421 38.9979 296.355 38.7102 297.317 38.6646C298.278 38.619 299.236 38.817 300.1 39.2402C301.925 40.096 302.33 41.3837 301.422 43.4727C301.278 43.7981 301.059 44.0848 300.782 44.3091C300.085 44.9006 299.34 45.4341 298.555 45.9041C296.726 46.9116 294.921 46.9038 293.213 45.5578C292.7 45.2012 292.169 44.8726 291.621 44.5736C291.621 45.0949 291.602 45.3516 291.621 45.6123C291.766 47.4407 291.89 49.2729 292.085 51.0935C292.181 52.2152 292.366 53.3274 292.639 54.4197C293.528 57.6874 294.589 60.8774 296.29 63.8534C297.41 65.8044 298.973 67.467 300.852 68.7083C302.687 69.9228 304.771 70.7123 306.952 71.0191C307.921 71.1437 308.836 71.5342 309.596 72.1472C309.705 73.1081 309.838 74.0145 309.908 74.921C310.056 76.8894 310.157 78.8578 310.317 80.8263C310.411 81.9505 310.641 83.0631 310.707 84.1874C310.778 85.3545 310.707 86.5604 310.707 87.9337C311.616 88.5833 312.657 89.3147 313.663 90.0538C314.085 90.4255 314.536 90.7625 315.013 91.0613C316.013 91.5773 317.045 92.0307 318.102 92.419C319.101 92.7625 320.122 93.0368 321.159 93.2399C322.68 93.5433 324.209 93.8027 325.745 94.0179C326.508 94.1722 327.291 94.1971 328.062 94.0918C331.088 93.4538 334.169 92.987 337.032 91.7188C338.08 91.2863 339.037 90.6593 339.851 89.871C340.41 89.3415 341.028 88.8769 341.692 88.486C342.55 87.9336 343.217 87.0583 343.891 86.257C343.979 86.1095 344.034 85.9454 344.055 85.7752C344.075 85.6051 344.059 85.4326 344.008 85.2688C343.596 84.0022 343.429 82.6687 343.517 81.3398C343.519 80.5641 343.402 79.7927 343.17 79.0523C342.758 77.4085 342.53 75.7241 342.491 74.0301C342.536 73.6794 342.526 73.3239 342.464 72.9759C341.797 71.2019 342.152 69.3424 341.984 67.5296C341.836 65.9307 342.125 64.2813 341.926 62.6902C341.579 59.8659 341.809 57.0495 341.789 54.233C341.789 52.3345 342.051 50.4322 342.222 48.5377C342.234 48.1121 342.373 47.6997 342.621 47.3532C342.869 47.0067 343.215 46.7419 343.615 46.5926C345.158 45.8642 346.481 44.7407 347.448 43.3365C347.983 42.6744 348.279 41.8525 348.29 41.0024C348.29 40.0571 347.99 39.3646 347.039 39.0301C345.908 38.6411 344.812 38.1275 343.665 37.8085C343.29 37.6877 342.89 37.6687 342.506 37.7535C342.121 37.8383 341.766 38.0238 341.477 38.291C341.165 38.5788 340.885 38.9017 340.557 39.1701C339.329 40.1777 339.017 41.442 339.34 42.9669C339.574 44.064 339.707 45.1883 339.839 46.3086C339.945 47.1917 339.644 47.8102 338.942 48.0242C337.666 48.4495 336.363 48.7913 335.043 49.0473C333.256 49.3546 332.164 48.5338 332.012 46.6821C331.884 45.0871 331.193 43.5194 331.72 41.8777C331.794 41.6404 331.607 41.3292 331.599 41.053C331.548 39.4308 331.275 37.7736 331.521 36.1981C331.962 33.4905 331.447 30.8451 331.537 28.2932L331.521 28.3126ZM128.544 45.4295C128.435 45.3997 128.333 45.3465 128.246 45.2736C128.16 45.2007 128.09 45.1097 128.042 45.0072C127.994 44.9046 127.969 44.7928 127.969 44.6796C127.969 44.5664 127.993 44.4546 128.041 44.3519C128.478 42.9219 129.351 41.6629 130.537 40.7496C131.148 40.3021 131.7 39.7793 132.179 39.1935C131.06 38.5166 130.061 37.8514 129.012 37.2873C127.842 36.6571 127.191 35.5445 126.282 34.6536C125.374 33.7628 125.604 32.3545 124.527 31.452C123.119 33.7005 122.453 36.2875 120.826 38.3493C119.2 40.4111 117.773 42.5935 116.041 44.5308C114.246 46.526 112.312 48.3928 110.254 50.1171C108.28 51.7782 106.097 53.1826 103.909 54.7853C104.381 55.435 104.821 56.0613 105.285 56.6682C106.314 57.9272 107.182 59.3083 107.871 60.7801C108.858 63.0909 109.041 65.2733 107.071 67.2223C106.698 67.6464 106.377 68.114 106.116 68.615C105.59 69.4941 105.699 70.3422 106.299 71.2486C107.824 71.2058 109.216 70.8868 110.254 69.8131C110.434 69.8291 110.613 69.8603 110.788 69.9065C111.794 70.2955 111.958 70.5989 111.677 71.4626C111.549 71.8516 111.287 72.2406 111.287 72.6296C111.318 74.388 111.412 76.1308 111.506 77.9047C111.72 81.9933 111.755 86.0741 110.624 90.0655C110.612 90.2964 110.639 90.5277 110.702 90.7501C113.311 90.9991 115.53 92.3062 117.874 93.2399C118.81 93.5645 119.723 93.9545 120.604 94.4069C123.646 96.1886 126.976 97.3206 130.085 98.8456C133.306 95.6206 136.044 91.5204 138.664 86.008C137.943 83.7906 137.062 81.6471 136.652 79.3402C136.477 78.0684 135.935 76.8749 135.092 75.9052C134.86 75.6386 134.671 75.3382 134.531 75.0143C134.437 74.8218 134.408 74.6043 134.448 74.3941C134.488 74.1839 134.595 73.9922 134.753 73.8473C134.885 73.6792 135.073 73.563 135.282 73.5189C135.492 73.4748 135.71 73.5056 135.899 73.6061C136.218 73.7594 136.526 73.9323 136.824 74.1235C137.057 74.29 137.335 74.3846 137.622 74.3956C137.908 74.4067 138.192 74.3337 138.438 74.1857C139.386 73.6061 140.357 73.077 141.004 72.0617C142.494 69.7276 143.344 67.09 144.233 64.503C144.69 63.1881 144.814 61.7605 145.146 60.3989C146.039 56.7304 146.047 53.0075 146.168 49.2535C146.184 48.8288 146.144 48.4038 146.051 47.9892C145.563 45.8613 145.072 43.71 144.538 41.6093C144.348 41.0112 144.119 40.4264 143.851 39.8587H142.919C141.086 39.8587 139.261 40.1038 137.416 39.8354C136.138 39.692 134.851 40.0078 133.786 40.7262C131.934 41.7703 130.328 43.1975 129.075 44.912C128.922 45.099 128.75 45.2687 128.56 45.4178L128.544 45.4295ZM133.197 153.674C133.414 153.223 133.599 152.758 133.751 152.281C133.961 151.246 134.113 150.2 134.312 149.169C135.269 144.12 136.23 139.07 137.194 134.021C137.444 132.702 137.752 131.395 137.974 130.072C138.32 127.842 138.632 125.609 138.91 123.373C139.234 120.79 139.869 118.246 139.827 115.62C139.827 115.41 139.858 115.196 139.866 114.986C139.92 113.43 139.986 111.901 140.025 110.357C140.028 110.074 139.957 109.795 139.821 109.547C139.684 109.299 139.486 109.09 139.245 108.941C137.826 107.91 136.219 107.174 134.827 106.085C133.901 105.448 132.936 104.869 131.937 104.354L129.944 103.156C128.15 105.397 126.473 107.56 124.722 109.66C122.971 111.761 121.146 113.784 119.305 115.885C120.561 118.997 121.407 122.206 122.581 125.307C123.755 128.407 124.828 131.531 125.998 134.616C127.187 137.771 127.948 141.101 129.273 144.19C130.564 147.181 131.594 150.305 133.212 153.662L133.197 153.674ZM245.143 86.9572C244.85 86.2259 244.511 85.5373 244.292 84.8098C244.051 84.0007 243.902 83.1604 243.731 82.3357C243.693 82.202 243.643 82.0719 243.583 81.9466C242.202 78.6322 240.819 75.319 239.433 72.0072C238.263 69.1946 236.493 66.7088 234.929 64.1179C234.702 63.7025 234.355 63.3655 233.932 63.1516C233.509 62.9376 233.031 62.8568 232.562 62.9197C232.462 63.1826 232.39 63.4551 232.347 63.7328C232.321 64.1548 232.338 64.5785 232.398 64.9971C232.598 66.2581 233.067 67.4615 233.775 68.5255C234.2 69.1791 234.66 69.8054 235.081 70.4706C235.448 71.0425 235.592 71.6376 235.132 72.2406C234.788 72.6841 234.133 72.7075 233.385 72.3145C232.995 72.12 232.671 71.8555 232.285 71.6921C231.855 71.5408 231.416 71.4186 230.971 71.3264C230.943 71.8079 231.014 72.29 231.179 72.7434C231.344 73.1967 231.599 73.612 231.93 73.964C232.274 74.3172 232.59 74.697 232.874 75.0999C233.201 75.6057 233.073 76.3915 232.683 76.656C232.435 76.7935 232.149 76.8477 231.868 76.8106C231.587 76.7734 231.326 76.6469 231.123 76.4498C230.787 76.088 230.491 75.6718 230.179 75.2828C229.46 74.3966 228.458 73.784 227.34 73.5477C227.008 73.4738 226.603 73.715 226.17 73.8317C226.557 75.1676 227.238 76.4008 228.163 77.4418C228.489 77.8052 228.784 78.1957 229.044 78.6088C229.147 78.7937 229.189 79.0067 229.162 79.2167C229.135 79.4267 229.042 79.6226 228.896 79.7759C228.56 80.1649 228.116 80.0871 227.726 79.8615C227.336 79.6359 226.946 79.2507 226.521 79.0056C226.252 78.8539 225.881 78.6517 225.624 79.1846C226.341 80.1766 227.071 81.1997 227.819 82.2112C228.943 83.7637 229.66 85.5716 229.906 87.4707C230.136 89.0812 230.296 90.6996 230.487 92.3101C230.538 92.6991 230.674 93.0882 230.811 93.6756C233.186 92.3101 235.35 90.8318 237.795 89.8787C240.241 88.9257 242.647 87.957 245.158 86.9455L245.143 86.9572ZM384.758 147.944C384.633 147.998 384.466 148.014 384.407 148.103C382.73 150.628 381.081 153.16 379.4 155.689C378.538 156.973 377.641 158.233 376.724 159.482C374.502 162.516 371.756 165.072 369.108 167.714C367.836 168.933 366.489 170.072 365.076 171.125C363.633 172.246 362.119 173.284 360.634 174.35C359.604 175.089 358.574 175.829 357.533 176.552C356.876 176.916 356.312 177.426 355.884 178.042C359.156 178.291 362.441 178.335 365.719 178.174C369.311 177.999 372.906 177.879 376.502 177.7C377.462 177.649 378.483 177.754 379.415 177.066C379.723 174.992 380.02 172.907 380.34 170.841C380.991 166.601 381.798 162.384 382.29 158.113C382.33 157.48 382.419 156.852 382.555 156.234C383.233 153.798 383.967 151.379 384.661 148.947C384.762 148.605 385.062 148.294 384.782 147.932L384.758 147.944ZM196.515 103.389C196.639 103.133 196.726 102.861 196.773 102.58C196.751 100.891 196.826 99.2029 196.999 97.5229C197.191 93.9371 197.784 90.3839 198.769 86.93C199.094 85.7781 199.354 84.6093 199.549 83.4288C199.582 82.909 199.557 82.3871 199.475 81.8727C199.159 81.9417 198.855 82.0543 198.57 82.2073C198.247 82.4757 198.009 82.8414 197.697 83.1254C197.252 83.5144 197.108 84.483 196.34 84.2652C195.423 84.0045 195.915 83.0592 195.766 82.4212C195.677 82.0322 195.603 81.6432 195.482 81.0441C195.212 81.2489 194.96 81.4767 194.729 81.7249C194.394 82.18 194.113 82.6702 193.789 83.1331C193.69 83.3219 193.524 83.4667 193.323 83.5388C193.122 83.6108 192.902 83.6049 192.705 83.5221C192.253 83.3237 192.182 82.8958 192.225 82.4485C192.256 82.1684 192.315 81.8922 192.35 81.6121C192.467 80.694 192.576 79.7759 192.701 78.7372C191.866 79.2741 191.531 79.9821 191.141 80.6512C191.016 80.9804 190.841 81.2887 190.622 81.5654C190.363 81.7763 190.032 81.8806 189.698 81.8572C189.523 81.8572 189.308 81.4681 189.242 81.2386C189.202 80.8902 189.212 80.538 189.269 80.1922C189.506 77.4535 189.749 74.7148 189.998 71.9761C190.12 71.116 190.027 70.2392 189.725 69.4241C189.468 69.6653 189.281 69.7665 189.199 69.926C188.505 71.3961 188.073 72.9759 187.924 74.5942C187.565 77.3173 187.284 80.0405 186.964 82.7636C186.867 83.6 186.699 84.4324 186.652 85.2727C186.43 88.9995 186.262 92.7264 186.036 96.4493C185.978 97.4296 185.79 98.3943 185.685 99.3747C185.638 99.7637 185.642 100.195 185.623 100.647C189.164 102.125 192.853 102.382 196.539 103.378L196.515 103.389ZM303.321 120.296C303.442 120.382 303.543 120.51 303.668 120.537C305.961 120.985 307.845 122.163 309.596 123.649C310.766 124.657 312.096 125.49 313.281 126.485C314.19 127.263 314.989 128.15 315.84 128.991C316.078 129.228 316.323 129.461 316.62 129.769C318.363 128.182 319.977 126.625 321.689 125.182C323.401 123.739 325.27 122.486 326.95 120.845C321.775 114.889 315.088 110.433 307.591 107.945C307.615 109.05 308.313 109.61 308.828 110.252C309.576 111.189 310.388 112.08 311.168 113.006C311.464 113.36 311.558 113.811 311.168 114.126C311.037 114.227 310.886 114.298 310.725 114.335C310.564 114.371 310.397 114.372 310.236 114.336C308.126 113.379 305.848 113.294 303.606 113.002C303.388 112.939 303.157 112.949 302.945 113.03C302.734 113.11 302.555 113.258 302.436 113.449C303.062 114.003 303.868 114.313 304.705 114.321C305.903 114.414 307.096 114.523 308.278 114.71C308.516 114.749 308.808 115.173 308.859 115.457C308.929 115.846 308.582 116.087 308.196 116.11C307.139 116.165 306.078 116.208 305.017 116.219C303.365 116.238 301.739 116.629 300.26 117.363C300.546 117.454 300.839 117.521 301.137 117.561C301.917 117.589 302.697 117.534 303.477 117.592C304.388 117.667 305.293 117.797 306.187 117.981C306.309 118.038 306.416 118.124 306.497 118.231C306.577 118.338 306.631 118.463 306.651 118.596C306.633 118.725 306.585 118.848 306.51 118.954C306.436 119.061 306.337 119.149 306.223 119.211C305.833 119.378 305.424 119.498 305.006 119.569C304.421 119.693 303.766 119.709 303.344 120.284L303.321 120.296ZM54.0215 123.992C55.6555 122.938 57.2701 121.977 58.7988 120.88C60.4134 119.732 62.2736 119.117 64.1651 118.39C64.0208 117.869 63.9233 117.464 63.7751 117.071C62.8859 114.321 61.907 111.598 61.1114 108.824C60.0234 105.015 58.5765 101.343 57.2116 97.6397C56.8918 96.9371 56.4997 96.2696 56.0416 95.6479C55.9207 95.4573 55.3981 95.5662 55.3123 95.7762C55.2195 95.9655 55.1551 96.1674 55.1212 96.3753C54.9847 98.0637 54.8677 99.752 54.7313 101.433C54.7233 101.922 54.6816 102.411 54.6065 102.895C54.562 103.011 54.4889 103.114 54.394 103.194C54.2991 103.274 54.1855 103.328 54.0637 103.353C53.9419 103.377 53.8159 103.371 53.6974 103.333C53.5789 103.296 53.4717 103.23 53.3858 103.14C53.1995 102.93 53.0457 102.692 52.9295 102.436C52.5161 101.464 52.1495 100.491 51.7595 99.4992C51.3423 98.4527 50.9406 97.3984 50.5116 96.3598C50.3751 96.033 50.1606 95.7412 49.6848 95.9202C49.2948 97.2039 49.638 98.4099 50.1879 99.5808C50.7378 100.752 51.3033 101.861 51.8375 103.012C51.9858 103.326 52.0782 103.663 52.1105 104.008C52.1313 104.186 52.0832 104.366 51.9761 104.511C51.8689 104.655 51.7106 104.754 51.5334 104.786C51.2583 104.819 50.9807 104.749 50.7534 104.591C50.5613 104.391 50.402 104.161 50.2815 103.911C49.3689 102.565 48.4603 101.219 47.5282 99.8882C47.4424 99.7637 47.2084 99.7481 46.9042 99.6236C46.8496 100.791 47.497 101.604 47.9377 102.44C48.4992 103.498 49.1778 104.498 49.7745 105.552C49.9539 105.853 50.0669 106.189 50.106 106.537C50.1035 106.812 49.9945 107.075 49.8018 107.272C49.7381 107.334 49.6625 107.383 49.5794 107.416C49.4963 107.448 49.4075 107.464 49.3183 107.461C49.229 107.459 49.1413 107.438 49.0602 107.401C48.9791 107.364 48.9063 107.31 48.8463 107.245C48.4128 106.788 48.0212 106.293 47.6764 105.766C47.1883 104.962 46.5211 104.28 45.7264 103.774C46.1164 105.05 46.2763 106.058 46.9393 106.918C47.7193 107.921 48.4447 108.964 49.1856 109.995C50.1933 111.276 51.0018 112.702 51.5841 114.224C52.5707 117.161 53.6861 120.059 53.8538 123.202C53.897 123.466 53.9609 123.726 54.0449 123.98L54.0215 123.992ZM127.729 101.79C125.151 99.7481 122.203 98.8689 119.578 97.379C116.954 95.8891 114.15 94.8348 111.389 93.6522C111.287 93.9167 111.174 94.0412 111.198 94.1696C112.566 101.293 113.927 108.415 114.922 115.605C115.005 116.008 115.11 116.407 115.238 116.799C115.707 116.308 116.145 115.788 116.548 115.243C116.902 114.642 117.222 114.023 117.508 113.387C118.117 113.29 118.671 112.976 119.068 112.504C120.989 110.079 122.939 107.674 124.917 105.288C125.873 104.156 126.945 103.136 127.741 101.775L127.729 101.79ZM145.669 110.08C145.729 109.926 145.765 109.763 145.774 109.598C145.254 106.323 144.734 103.047 144.214 99.7715C144.184 99.6389 144.143 99.5089 144.093 99.3825C143.216 96.6243 142.35 93.8623 141.453 91.1119C141.106 90.0421 140.712 88.984 140.283 87.9414C140.174 87.6769 139.893 87.4901 139.589 87.1634C139.427 87.4629 139.283 87.7721 139.16 88.0892C138.212 91.2442 136.43 93.9245 134.573 96.6165C133.793 97.7836 133.064 98.9506 132.265 100.215C132.789 100.729 133.348 101.206 133.938 101.643C135.236 102.463 136.59 103.199 137.916 103.977C138.282 104.178 138.631 104.408 138.961 104.665C141.071 106.428 143.169 108.205 145.275 109.975C145.337 110.01 145.419 110.007 145.676 110.069L145.669 110.08ZM145.75 32.9264C146.016 32.2651 146.187 32.0277 146.199 31.7826C146.282 30.583 146.092 29.3802 145.644 28.2641C145.195 27.1479 144.5 26.1471 143.609 25.3366C143.083 24.8609 142.456 24.5091 141.775 24.3071C141.094 24.1052 140.376 24.0582 139.674 24.1696C139.459 24.1815 139.253 24.2642 139.089 24.405C138.926 24.5457 138.813 24.7365 138.77 24.9476C138.724 25.1566 138.754 25.3749 138.855 25.5637C138.956 25.7525 139.12 25.8995 139.32 25.9785C139.752 26.2158 140.209 26.4142 140.646 26.6359C142.872 27.7641 144.67 29.2501 145.138 31.8838C145.193 32.0861 145.403 32.304 145.758 32.9186L145.75 32.9264ZM102.353 28.4488C101.994 28.406 101.772 28.3126 101.608 28.3748C100.611 28.733 99.7369 29.3673 99.0884 30.2033C97.509 32.2417 97.0722 34.6264 96.9318 37.1006C96.9318 37.3184 97.1151 37.5518 97.2399 37.8319C97.4427 37.6218 97.5909 37.5401 97.6299 37.4429C98.1537 35.1787 99.2445 33.084 100.8 31.3547C101.444 30.5845 102.197 29.752 102.36 28.4371L102.353 28.4488ZM297.826 40.2049C297.855 40.7063 297.855 41.209 297.826 41.7104C297.73 42.4014 297.592 43.0861 297.413 43.7606C297.362 43.9677 297.249 44.154 297.087 44.2935C296.926 44.4329 296.725 44.5186 296.512 44.5386C296.093 44.5612 295.676 44.4633 295.311 44.2564C294.946 44.0495 294.648 43.7424 294.453 43.3715C294.285 42.9825 294.223 42.5663 294.086 42.1695C294.051 42.0683 293.907 41.9983 293.735 41.8427L292.78 42.6207C293.179 43.3878 293.72 44.0728 294.375 44.6397C294.731 44.9806 295.181 45.2081 295.667 45.2933C296.153 45.3785 296.653 45.3176 297.105 45.1182C298.297 44.6773 299.355 43.9378 300.178 42.9708C301.168 41.7727 300.958 40.948 299.499 40.4617C298.951 40.3311 298.395 40.2413 297.834 40.1932L297.826 40.2049ZM106.221 78.1809C106.021 78.1908 105.824 78.2369 105.64 78.3171C103.92 79.5658 102.185 80.7485 100.005 81.0947C99.416 81.188 99.26 81.97 99.6149 82.4718C99.7992 82.7349 100.062 82.9334 100.366 83.0389C100.67 83.1443 100.999 83.1515 101.307 83.0592C102.138 82.8542 102.889 82.4073 103.464 81.7755C104.201 81.0169 104.95 80.27 105.64 79.4725C105.956 79.1379 106.451 78.8228 106.221 78.1809ZM97.2516 184.383C98.7881 184.64 99.455 184.558 101.272 183.866C101.218 183.088 101.187 182.255 101.097 181.427C100.949 180.03 100.933 180.03 100.348 179.131C99.3692 180.711 98.3982 182.243 97.4622 183.8C97.3802 183.982 97.3175 184.172 97.275 184.368L97.2516 184.383ZM308.859 6.49254C308.038 6.28594 307.183 6.24423 306.346 6.36978C305.508 6.49533 304.704 6.78565 303.98 7.22389C303.691 7.41759 303.46 7.68668 303.313 8.00193C303.206 8.18317 303.159 8.39357 303.178 8.60312C303.198 8.81267 303.283 9.01068 303.422 9.16899C303.601 9.33997 303.835 9.44115 304.082 9.45401C304.329 9.46687 304.573 9.39056 304.768 9.23903C305.848 8.58548 306.944 7.94749 308.02 7.29394C308.32 7.0491 308.601 6.78113 308.859 6.49254ZM340.775 20.9952C340.775 20.4428 340.853 20.1938 340.775 20.0732C339.878 18.822 338.649 17.8442 337.227 17.2489C336.959 17.1787 336.679 17.1787 336.411 17.2489C336.289 17.2744 336.176 17.3296 336.08 17.4096C335.984 17.4895 335.91 17.5919 335.864 17.7074C335.818 17.8229 335.801 17.948 335.814 18.0716C335.828 18.1953 335.873 18.3135 335.943 18.416C336.051 18.5954 336.196 18.7495 336.369 18.8672C337.726 19.5247 339.106 20.186 340.775 20.9952ZM347.374 81.4253C348.248 80.2583 348.599 79.0057 349.008 77.5663C348.037 77.6558 347.292 77.0645 346.356 77.4768C346.914 78.7411 346.485 80.1766 347.374 81.4253ZM286.848 15.1366C286.111 14.6386 285.717 15.0082 285.397 15.3583C284.84 15.9729 284.812 16.7704 284.793 17.5485C284.757 17.9627 284.821 18.3795 284.98 18.764C285.138 19.1484 285.387 19.4893 285.705 19.7581C285.758 18.1548 286.147 16.5803 286.848 15.1366ZM105.281 30.1955C104.868 29.5302 104.47 29.7403 104.158 30.0399C103.378 30.8179 103.039 31.8177 102.711 32.8213C102.63 33.0742 102.528 33.3699 103.051 33.5255C103.772 32.4129 104.693 31.382 105.281 30.1955ZM142.096 33.5955C142.004 33.0536 141.799 32.537 141.494 32.0793C141.189 31.6215 140.791 31.2329 140.326 30.9385C139.983 30.6934 139.44 30.7051 139.429 30.9385C139.405 31.2 139.483 31.4604 139.647 31.666C140.439 32.3584 141.273 32.9731 142.1 33.6033L142.096 33.5955ZM307.989 84.3858C307.989 82.7831 307.989 82.7831 307.03 82.8297C307.151 83.4249 307.178 84.0162 307.989 84.3858ZM343.837 29.7248C343.787 29.8624 343.766 30.0084 343.773 30.1544C343.781 30.3005 343.817 30.4436 343.88 30.5756C343.943 30.7075 344.032 30.8257 344.141 30.9234C344.25 31.0211 344.377 31.0963 344.515 31.1447C344.726 30.5144 344.535 30.0827 343.837 29.7248Z" fill="black"/>
<path d="M86.8043 90.8475C86.075 91.4505 85.6734 91.8122 85.2444 92.1312C84.0471 93.0026 82.8109 93.8196 81.6448 94.7299C80.8526 95.311 80.1395 95.9923 79.5233 96.7567C78.6458 97.9237 77.3471 98.2622 75.9276 98.0327C75.7176 97.994 75.5216 97.901 75.3591 97.7628C75.1967 97.6247 75.0735 97.4464 75.002 97.2458C74.9304 97.0451 74.9131 96.8293 74.9517 96.6198C74.9902 96.4104 75.0834 96.2148 75.2217 96.0526C75.4562 95.7912 75.7347 95.5727 76.0446 95.4068C77.2145 94.7532 78.3845 94.1152 79.5545 93.5045C80.935 92.7926 82.3195 92.0884 83.7312 91.4427C84.5463 91.077 85.3419 90.5363 86.8043 90.8475Z" fill="black"/>
<path d="M202.112 120.218C201.515 119.81 201.523 119.168 201.507 118.557C201.472 117.075 201.48 115.597 201.449 114.115C201.429 113.271 201.328 112.426 201.343 111.582C201.348 110.882 201.428 110.184 201.581 109.501C201.664 109.227 201.84 108.991 202.078 108.833C202.317 108.675 202.603 108.604 202.888 108.633C203.367 108.715 203.559 109.085 203.722 109.493C204.056 110.36 204.16 111.298 204.023 112.216C203.718 114.449 203.379 116.678 203.032 118.904C202.938 119.437 202.829 120.004 202.112 120.218Z" fill="black"/>
<path d="M204.888 126.139C204.823 125.848 204.784 125.551 204.771 125.252C204.951 122.381 204.978 119.502 204.853 116.628C204.832 116.21 204.878 115.791 204.99 115.387C205.044 115.22 205.14 115.069 205.269 114.95C205.399 114.832 205.557 114.748 205.729 114.709C205.901 114.67 206.079 114.676 206.248 114.727C206.416 114.777 206.569 114.871 206.69 114.998C206.907 115.182 207.074 115.418 207.174 115.684C207.275 115.95 207.305 116.238 207.264 116.519C206.655 119.468 206.624 122.518 205.727 125.416C205.626 125.715 205.59 126.108 204.888 126.139Z" fill="black"/>
<path d="M224.676 101.11C223.99 100.978 223.99 100.592 223.943 100.266C223.744 98.9469 223.584 97.6204 223.366 96.3016C223.112 94.7845 222.765 93.275 222.543 91.754C222.416 90.7853 222.354 89.8093 222.356 88.8324C222.348 88.7438 222.361 88.6546 222.392 88.5712C222.423 88.4878 222.472 88.4122 222.536 88.3499C222.599 88.2875 222.676 88.2399 222.76 88.2103C222.844 88.1808 222.934 88.1701 223.022 88.1789C223.155 88.1939 223.282 88.2362 223.397 88.3032C223.512 88.3702 223.611 88.4604 223.689 88.5679C223.93 89.0745 224.107 89.6089 224.216 90.159C224.855 93.4851 224.941 96.8501 224.883 100.223C224.846 100.525 224.776 100.822 224.676 101.11Z" fill="black"/>
<path d="M274.605 61.7529C275.038 61.4261 275.222 61.181 275.44 61.1421C276.552 60.9476 277.667 60.7764 278.79 60.6597C280.35 60.4964 281.879 60.3796 283.427 60.2707C283.918 60.2103 284.416 60.2181 284.905 60.294C285.308 60.3986 285.68 60.5988 285.989 60.8776C286.086 60.9734 286.157 61.0909 286.199 61.2202C286.24 61.3495 286.25 61.4868 286.227 61.6206C286.169 61.7763 286.079 61.9179 285.962 62.036C285.845 62.1541 285.704 62.2459 285.549 62.3053C284.992 62.3995 284.426 62.4256 283.864 62.3831C281.255 62.3053 278.646 62.2197 276.037 62.1108C275.55 62.0347 275.071 61.9149 274.605 61.7529Z" fill="black"/>
<path d="M93.8192 90.1396C93.5818 90.4722 93.3012 90.7718 92.9846 91.0304C90.1507 92.7292 87.3012 94.4149 84.4361 96.0877C84.1994 96.2406 83.9285 96.3328 83.6474 96.3558C83.3664 96.3789 83.084 96.3322 82.8254 96.2199C82.4822 95.7726 82.7396 95.3952 83.0009 95.0879C83.2693 94.7633 83.5927 94.488 83.9564 94.2748C86.5761 92.7559 89.2967 91.4172 92.0993 90.268C92.6141 90.054 93.125 89.7155 93.8192 90.1396Z" fill="black"/>
<path d="M157.859 54.9917C157.169 55.9448 156.1 56.4077 155.258 57.1274C154.349 57.9054 153.386 58.6173 152.431 59.337C152.003 59.6965 151.53 59.9974 151.023 60.2317C150.859 60.2622 150.69 60.2523 150.531 60.2028C150.372 60.1533 150.228 60.0657 150.11 59.9478C150.022 59.8066 149.964 59.6483 149.942 59.4832C149.92 59.3181 149.933 59.1502 149.982 58.9908C150.111 58.6673 150.343 58.3944 150.641 58.2127C152.752 56.8099 155.028 55.6719 157.419 54.8244C157.512 54.7855 157.657 54.9061 157.859 54.9917Z" fill="black"/>
<path d="M281.326 67.3975C283.169 65.991 285.361 65.1115 287.667 64.8533C287.807 64.8272 287.95 64.8296 288.089 64.8602C288.228 64.8909 288.359 64.9492 288.474 65.0317C288.59 65.1142 288.687 65.2192 288.761 65.3403C288.835 65.4614 288.883 65.5961 288.904 65.7364C288.943 65.9831 288.89 66.2357 288.754 66.4454C288.617 66.6551 288.408 66.8072 288.167 66.8723C286.088 67.203 283.998 67.4947 281.927 67.7826C281.818 67.7943 281.716 67.6465 281.326 67.3975Z" fill="black"/>
<path d="M283.299 74.392C283.537 74.0533 283.81 73.7404 284.114 73.4584C286.134 71.9155 288.288 70.5539 290.549 69.3892C290.939 69.1947 291.329 69.0313 291.719 69.3892C292.023 69.6577 291.886 70.1673 291.243 70.5835C288.844 72.0618 286.438 73.5323 283.798 74.5593C283.708 74.5827 283.552 74.4737 283.299 74.392Z" fill="black"/>
<path d="M219.508 114.737C219.318 114.472 219.167 114.181 219.06 113.874C218.803 111.569 218.262 109.304 217.449 107.132C217.322 106.881 217.255 106.604 217.254 106.323C217.271 106.192 217.317 106.068 217.388 105.957C217.459 105.846 217.553 105.752 217.663 105.681C217.791 105.647 217.924 105.642 218.053 105.665C218.182 105.689 218.305 105.741 218.412 105.817C218.632 105.994 218.793 106.232 218.876 106.502C219.705 108.826 220.036 111.297 219.847 113.757C219.768 114.094 219.654 114.423 219.508 114.737Z" fill="black"/>
<path d="M157.948 60.3796C157.5 60.6869 157.215 60.8853 156.926 61.0759C155.636 61.9396 154.337 62.7876 153.054 63.6629C152.892 63.7928 152.7 63.8799 152.495 63.9159C152.291 63.952 152.081 63.9359 151.884 63.8691C151.714 63.8175 151.56 63.7228 151.438 63.5944C151.315 63.466 151.228 63.3081 151.185 63.1362C151.142 62.9643 151.144 62.7842 151.191 62.6133C151.239 62.4425 151.329 62.2868 151.455 62.1613C151.607 62.0127 151.784 61.8916 151.978 61.8034C153.729 61.0254 155.487 60.2862 157.398 60.0256C157.476 60.0139 157.593 60.15 157.948 60.3796Z" fill="black"/>
<path d="M157.094 67.666C156.751 67.7298 156.402 67.7559 156.053 67.7438C154.388 67.4987 152.73 67.2147 151.065 66.9658L150.858 66.9269C150.394 66.8179 149.993 66.3706 150.156 66.0516C150.312 65.7577 150.564 65.5257 150.87 65.3941C151.209 65.2953 151.568 65.2859 151.911 65.3669C153.504 65.6414 155.058 66.1091 156.537 66.7596C156.709 66.8391 156.853 66.9675 156.953 67.1288C157.052 67.29 157.101 67.4769 157.094 67.666Z" fill="black"/>
<path d="M221.415 104.763C221.263 104.468 221.132 104.162 221.025 103.849C220.617 102.448 220.227 101.041 219.855 99.6277C219.764 99.3628 219.755 99.0771 219.828 98.8069C219.929 98.4905 220.142 98.2221 220.428 98.0522C220.515 98.0286 220.605 98.024 220.694 98.0387C220.782 98.0534 220.866 98.087 220.94 98.1373C221.015 98.1876 221.077 98.2533 221.123 98.33C221.169 98.4066 221.198 98.4924 221.208 98.5813C221.462 100.608 222.078 102.639 221.415 104.763Z" fill="black"/>
<path d="M209.755 128.874C209.455 128.388 209.323 128.275 209.33 128.17C209.467 126.505 209.607 124.84 209.783 123.175C209.834 122.836 209.956 122.511 210.142 122.222C210.208 122.15 210.29 122.096 210.381 122.062C210.473 122.028 210.571 122.016 210.668 122.027C210.762 122.058 210.848 122.108 210.92 122.176C210.992 122.243 211.049 122.325 211.085 122.416C211.14 122.616 211.14 122.827 211.085 123.027C210.672 124.852 210.251 126.672 209.755 128.874Z" fill="black"/>
<path d="M343.837 29.725C344.535 30.0829 344.726 30.503 344.515 31.1449C344.377 31.0965 344.249 31.0213 344.14 30.9236C344.031 30.8259 343.943 30.7077 343.88 30.5758C343.817 30.4438 343.78 30.3007 343.773 30.1546C343.766 30.0086 343.787 29.8626 343.837 29.725Z" fill="black"/>
<path d="M389.846 112.177C389.624 115.013 388.891 117.729 388.322 120.471C388.185 121.129 387.744 121.728 387.409 122.331C387.288 122.549 386.801 122.471 386.691 122.234C386.559 121.991 386.47 121.728 386.426 121.455C386.381 120.895 386.381 120.332 386.426 119.771C386.671 116.843 386.931 113.915 387.206 110.987C387.266 110.504 387.398 110.032 387.596 109.587C387.701 109.361 387.884 109.181 388.111 109.079C388.338 108.977 388.594 108.96 388.832 109.03C389.041 109.064 389.233 109.168 389.374 109.325C389.516 109.482 389.6 109.683 389.612 109.894C389.741 110.649 389.772 111.415 389.846 112.177Z" fill="black"/>
<path d="M383.113 119.04C382.633 118.519 382.68 117.873 382.723 117.25C382.918 114.578 383.113 111.905 383.347 109.24C383.437 108.616 383.612 108.006 383.865 107.428C384.002 107.039 384.673 107.039 384.965 107.342C385.143 107.516 385.275 107.732 385.348 107.97C385.422 108.207 385.435 108.46 385.386 108.704C384.866 111.759 384.346 114.812 383.826 117.865C383.752 118.332 383.705 118.841 383.113 119.04Z" fill="black"/>
<path d="M110.764 173.596C110.458 173.268 110.186 172.909 109.953 172.526C109.173 170.581 109.208 168.55 109.232 166.512C109.235 166.442 109.248 166.372 109.271 166.305C109.446 165.527 109.945 165.033 110.495 165.064C111.045 165.096 111.478 165.594 111.54 166.418C111.581 166.625 111.589 166.836 111.564 167.045C111.111 168.842 111.15 170.663 111.209 172.491C111.213 172.732 111.018 172.965 110.764 173.596Z" fill="black"/>
<path d="M107.332 176.568C107.166 175.972 107.036 175.367 106.942 174.755C106.763 172.942 106.611 171.129 106.501 169.309C106.488 168.747 106.562 168.187 106.72 167.648C106.771 167.453 107.11 167.278 107.328 167.212C107.43 167.185 107.679 167.43 107.749 167.601C107.846 167.863 107.891 168.142 107.882 168.422C107.851 171.145 107.804 173.868 107.757 176.591L107.332 176.568Z" fill="black"/>
<path d="M313.756 41.0882C313.756 40.633 313.729 40.5474 313.756 40.4969C315.316 37.6998 318.249 35.8287 321.166 36.2955C322.882 36.5639 324.481 36.8751 325.791 38.0733C327.102 39.2715 327.285 40.7147 326.15 42.1736C325.097 43.5312 323.869 44.6555 322.153 45.1457C321.245 45.4483 320.274 45.5141 319.334 45.3371C318.393 45.1601 317.514 44.746 316.779 44.1342C315.644 43.2122 314.704 42.0607 313.756 41.0882ZM320.308 38.1978C321.236 40.4346 320.741 42.123 319.185 43.5623C320.507 44.3404 321.751 44.3404 322.909 43.6051C323.739 43.0739 324.5 42.4428 325.175 41.7262C325.904 40.9715 325.776 40.2207 324.926 39.5632C323.65 38.579 322.176 38.26 320.324 38.1978H320.308ZM316.529 40.6914C316.498 40.5747 316.471 40.458 316.439 40.3413L316.096 40.4813L316.244 40.8198L316.529 40.6914Z" fill="black"/>
<path d="M316.156 34.2726L315.376 34.152C314.89 34.5681 314.368 34.9392 313.816 35.2607C313.086 35.5992 312.408 35.1712 312.228 34.3737C312.17 34.17 312.14 33.9593 312.139 33.7474C312.228 32.6348 312.338 31.5261 312.443 30.4097C312.665 30.3007 312.86 30.1179 313.032 30.1373C313.379 30.1992 313.737 30.172 314.071 30.0584C314.405 29.9448 314.705 29.7484 314.943 29.4877C315.182 29.2331 315.471 29.0305 315.793 28.8925C316.752 28.4801 317.56 29.0597 317.419 30.0595C317.317 30.5386 317.175 31.0084 316.994 31.4639C316.873 31.8529 316.752 32.2419 316.479 33.0977C316.867 32.7988 317.232 32.4711 317.571 32.1174C318.382 31.0515 319.155 29.9545 319.97 28.8925C320.387 28.3517 320.956 28.4101 321.346 29.013C321.53 29.3433 321.696 29.6836 321.842 30.0323C322.255 29.7133 322.567 29.4449 322.906 29.2192C323.729 28.6785 323.889 28.7174 324.618 29.5655C324.708 29.6666 324.817 29.7522 324.919 29.8494C325.096 29.7335 325.284 29.6345 325.48 29.5538C326.373 29.2776 326.904 29.6082 326.888 30.4835C326.888 31.176 326.752 31.8646 326.689 32.452C326.12 32.841 325.975 32.2847 325.589 32.2302C324.895 32.3936 324.54 33.0316 324.092 33.5568C323.76 33.9458 323.405 34.2804 322.832 34.1403C322.169 33.9808 321.947 33.5101 321.927 32.8838C321.927 32.8293 321.861 32.7787 321.826 32.7165C321.374 32.5803 321.221 32.9577 321.011 33.2106C320.937 33.3328 320.878 33.4634 320.835 33.5996C320.527 34.2181 320.02 34.6577 319.342 34.5721C318.663 34.4865 318.312 33.8952 318.238 33.1989C318.238 33.1328 318.176 33.0705 318.105 32.9344C317.271 33.0277 316.982 33.9147 316.156 34.2726Z" fill="black"/>
<path d="M307.42 59.5938C307.362 60.5142 307.257 61.4309 307.104 62.3403C306.772 63.9898 305.575 64.9934 304.163 65.717C303.523 66.0332 302.789 66.1025 302.1 65.9115C301.412 65.7205 300.819 65.2827 300.435 64.6822C299.85 63.8064 299.341 62.8824 298.914 61.9202C298.535 61.0135 298.209 60.0861 297.935 59.1426C297.682 58.3646 297.935 57.6371 298.688 57.4192C301.031 56.6626 303.472 56.2498 305.934 56.1938C306.256 56.1882 306.57 56.3013 306.815 56.5115C307.059 56.7217 307.218 57.0144 307.26 57.3336C307.369 57.9483 307.357 58.594 307.42 59.5938ZM299.23 58.7847C299.53 60.3641 300.267 61.5623 300.965 62.7527C302.276 64.9895 303.391 65.0868 304.959 62.7527C305.192 62.4008 305.347 62.0027 305.411 61.5856C305.599 60.3409 305.614 59.0763 305.454 57.8277C303.223 57.357 301.359 58.2867 299.218 58.7847H299.23Z" fill="black"/>
<path d="M300.906 51.934C301.76 52.6848 302.77 52.5798 303.741 52.5604C304.74 52.5109 305.691 52.1146 306.428 51.44C306.847 51.0679 307.29 50.7235 307.754 50.4091C307.94 50.3047 308.156 50.2645 308.368 50.2947C308.579 50.325 308.775 50.424 308.924 50.5764C309.025 50.6478 309.111 50.7392 309.175 50.8449C309.24 50.9507 309.282 51.0685 309.298 51.191C309.315 51.3136 309.307 51.4383 309.273 51.5575C309.24 51.6766 309.182 51.7875 309.104 51.8835C308.207 52.9853 306.994 53.7867 305.628 54.1797C304.261 54.5727 302.806 54.5384 301.46 54.0814C299.35 53.3617 298.586 51.51 299.51 49.4832C300.065 48.2628 300.753 47.1069 301.561 46.0365C302.591 44.7729 303.285 43.2702 303.577 41.6678C303.703 41.2383 303.871 40.8225 304.08 40.4269C304.312 40.7307 304.475 41.0812 304.557 41.4541C304.639 41.8269 304.639 42.2131 304.556 42.5859C304.391 44.4837 303.781 46.3162 302.774 47.9349C301.955 49.1642 301.101 50.3857 300.906 51.934Z" fill="black"/>
<path d="M308.492 63.379C308.41 63.1067 308.324 62.99 308.348 62.8577C308.621 61.4806 308.89 60.0996 309.213 58.7341C309.319 58.4032 309.504 58.1029 309.752 57.8588C309.833 57.7998 309.928 57.7606 310.027 57.7444C310.127 57.7282 310.229 57.7354 310.325 57.7654C310.417 57.8043 310.5 57.8627 310.567 57.9366C310.634 58.0105 310.685 58.0981 310.715 58.1934C310.758 58.4692 310.758 58.75 310.715 59.0259C310.554 60.3587 310.062 61.6303 309.284 62.7254C309.051 62.978 308.784 63.1979 308.492 63.379Z" fill="black"/>
<path d="M319.758 46.7795C319.52 46.9157 319.399 47.048 319.306 47.0285C318.011 46.7757 316.705 46.55 315.425 46.2193C314.583 46.0015 313.986 45.4646 313.967 44.2314C315.012 44.85 315.886 45.3557 316.751 45.877C317.617 46.3983 318.795 46.1454 319.758 46.7795Z" fill="black"/>
<path d="M299.601 46.2076C299.039 47.861 298.111 48.3278 296.933 48.4406C296.848 48.4406 296.699 48.2889 296.657 48.1799C296.612 48.0541 296.612 47.9168 296.657 47.7909C296.716 47.6679 296.813 47.567 296.933 47.5031C297.706 47.1257 298.439 46.7678 299.601 46.2076Z" fill="black"/>
<path d="M118.411 50.6658C119.386 50.6658 119.066 51.5722 119.636 51.9068C119.918 51.6367 120.179 51.3454 120.416 51.0353C120.759 50.4985 121.04 50.0433 121.82 49.9539C122.249 49.9072 122.6 49.2886 123.017 48.9191C123.594 49.5882 122.818 50.1172 122.916 50.8642C123.204 50.9835 123.479 51.1307 123.739 51.3038C124.784 52.109 125.224 53.1438 124.834 54.4548C123.969 57.3608 121.98 59.0725 119.063 59.6832C117.503 60.0061 116.181 59.2553 114.913 58.4889C114.79 58.3737 114.694 58.2317 114.635 58.0738C114.575 57.9159 114.553 57.7465 114.57 57.5786C114.644 57.0988 114.814 56.6385 115.069 56.2249C115.332 55.8097 115.654 55.4349 116.025 55.1123C117.038 54.2271 117.724 53.0286 117.974 51.7083C118.082 51.346 118.228 50.9964 118.411 50.6658ZM120.786 57.4035L119.378 57.2285C119.055 56.3065 118.762 55.4663 118.423 54.4821C117.335 55.4507 116.184 56.1354 115.693 57.5358C117.12 58.3567 118.509 58.7651 119.983 57.7109C120.221 57.5665 120.467 57.4366 120.72 57.3219C121.913 56.7033 122.53 55.618 122.955 54.4276C123.077 54.0344 123.066 53.6118 122.923 53.2255C122.834 53.0906 122.717 52.977 122.578 52.8929C122.44 52.8088 122.285 52.7563 122.124 52.7392C122.036 52.729 121.947 52.739 121.864 52.7681C121.781 52.7973 121.705 52.845 121.643 52.9076C121.581 52.9702 121.535 53.0461 121.506 53.1295C121.478 53.2129 121.469 53.3016 121.48 53.3889C121.695 54.4276 121.184 55.2873 120.923 56.2132C120.814 56.61 120.513 56.9717 120.786 57.4035Z" fill="black"/>
<path d="M131.715 49.1953C132.113 48.5254 132.545 47.8762 133.01 47.2502C134.183 45.8359 135.596 44.6367 137.182 43.7063C137.838 43.3173 138.31 42.9282 138.528 42.1969C138.713 41.812 138.939 41.4482 139.203 41.1116C139.324 41.8896 139.394 42.3331 139.472 42.8116C140.591 42.8116 140.809 41.8001 141.484 41.2165C142.038 40.9987 142.814 41.6289 143.258 40.7225C143.434 41.0688 143.559 41.201 143.539 41.2983C143.291 42.3702 143.188 43.4707 143.235 44.5699C143.329 46.4605 142.233 47.9193 140.79 49.0397C139.668 49.9224 138.291 50.4228 136.863 50.4674C136.157 50.4869 135.451 50.518 134.741 50.5414C134.163 50.6028 133.578 50.5106 133.047 50.2742C132.515 50.0379 132.056 49.6657 131.715 49.1953ZM139.351 44.636C139.351 45.2662 139.37 45.9626 139.351 46.6551C139.332 46.9369 139.237 47.2083 139.076 47.441C138.916 47.6737 138.695 47.8591 138.438 47.9777C138.309 48.0706 138.159 48.1311 138.002 48.154C137.844 48.1769 137.683 48.1616 137.533 48.1093C137.382 48.057 137.247 47.9692 137.138 47.8536C137.028 47.7379 136.949 47.5977 136.906 47.4447C136.782 46.9163 136.69 46.3811 136.629 45.842C134.679 46.8301 134.324 47.1569 133.692 48.5068C135.685 49.6738 137.647 49.1953 139.483 48.2656C140.226 47.9116 140.852 47.3549 141.289 46.6601C141.727 45.9653 141.958 45.1609 141.956 44.3404C141.008 44.0953 140.209 43.963 139.37 44.636H139.351Z" fill="black"/>
<path d="M135.243 69.8756C134.327 69.6539 133.367 69.4866 132.584 68.7902C131.566 67.8683 131.492 67.6465 132.077 66.4795C132.255 66.0569 132.518 65.6753 132.85 65.3582C133.182 65.041 133.576 64.7951 134.007 64.6355C135.671 64.0617 137.222 63.202 138.589 62.0952C138.756 61.967 138.935 61.855 139.124 61.7607C139.248 61.6956 139.387 61.6631 139.528 61.6661C139.669 61.6691 139.806 61.7074 139.928 61.7777C140.05 61.8479 140.152 61.9478 140.225 62.0679C140.297 62.188 140.339 62.3245 140.344 62.4648C140.351 62.6739 140.342 62.8833 140.317 63.0911C140.161 65.1374 139.194 66.8529 137.977 68.4051C137.306 69.2026 136.476 69.9262 135.243 69.8756ZM133.469 67.0085C134.705 67.6232 135.419 68.2573 136.386 67.6854C137.213 67.1992 137.657 66.2966 137.677 65.1724L133.469 67.0085Z" fill="black"/>
<path d="M132.202 61.4806C132.389 59.7533 133.91 58.9636 134.499 57.427C134.241 57.1352 133.961 56.8646 133.66 56.6178C131.587 55.1336 130.032 53.0384 129.214 50.6269C129.033 50.0964 128.932 49.5417 128.914 48.9814C128.914 48.678 129.117 48.3667 129.304 47.8143C129.537 48.1526 129.749 48.5046 129.94 48.8686C130.894 51.298 132.525 53.4049 134.639 54.9411C135.075 55.2949 135.479 55.6853 135.848 56.1082C136.468 56.7345 136.628 57.4737 136.144 58.2167C135.757 58.8791 135.266 59.4753 134.69 59.9828C133.896 60.5383 133.064 61.0388 132.202 61.4806Z" fill="black"/>
<path d="M121.789 47.5264C121.399 47.6509 121.009 47.8026 120.619 47.9154C119.039 48.2951 117.533 48.9326 116.161 49.8021C114.693 50.6896 113.587 52.0681 113.042 53.6923C112.767 54.5998 112.431 55.4875 112.035 56.3493C111.287 56.5283 111.119 56.0848 111.103 55.6685C110.979 53.8191 111.526 51.9868 112.644 50.5062C114.699 47.8531 117.733 46.1804 121.789 47.5264Z" fill="black"/>
<path d="M61.9151 116.46C61.782 116.645 61.6275 116.814 61.4549 116.962C61.3924 116.977 61.3275 116.978 61.2648 116.964C61.202 116.951 61.1431 116.923 61.0922 116.885C60.9114 116.776 60.7601 116.625 60.6515 116.445C60.0743 115.173 59.4815 113.905 58.9941 112.605C58.9083 112.387 59.154 111.948 59.384 111.734C59.5603 111.619 59.7723 111.573 59.9804 111.603C60.1885 111.633 60.3785 111.738 60.515 111.897C60.559 111.951 60.5958 112.009 60.6242 112.072L61.9151 116.46Z" fill="black"/>
<path d="M316.529 40.6991L316.244 40.8275L316.096 40.489L316.439 40.349C316.47 40.4579 316.497 40.5746 316.529 40.6991Z" fill="black"/>
</g>
<defs>
<clipPath id="clip0_66_1191">
<rect width="423" height="193" fill="white"/>
</clipPath>
</defs>
</svg>
