<svg width="253" height="218" viewBox="0 0 253 218" fill="none" xmlns="http://www.w3.org/2000/svg">
<g id="Frame" clip-path="url(#clip0_66_139)">
<path id="Vector" d="M179.178 100.725C179.131 100.455 179.09 100.185 179.048 99.9152C179.188 99.1944 179.156 98.4507 178.955 97.7443C178.327 96.2221 179.017 94.5744 178.598 93.0356C178.555 92.8959 178.51 92.761 178.458 92.6261C178.492 92.5374 178.501 92.4412 178.484 92.3477C178.468 92.2543 178.426 92.1671 178.363 92.0958C177.804 90.9973 178.489 89.7284 177.908 88.6347C177.947 88.5554 177.96 88.4665 177.948 88.3792C177.936 88.292 177.898 88.2103 177.839 88.1446C177.254 87.2119 177.851 86.1016 177.389 85.1546C177.347 84.8327 177.306 84.5107 177.264 84.1911C176.731 83.4809 177.264 82.5339 176.804 81.8071C176.853 81.7386 176.874 81.6545 176.865 81.5711C176.855 81.4877 176.815 81.4107 176.752 81.355C175.039 82.2569 176.155 83.6727 176.108 84.8729C176.15 85.2114 176.191 85.5429 176.233 85.879C176.762 86.826 176.217 87.915 176.648 88.8738V89.0513C175.83 89.8681 174.937 89.6834 174.025 89.2881C174.017 89.289 174.008 89.289 173.999 89.2881C173.703 89.03 173.357 88.8146 172.978 88.9519C172.071 89.2999 171.121 89.165 170.194 89.2478C168.046 89.4348 165.869 89.4443 163.765 89.8326C160.808 90.3818 157.811 90.5167 154.85 90.9523C151.149 91.4921 147.395 91.5536 143.715 92.2378C141.23 92.6994 138.74 93.0711 136.227 93.3931C131.68 93.9778 127.101 94.3779 122.574 95.0763C118.395 95.725 114.197 96.1535 110.018 96.6766C106.104 97.1643 102.174 97.5834 98.3098 98.419C97.682 98.554 97.0092 98.554 96.5993 99.1908C96.8741 99.5128 97.2461 99.366 97.5635 99.3518C101.79 99.1695 106.026 99.0464 110.245 98.7457C114.642 98.4403 119.034 97.9527 123.427 97.562C125.36 97.3892 125.355 97.4058 124.874 99.4559C124.77 99.9105 124.753 100.382 124.692 100.843C124.557 101.79 124.426 101.937 123.457 101.927C120.264 101.894 117.061 101.823 113.877 101.797C110.584 101.776 107.296 101.797 104.003 101.797C103.438 101.799 102.876 101.869 102.328 102.006C101.037 102.332 99.7217 102.28 98.4093 102.389C96.8173 102.524 95.4645 102.389 94.5761 100.803C94.2918 100.285 93.3916 100.079 93.1831 99.5648C92.9225 98.9115 93.022 98.0876 93.067 97.3419C93.1452 96.1913 92.7259 95.1189 92.5932 94.0062C92.444 92.6687 92.7401 92.2378 94.0407 92.1857C95.9205 92.1383 97.7934 91.9395 99.6412 91.5915C101.797 91.1346 103.484 89.8444 104.287 87.8558C105.313 85.3014 105.727 82.6215 104.365 79.9535C103.815 78.8763 103.463 77.6879 103.057 76.5397C102.82 75.8295 102.991 75.42 103.737 75.356C105.334 75.2377 106.552 74.331 107.829 73.5639C108.731 73.0194 108.731 71.8594 107.926 71.1966C107.71 71.0177 107.477 70.8592 107.232 70.7231C105.007 69.421 103.721 67.3756 102.809 65.0698C101.735 62.3591 100.928 59.5869 100.736 56.6348C100.672 55.6334 100.849 55.1173 101.662 54.5681C103.856 53.079 105.758 51.2869 107.139 48.9669C108.348 46.9286 108.622 44.7648 108.397 42.459C108.104 39.3388 104.095 36.9193 101.456 38.3586C100.475 38.8984 99.4327 39.3056 98.5064 39.9708C98.1108 40.2549 97.7791 40.8775 97.0423 40.494C96.8793 39.0498 96.4305 37.6524 95.722 36.3832C95.0135 35.1139 94.0595 33.9981 92.9154 33.1007C91.5319 31.9762 90.1199 30.873 88.5303 30.0231C86.8174 29.1211 84.9459 28.7116 83.0814 29.0596C81.2186 29.381 79.4434 30.0873 77.8695 31.1334C75.2635 32.9303 73.399 35.158 73.9652 38.6309C73.996 38.7966 73.8752 38.9813 73.8136 39.1943C73.2237 39.5305 72.5485 39.4548 71.9184 39.4121C69.3313 39.2299 66.8936 39.9259 64.5032 40.7331C61.864 41.6304 59.7319 43.3704 57.8698 45.3874C56.3607 47.0233 55.9319 48.9929 56.7824 51.1425C56.9529 51.5781 57.0193 52.0658 57.2562 52.4588C57.73 53.2353 58.2583 53.962 58.725 54.6415C58.5378 55.1647 58.1683 55.2736 57.8271 55.4227C55.6239 56.4123 53.9371 58.0458 52.4872 59.9207C51.5952 61.0183 50.9242 62.278 50.5114 63.6304C49.4738 67.2975 51.4591 71.8523 56.1427 72.3045C56.6971 72.3566 57.2467 72.4536 57.8745 72.5412C57.2041 74.3499 57.4741 75.9313 58.5118 77.4346C58.9087 78.0714 59.2337 78.7502 59.4807 79.4587C59.9735 80.6968 59.4807 81.8521 59.0875 83.0098C58.7866 83.9259 58.0024 84.2313 57.1922 84.5225C55.278 85.2067 53.667 86.2318 53.07 88.3411C52.1224 90.6256 53.4017 92.1905 55.034 93.3292C56.2327 94.1601 56.87 94.9579 56.9956 96.4446C57.1709 98.5374 58.5568 99.5222 60.6558 99.5791C62.3667 99.6374 64.0503 99.139 65.4532 98.1586C69.1803 95.5747 72.2346 92.137 74.3609 88.1328C76.3935 84.345 76.493 80.5785 73.3185 77.1789C72.4064 76.2059 71.7051 75.0696 71.7359 73.661C71.7478 73.1875 71.8449 72.6454 72.3685 72.501C72.9489 72.34 73.1669 72.8537 73.3493 73.2775C74.214 75.2566 75.1119 77.2168 75.7799 79.2882C76.8436 82.5576 79.6178 83.4335 82.4797 81.5775C84.6829 80.1571 85.6471 78.1543 85.1614 75.5525C84.472 71.8476 83.7755 68.1332 82.2143 64.6768C81.3591 62.7829 81.4752 61.791 83.8727 61.5069C87.9949 61.0074 91.9441 59.7077 95.8744 58.4293C97.1158 58.0197 97.9023 57.9558 98.0065 59.5183C98.3027 64.0163 99.961 67.9059 103.176 71.1184C104.123 72.0654 103.943 72.7756 102.662 73.1331C101.24 73.5332 100.418 74.2789 100.35 75.8911C100.215 79.1391 98.5562 80.4128 95.3295 79.9156C94.4861 79.7925 93.7138 79.3972 92.8775 79.2433C91.4371 78.9781 90.0844 79.2788 89.6935 80.8129C89.3476 82.1765 90.57 82.7825 91.6337 83.1921C93.8109 84.0348 96.0568 83.9212 98.3121 83.4975C99.1934 83.3365 100.314 82.3469 100.904 83.2607C101.553 84.2503 100.667 85.4056 100.061 86.3525C99.7384 86.8767 99.3129 87.3298 98.8099 87.6843C98.3069 88.0388 97.7369 88.2872 97.1347 88.4145C95.6635 88.753 94.2302 89.2241 92.7591 89.5508C89.1818 90.3321 88.3052 91.5513 88.6321 95.2704C88.869 97.9337 88.6629 98.4001 85.9622 98.09C81.5273 97.5763 77.135 98.0118 72.7333 98.2036C68.2747 98.3954 63.6029 98.9541 60.4663 102.332C58.6042 104.337 56.799 105.597 54.2593 106.085C53.352 106.665 52.3096 106.695 51.2932 106.83C51.044 106.879 50.7992 106.948 50.5612 107.036C50.1893 107.193 49.7747 107.273 49.3909 107.38L49.3174 107.394C49.1063 107.447 48.9026 107.527 48.711 107.631C48.711 107.631 48.711 107.631 48.6967 107.631C48.612 107.675 48.5325 107.729 48.4598 107.791C48.4387 107.825 48.4227 107.862 48.4124 107.9C48.3754 107.998 48.359 108.102 48.3643 108.207C48.3696 108.311 48.3965 108.413 48.4432 108.506C48.7783 108.689 49.1538 108.784 49.5354 108.784C49.9169 108.784 50.2924 108.689 50.6275 108.506C50.8644 108.459 51.1013 108.414 51.3382 108.371C52.049 107.967 52.8781 108.372 53.5983 108.035C53.9774 107.967 54.3541 107.905 54.7284 107.839C55.6144 107.335 56.6426 107.858 57.5381 107.46C59.016 107.532 60.4974 107.459 61.9612 107.242C64.6358 106.797 67.3484 106.568 70.0539 106.331C72.9489 106.075 75.851 105.909 78.7507 105.708C82.7782 105.424 86.8056 105.119 90.833 104.875C92.046 104.801 93.3632 104.638 94.4553 104.998C95.7891 105.455 96.8244 104.683 98.0089 104.662C102.036 104.579 106.064 104.283 110.091 104.087C111.591 104.013 113.093 103.968 114.592 103.926C116.189 103.885 117.786 103.843 119.383 103.828C120.882 103.807 122.448 103.542 123.863 103.89C125.476 104.283 126.985 103.746 128.551 103.942C130.696 104.207 132.855 104.356 135.016 104.387C140.813 104.487 146.58 105.036 152.351 105.486C159.377 106.03 166.418 106.34 173.454 106.719C174.767 106.792 176.089 106.719 177.399 106.688C177.728 106.675 178.049 106.586 178.337 106.426C178.625 106.267 178.872 106.042 179.057 105.77C179.351 104.104 179.391 102.403 179.178 100.725ZM127.182 101.864C127.149 101.686 127.14 101.504 127.156 101.324C127.414 100.33 127.665 99.3305 127.971 98.3551C128.395 97.0033 128.596 96.8897 129.93 96.7642C133.58 96.4281 137.224 96.0706 140.865 95.7131C141.73 95.6255 142.088 95.8836 142.13 96.7335C142.183 97.8532 141.979 98.9777 142.265 100.098C142.446 100.808 142.502 101.563 142.671 102.496C140.233 102.77 129.664 102.325 127.182 101.864ZM164.769 103.994C158.24 104.333 151.739 103.644 145.023 102.865C145.023 100.633 145.023 98.4088 145.023 96.1913C145.016 96.0048 145.079 95.8223 145.2 95.6802C145.321 95.5381 145.491 95.4468 145.677 95.4243C145.951 95.3663 146.228 95.3237 146.506 95.2965C150.872 94.8041 155.208 94.0205 159.609 93.8595C160.138 93.8453 160.486 93.9589 160.735 94.4513C161.919 96.7879 163.142 99.1032 164.303 101.452C164.675 102.186 165.049 102.972 164.779 103.987L164.769 103.994ZM168.761 104.212C168.529 104.211 168.303 104.141 168.11 104.013C167.917 103.884 167.766 103.701 167.676 103.488C166.219 100.341 164.727 97.2188 163.274 94.0725C163.232 93.9879 163.212 93.8941 163.216 93.7997C163.221 93.7054 163.249 93.6136 163.298 93.533C163.347 93.4523 163.416 93.3855 163.498 93.3387C163.58 93.2918 163.673 93.2666 163.767 93.2653C165.899 93.0167 168.031 92.7421 170.187 92.5953C172.064 92.4603 173.921 92.342 175.622 91.4116C176.333 91.2648 176.835 91.4613 176.984 92.2544C177.015 92.4154 177.181 92.5503 177.285 92.6947C177.302 93.0593 177.316 93.4215 177.332 93.7837C177.219 95.1734 177.162 96.5559 177.806 97.8603C177.636 98.5642 177.663 99.3014 177.884 99.991C177.688 101.452 178.278 102.945 177.733 104.397C174.742 104.55 171.743 104.485 168.761 104.205V104.212Z" fill="black"/>
<path id="Vector_2" d="M222.82 51.2513C222.489 48.6661 222.169 46.0762 221.489 43.5526C221.453 43.4224 221.252 43.3159 221.105 43.2354C220.918 43.1431 220.788 43.2567 220.743 43.5005C220.692 43.6788 220.655 43.8609 220.634 44.045C220.634 47.7855 221.25 51.4644 221.733 55.1575C221.777 55.4352 221.872 55.7024 222.012 55.9458C222.057 56.0196 222.116 56.0831 222.187 56.1321C222.257 56.1811 222.338 56.2144 222.422 56.2299C222.754 56.2559 222.92 55.9766 222.967 55.7138C223.032 55.253 223.073 54.7892 223.09 54.3242C223.012 53.2991 222.965 52.2669 222.82 51.2513ZM222.82 51.2513C222.489 48.6661 222.169 46.0762 221.489 43.5526C221.453 43.4224 221.252 43.3159 221.105 43.2354C220.918 43.1431 220.788 43.2567 220.743 43.5005C220.692 43.6788 220.655 43.8609 220.634 44.045C220.634 47.7855 221.25 51.4644 221.733 55.1575C221.777 55.4352 221.872 55.7024 222.012 55.9458C222.057 56.0196 222.116 56.0831 222.187 56.1321C222.257 56.1811 222.338 56.2144 222.422 56.2299C222.754 56.2559 222.92 55.9766 222.967 55.7138C223.032 55.253 223.073 54.7892 223.09 54.3242C223.012 53.2991 222.965 52.2669 222.82 51.2513ZM222.82 51.2513C222.489 48.6661 222.169 46.0762 221.489 43.5526C221.453 43.4224 221.252 43.3159 221.105 43.2354C220.918 43.1431 220.788 43.2567 220.743 43.5005C220.692 43.6788 220.655 43.8609 220.634 44.045C220.634 47.7855 221.25 51.4644 221.733 55.1575C221.777 55.4352 221.872 55.7024 222.012 55.9458C222.057 56.0196 222.116 56.0831 222.187 56.1321C222.257 56.1811 222.338 56.2144 222.422 56.2299C222.754 56.2559 222.92 55.9766 222.967 55.7138C223.032 55.253 223.073 54.7892 223.09 54.3242C223.012 53.2991 222.965 52.2669 222.82 51.2513ZM222.82 51.2513C222.489 48.6661 222.169 46.0762 221.489 43.5526C221.453 43.4224 221.252 43.3159 221.105 43.2354C220.918 43.1431 220.788 43.2567 220.743 43.5005C220.692 43.6788 220.655 43.8609 220.634 44.045C220.634 47.7855 221.25 51.4644 221.733 55.1575C221.777 55.4352 221.872 55.7024 222.012 55.9458C222.057 56.0196 222.116 56.0831 222.187 56.1321C222.257 56.1811 222.338 56.2144 222.422 56.2299C222.754 56.2559 222.92 55.9766 222.967 55.7138C223.032 55.253 223.073 54.7892 223.09 54.3242C223.012 53.2991 222.965 52.2669 222.82 51.2513ZM222.82 51.2513C222.489 48.6661 222.169 46.0762 221.489 43.5526C221.453 43.4224 221.252 43.3159 221.105 43.2354C220.918 43.1431 220.788 43.2567 220.743 43.5005C220.692 43.6788 220.655 43.8609 220.634 44.045C220.634 47.7855 221.25 51.4644 221.733 55.1575C221.777 55.4352 221.872 55.7024 222.012 55.9458C222.057 56.0196 222.116 56.0831 222.187 56.1321C222.257 56.1811 222.338 56.2144 222.422 56.2299C222.754 56.2559 222.92 55.9766 222.967 55.7138C223.032 55.253 223.073 54.7892 223.09 54.3242C223.012 53.2991 222.965 52.2669 222.82 51.2513ZM222.82 51.2513C222.489 48.6661 222.169 46.0762 221.489 43.5526C221.453 43.4224 221.252 43.3159 221.105 43.2354C220.918 43.1431 220.788 43.2567 220.743 43.5005C220.692 43.6788 220.655 43.8609 220.634 44.045C220.634 47.7855 221.25 51.4644 221.733 55.1575C221.777 55.4352 221.872 55.7024 222.012 55.9458C222.057 56.0196 222.116 56.0831 222.187 56.1321C222.257 56.1811 222.338 56.2144 222.422 56.2299C222.754 56.2559 222.92 55.9766 222.967 55.7138C223.032 55.253 223.073 54.7892 223.09 54.3242C223.012 53.2991 222.965 52.2669 222.82 51.2513ZM232.479 79.2361C232.278 78.0335 232.029 76.838 231.768 75.6401C231.058 72.4228 230.548 69.1676 230.503 65.8793C230.434 60.6096 229.714 55.3966 229.134 50.1789C228.859 47.7736 228.755 45.34 228.397 42.93C228.148 41.2701 227.78 39.6301 227.298 38.0224C227.218 37.6511 227.023 37.3142 226.741 37.0594C226.46 36.8045 226.105 36.6446 225.727 36.602C223.275 36.2232 220.852 36.5759 218.438 36.9239C217.431 37.0731 216.834 37.9277 216.779 38.948C216.746 39.6014 216.824 40.2643 216.855 40.9225C216.906 41.3887 216.934 41.8572 216.938 42.3263C216.919 42.8518 217.208 43.4413 216.571 43.9835C215.663 43.9835 214.638 43.9527 213.621 43.9835C212.605 44.0142 211.515 43.9835 210.53 44.2368C208.009 44.921 205.526 45.7614 203.022 46.5331C202.298 46.7366 201.624 47.0881 201.043 47.5652C200.462 48.0424 199.986 48.6349 199.646 49.3053C199.127 50.2901 198.319 51.1187 197.63 52.0089C197.416 52.3227 197.124 52.5763 196.784 52.7454C196.443 52.9146 196.065 52.9935 195.685 52.9748C194.974 52.9274 194.218 53.2423 193.47 52.7759C193.425 52.2385 193.273 51.668 193.351 51.1187C193.809 48.0577 193.103 45.1553 192.247 42.26C192.094 41.6689 191.817 41.117 191.434 40.6408C191.051 40.1646 190.572 39.7748 190.028 39.4973C188.426 38.6474 188.447 38.6024 188.684 36.9997C188.753 36.5262 188.876 36.0788 188.945 35.6171C189.504 31.9169 188.959 28.2783 188.016 24.7461C186.79 20.2899 184.697 16.1188 181.857 12.4713C175.683 4.37328 167.536 0.209053 157.415 -0.0213723C150.898 -0.161048 144.987 1.76599 139.941 6.0107C138.868 6.91741 137.939 7.99457 136.923 8.96993C132.019 13.6692 130.038 19.706 129.555 26.2068C129.141 31.5827 130.25 36.9663 132.755 41.7416C132.926 42.073 133.113 42.3997 133.267 42.7406C133.547 43.3679 133.305 43.7562 132.556 43.8864C132.277 43.9385 131.997 43.974 131.718 44C125.916 44.5398 120.154 45.3992 114.405 46.3414C113.459 46.4925 112.547 46.809 111.711 47.2765C114.163 47.75 116.47 47.241 118.773 47.1013C123.748 46.8006 128.723 46.4479 133.682 45.9863C134.677 45.8939 135.304 46.0762 135.859 46.8219C137.728 49.3036 139.919 51.5263 142.374 53.4317C142.611 53.6234 143.085 53.7702 142.727 54.2626C138.147 54.6083 133.563 55.0746 128.965 55.2782C124.904 55.4487 120.974 56.4122 116.97 56.9354C116.023 57.0609 114.81 56.8075 114.243 58.0149C115.058 59.298 116.276 58.647 117.323 58.5689C123.047 58.138 128.695 57.0656 134.445 56.7602C136.228 56.6679 138.017 56.5235 139.789 56.3104C141.561 56.0973 143.362 55.3137 145.048 55.5434C146.837 55.7801 148.5 56.9212 150.223 57.674C150.31 57.7095 150.41 57.7143 150.493 57.7569C150.938 57.9652 151.331 58.2019 151.073 58.7985C150.836 59.3572 151.011 59.9065 151.104 60.4557C151.595 63.4265 151.583 66.4588 151.068 69.4257C150.886 70.4366 150.763 71.4522 150.393 72.4417C150.057 73.3484 149.524 73.8622 148.59 73.9805C147.1 74.1604 145.608 74.3853 144.11 74.4682C138.946 74.7617 133.826 75.498 128.695 76.0425C125.698 76.3644 122.684 76.4855 119.671 76.4047C118.366 76.3692 117.551 75.659 117.21 74.4682C117.006 73.758 116.987 72.9862 116.918 72.2452C116.681 69.6222 116.508 67.0015 116.233 64.3903C116.063 62.7331 115.793 61.0759 114.916 59.4874C114.227 61.2653 114.144 61.3316 114.31 62.5342C114.585 64.5039 114.547 66.4783 114.641 68.4527C114.732 70.1359 114.878 71.8238 115.094 73.5047C115.518 76.658 117.131 78.069 120.377 78.2228C121.036 78.2749 121.698 78.282 122.358 78.2442C125.629 77.9554 128.901 77.6547 132.173 77.3233C135.539 76.98 138.903 76.632 142.262 76.2342C144.504 75.9644 146.728 75.5856 148.962 75.2873C150.737 75.0506 151.819 74.0705 152.385 72.3707C153.333 69.5125 153.735 66.5019 153.57 63.4954C153.532 62.7426 153.397 61.9874 153.454 61.2464C153.523 60.432 152.847 59.691 153.148 58.8624C154.347 58.6707 155.316 59.1158 156.323 59.272C160.175 59.8899 163.996 59.8828 167.756 58.6707C168.088 58.4647 168.502 58.4955 168.834 58.2872L169.4 58.1215C169.357 57.3663 168.926 57.1887 168.415 57.1058L168.149 57.0751C168.031 57.0609 167.912 57.0443 167.796 57.023C167.361 57.0235 166.927 57.0792 166.505 57.1887C165.558 57.5012 164.572 57.4846 163.591 57.4633C155.446 57.5722 148.161 55.2972 142.27 49.4947C135.492 42.8258 131.879 34.9401 132.812 25.1794C133.698 15.8945 138.024 8.84448 146.387 4.85071C161.604 -2.40767 177.569 6.87244 183.122 19.0124C186.327 26.008 186.438 33.1172 184.081 40.3448C184.081 40.3756 184.062 40.4111 184.05 40.4419C184.039 40.4726 184.05 40.546 184.036 40.5934C183.714 44.1444 183.418 44.9706 181.338 45.1624C181.193 45.179 181.039 45.1885 180.864 45.2003C180.589 45.2003 180.291 45.2192 179.957 45.2263C178.808 45.3589 178.061 47.357 176.403 45.6241C175.543 44.7174 174.37 45.9247 173.797 46.9569C172.802 48.723 172.613 50.676 172.636 52.6599C172.681 52.8819 172.7 53.1083 172.693 53.3346C172.693 54.0069 172.523 54.6959 172.537 55.3658C172.529 55.6998 172.595 56.0313 172.731 56.3367C172.866 56.642 173.068 56.9136 173.321 57.1319C173.238 59.3335 174.155 61.3245 174.742 63.351C172.006 65.1833 171.741 66.1208 173.172 68.9356C173.328 68.5213 173.551 68.1852 173.572 67.8324C173.66 66.438 174.593 65.9764 175.754 65.7018C179.696 64.7217 183.75 64.8424 187.741 64.395C187.836 64.3982 187.93 64.4085 188.023 64.4258C189.93 64.5039 191.186 65.5313 191.871 67.2288C192.395 68.5241 192.845 69.848 193.219 71.1941C194.69 76.5041 195.732 81.9089 196.723 87.3278C197.367 90.8197 197.656 94.3849 198.881 97.7443C200.857 98.1325 200.177 96.8991 199.975 95.9569C199.502 92.0436 199.016 88.1445 198.523 84.2265C198.049 80.505 197.575 76.7811 196.37 73.1993C196.256 72.8584 196.069 72.5056 196.495 72.2003C197.936 72.1482 198.968 72.8773 199.75 74.0397C200.224 74.7499 200.774 75.4175 201.094 76.1845C201.804 77.9151 203.174 78.4596 204.884 78.5993C206.756 78.7484 208.622 78.7484 210.494 78.7792C213.395 78.8226 216.295 78.6135 219.16 78.1542C219.629 78.1111 220.1 78.1072 220.57 78.1424C220.756 78.1336 220.939 78.1898 221.089 78.3011C221.238 78.4125 221.345 78.5723 221.389 78.7531C221.787 79.9037 222.214 81.0495 222.598 82.2048C222.789 82.7848 223.131 83.2062 223.728 83.3388C226.289 83.914 228.762 83.7744 231.039 82.3232C232.128 81.6035 232.709 80.5879 232.479 79.2361ZM184.83 62.6502C182.319 62.9556 179.767 62.7378 177.263 63.2208C176.569 63.351 176.202 62.9982 176.138 62.3022C175.962 60.3444 175.735 58.3961 175.02 56.5353C174.978 56.4515 174.951 56.3609 174.941 56.2678C174.745 53.6637 174.963 51.0951 175.889 48.6141C176.048 50.6192 176.209 52.5676 177.074 54.3905C177.213 54.6817 177.431 54.8876 177.673 54.8261C177.915 54.7645 178.213 54.4946 178.23 54.3029C178.305 52.9653 178.824 51.7437 179.177 50.4843C179.364 49.7907 179.54 49.0189 180.452 48.4483C180.452 49.355 180.452 50.1055 180.452 50.8725C180.409 51.3328 180.393 51.7953 180.404 52.2575C180.504 53.086 181.589 53.5003 182.075 52.8209C182.641 52.0397 183.091 51.6372 184.107 51.9876C184.548 52.1367 184.891 51.5307 185.088 51.1258C185.441 50.4014 185.517 49.5302 186.332 48.9621C186.654 51.2205 185.756 53.2991 185.87 55.4629C185.984 57.6267 186.514 59.6981 187.083 61.8359C186.488 62.5366 185.602 62.5461 184.83 62.6455V62.6502ZM212.771 76.2674C210.262 76.4734 207.732 76.4805 205.216 76.6556C203.894 76.748 203.06 76.3242 202.702 74.9985C202.584 74.5534 202.297 74.1533 202.131 73.7177C201.214 71.2983 199.395 70.2685 196.884 70.2945C196.599 70.2945 196.32 70.3608 196.038 70.3561C195.514 70.3561 195.09 70.0909 195.007 69.5843C194.811 68.3462 194.022 67.3661 193.603 66.2203C192.835 64.1275 191.26 62.8846 189.132 62.3046C188.779 62.2099 188.421 62.1341 187.872 62.0039C188.064 60.7658 188.464 59.6058 188.346 58.3984C188.23 57.2793 188.175 56.1547 188.18 55.0296C188.201 53.7181 188.376 52.4255 188.438 51.1022C188.49 49.9824 188.661 48.8532 188.201 47.7594C187.964 47.2268 187.692 46.7131 187.152 46.4858C186.697 46.294 186.239 46.5118 185.851 46.8219C185.597 47.0232 185.287 47.0232 185.14 46.7746C185.082 46.657 185.05 46.5285 185.046 46.3974C185.041 46.2664 185.064 46.136 185.114 46.0147C185.732 44.7552 186.391 43.5123 187.05 42.2718C187.261 41.8576 187.469 41.377 188.033 41.3983C188.703 41.422 189.388 41.5948 189.713 42.2363C190.002 42.8263 190.216 43.4497 190.352 44.0924C190.807 46.1236 190.98 48.1903 190.606 50.2476C190.379 51.6326 190.435 53.0492 190.772 54.4118C191.369 57.1627 192.141 59.8331 193.446 62.3354C194.143 62.0702 194.069 61.4642 194.048 60.915C193.986 59.5111 193.873 58.112 193.811 56.7081C193.749 55.3043 193.868 55.1788 195.351 54.9776C195.724 54.9263 196.1 54.8986 196.476 54.8947C197.955 54.8568 198.923 54.0756 199.577 52.8114C200.136 51.7295 200.686 50.6405 201.236 49.5515C201.347 49.2949 201.524 49.0722 201.749 48.9059C201.974 48.7397 202.239 48.6357 202.517 48.6046C205.396 48.2092 208.203 47.4327 211.15 47.454C212.564 47.4724 213.964 47.179 215.251 46.5947C215.685 46.4137 216.137 46.2795 216.599 46.1946C217.227 46.0455 217.672 46.3556 217.803 47.0184C217.891 47.3835 217.934 47.7579 217.933 48.1335C217.696 52.2835 218.336 56.372 218.736 60.4746C219.072 63.931 219.359 67.3921 220.018 70.8106C220.255 72.0914 220.255 73.4147 220.375 74.8848C217.94 75.7134 215.358 76.0496 212.771 76.2626V76.2674ZM227.156 81.6603C224.822 82.3397 224.962 82.548 223.718 80.1736C222.872 78.5614 222.794 76.7432 222.586 74.9819C222.095 70.7017 221.678 66.4168 221.207 62.1436C220.605 56.7436 219.954 51.3555 219.387 45.9508C219.327 45.3228 219.177 44.7066 218.942 44.1208C218.345 42.608 218.445 41.0077 218.738 39.4334C218.783 39.1987 218.901 38.9845 219.077 38.8228C219.253 38.6611 219.477 38.5606 219.714 38.5361C220.923 38.3609 222.152 38.3231 223.339 38.0626C224.91 37.7265 225.251 38.2118 225.393 39.8405C225.45 40.4939 225.393 41.1497 225.393 42.4731C225.891 46.4503 226.061 51.1093 226.746 55.747C227.348 59.7928 228.25 63.8339 228.136 67.9745C228.144 68.6307 228.223 69.2841 228.373 69.9228C228.847 72.3068 229.371 74.686 229.868 77.0628C229.887 77.1504 229.894 77.2499 229.909 77.3374C230.307 80.0126 229.804 80.8932 227.156 81.6555V81.6603ZM221.498 43.5455C221.463 43.4153 221.261 43.3088 221.115 43.2283C220.927 43.1359 220.797 43.2496 220.752 43.4934C220.701 43.6717 220.665 43.8537 220.643 44.0379C220.643 47.7784 221.259 51.4573 221.742 55.1504C221.786 55.4281 221.881 55.6953 222.022 55.9387C222.066 56.0125 222.125 56.076 222.196 56.125C222.267 56.174 222.347 56.2074 222.432 56.2228C222.763 56.2489 222.929 55.9695 222.977 55.7067C223.041 55.2459 223.083 54.7821 223.1 54.3171C223.012 53.292 222.965 52.2598 222.83 51.2395C222.498 48.6661 222.178 46.0762 221.498 43.5526V43.5455ZM222.83 51.2442C222.498 48.659 222.178 46.0691 221.498 43.5455C221.463 43.4153 221.261 43.3088 221.115 43.2283C220.927 43.1359 220.797 43.2496 220.752 43.4934C220.701 43.6717 220.665 43.8537 220.643 44.0379C220.643 47.7784 221.259 51.4573 221.742 55.1504C221.786 55.4281 221.881 55.6953 222.022 55.9387C222.066 56.0125 222.125 56.076 222.196 56.125C222.267 56.174 222.347 56.2074 222.432 56.2228C222.763 56.2489 222.929 55.9695 222.977 55.7067C223.041 55.2459 223.083 54.7821 223.1 54.3171C223.012 53.2991 222.965 52.2669 222.82 51.2513L222.83 51.2442ZM222.83 51.2442C222.498 48.659 222.178 46.0691 221.498 43.5455C221.463 43.4153 221.261 43.3088 221.115 43.2283C220.927 43.1359 220.797 43.2496 220.752 43.4934C220.701 43.6717 220.665 43.8537 220.643 44.0379C220.643 47.7784 221.259 51.4573 221.742 55.1504C221.786 55.4281 221.881 55.6953 222.022 55.9387C222.066 56.0125 222.125 56.076 222.196 56.125C222.267 56.174 222.347 56.2074 222.432 56.2228C222.763 56.2489 222.929 55.9695 222.977 55.7067C223.041 55.2459 223.083 54.7821 223.1 54.3171C223.012 53.2991 222.965 52.2669 222.82 51.2513L222.83 51.2442ZM222.83 51.2442C222.498 48.659 222.178 46.0691 221.498 43.5455C221.463 43.4153 221.261 43.3088 221.115 43.2283C220.927 43.1359 220.797 43.2496 220.752 43.4934C220.701 43.6717 220.665 43.8537 220.643 44.0379C220.643 47.7784 221.259 51.4573 221.742 55.1504C221.786 55.4281 221.881 55.6953 222.022 55.9387C222.066 56.0125 222.125 56.076 222.196 56.125C222.267 56.174 222.347 56.2074 222.432 56.2228C222.763 56.2489 222.929 55.9695 222.977 55.7067C223.041 55.2459 223.083 54.7821 223.1 54.3171C223.012 53.2991 222.965 52.2669 222.82 51.2513L222.83 51.2442ZM222.83 51.2442C222.498 48.659 222.178 46.0691 221.498 43.5455C221.463 43.4153 221.261 43.3088 221.115 43.2283C220.927 43.1359 220.797 43.2496 220.752 43.4934C220.701 43.6717 220.665 43.8537 220.643 44.0379C220.643 47.7784 221.259 51.4573 221.742 55.1504C221.786 55.4281 221.881 55.6953 222.022 55.9387C222.066 56.0125 222.125 56.076 222.196 56.125C222.267 56.174 222.347 56.2074 222.432 56.2228C222.763 56.2489 222.929 55.9695 222.977 55.7067C223.041 55.2459 223.083 54.7821 223.1 54.3171C223.012 53.2991 222.965 52.2669 222.82 51.2513L222.83 51.2442ZM222.83 51.2442C222.498 48.659 222.178 46.0691 221.498 43.5455C221.463 43.4153 221.261 43.3088 221.115 43.2283C220.927 43.1359 220.797 43.2496 220.752 43.4934C220.701 43.6717 220.665 43.8537 220.643 44.0379C220.643 47.7784 221.259 51.4573 221.742 55.1504C221.786 55.4281 221.881 55.6953 222.022 55.9387C222.066 56.0125 222.125 56.076 222.196 56.125C222.267 56.174 222.347 56.2074 222.432 56.2228C222.763 56.2489 222.929 55.9695 222.977 55.7067C223.041 55.2459 223.083 54.7821 223.1 54.3171C223.012 53.2991 222.965 52.2669 222.82 51.2513L222.83 51.2442ZM222.83 51.2442C222.498 48.659 222.178 46.0691 221.498 43.5455C221.463 43.4153 221.261 43.3088 221.115 43.2283C220.927 43.1359 220.797 43.2496 220.752 43.4934C220.701 43.6717 220.665 43.8537 220.643 44.0379C220.643 47.7784 221.259 51.4573 221.742 55.1504C221.786 55.4281 221.881 55.6953 222.022 55.9387C222.066 56.0125 222.125 56.076 222.196 56.125C222.267 56.174 222.347 56.2074 222.432 56.2228C222.763 56.2489 222.929 55.9695 222.977 55.7067C223.041 55.2459 223.083 54.7821 223.1 54.3171C223.012 53.2991 222.965 52.2669 222.82 51.2513L222.83 51.2442Z" fill="black"/>
<path id="Vector_3" d="M120.847 144.218C120.778 145.433 120.719 146.65 120.641 147.864C120.527 149.644 120.302 151.415 120.297 153.205C120.297 156.396 119.618 159.547 119.776 162.745C119.942 166.105 119.971 169.455 120.707 172.788C121.181 174.892 121.655 176.99 122.143 179.092C123.124 183.417 124.893 187.447 126.464 191.561C128.336 196.464 130.139 201.407 130.608 206.712C130.638 207.084 130.724 207.453 130.731 207.825C130.752 208.919 130.399 209.956 129.563 210.602C127.194 212.415 124.955 214.449 122.022 215.377C121.574 215.519 121.075 215.614 120.722 215.9C119.608 216.771 118.315 216.916 116.995 216.918C116.242 216.881 115.49 217.01 114.792 217.295C113.299 217.972 111.712 218.005 110.092 218.005C107.286 217.959 104.486 217.747 101.705 217.37C98.5731 216.992 95.382 217.105 92.2287 216.994C91.0087 216.951 89.7744 216.982 88.5756 216.8C87.1802 216.584 85.8251 216.142 84.4297 216.8C84.2996 216.855 84.1594 216.881 84.0181 216.879C83.8769 216.876 83.7379 216.843 83.61 216.783C82.4066 216.054 81.1131 216.359 79.8195 216.267C72.9943 215.775 66.1713 215.162 59.6209 212.936C59.0049 212.728 58.3108 212.747 57.6924 212.538C56.4534 212.117 55.1552 211.918 53.9635 211.31C50.9074 209.745 47.5433 209.203 44.2006 208.72C42.5359 208.446 40.9159 207.949 39.3843 207.243C37.8349 206.57 37.1123 205.349 37.2521 203.675C37.3323 203.022 37.4654 202.377 37.6501 201.746C38.3798 198.836 38.5788 195.856 38.972 192.896C39.3653 189.937 39.4459 186.935 39.8628 183.967C40.6593 178.29 40.8578 172.545 40.4551 166.827C39.9552 159.606 38.728 152.471 37.8965 145.284C37.8492 145.104 37.7757 144.933 37.6785 144.775C37.5942 144.733 37.5039 144.704 37.4108 144.689C32.6064 144.876 27.8777 144.14 23.1585 143.43C20.8453 143.069 18.5576 142.561 16.3095 141.908C13.4501 141.089 11.1189 139.266 8.95358 137.332C6.57595 135.198 4.46913 132.781 2.68028 130.135C1.26668 128.129 0.472672 125.753 0.396498 123.3C0.349117 121.615 0.147744 119.931 0.0245527 118.248C-0.0133926 117.97 -0.0133926 117.688 0.0245527 117.41C0.934275 112.912 1.37966 108.303 3.00247 103.949C3.45734 102.728 3.76294 101.459 4.25808 100.232C5.08014 98.1965 6.28364 96.4707 7.63874 94.7875C10.5527 91.1512 14.0589 88.3174 18.084 85.9311C22.7724 83.1518 27.6455 80.7418 32.4405 78.1803C34.1486 77.2689 36.0297 76.6036 37.8894 75.955C40.275 75.1264 42.5991 74.0871 45.0203 73.3248C46.4417 72.875 47.9034 72.5033 49.358 72.1411C49.4909 72.1317 49.6239 72.1563 49.7446 72.2126C49.8652 72.269 49.9695 72.3552 50.0474 72.4631C50.0884 72.5471 50.1104 72.6391 50.112 72.7325C50.1135 72.826 50.0945 72.9186 50.0564 73.0039C50.0182 73.0893 49.9618 73.1652 49.891 73.2263C49.8203 73.2875 49.737 73.3325 49.6471 73.358C47.7305 74.125 45.8139 74.9015 43.895 75.6662C39.8841 77.2594 35.788 78.6609 31.9928 80.7489C27.3873 83.282 22.7226 85.7204 18.2522 88.4666C15.376 90.2623 12.8267 92.5343 10.7138 95.1852C9.29235 96.9347 7.90408 98.6747 6.79298 100.63C5.51843 102.877 5.01381 105.393 4.5092 107.844C3.8885 110.864 3.30571 113.914 3.08776 117.022C2.87217 120.182 2.45759 123.324 3.62554 126.39C3.89088 127.086 4.11594 127.824 4.51868 128.44C5.85957 130.483 7.32839 132.434 9.18338 134.058C10.7956 135.484 12.523 136.774 14.3479 137.916C16.8378 139.455 19.6286 139.763 22.3838 140.203C25.3475 140.677 28.3539 140.88 31.3223 141.33C32.7035 141.541 34.0373 142.04 35.39 142.433C36.4514 142.734 37.4558 143.309 38.6167 142.561C39.0502 142.282 39.4909 142.838 39.5927 143.307C39.851 144.491 40.0192 145.71 40.2513 146.908C41.199 151.789 42.1229 156.666 42.8028 161.585C43.2766 165.025 43.4614 168.482 43.6889 171.933C43.8274 174.161 43.7869 176.395 43.568 178.616C43.3311 181.126 43.3714 183.659 43.0066 186.171C42.6015 188.945 42.2532 191.727 42.0589 194.532C41.8623 197.248 41.2227 199.906 40.4006 202.513C39.7989 204.433 40.095 205.032 41.9997 205.571C42.5707 205.735 42.7389 205.481 42.7104 204.826C42.6725 203.99 43.0066 203.827 43.7173 204.163C45.8495 205.164 48.0101 206.057 50.2275 206.835C53.2599 207.917 56.3705 208.528 59.5285 208.985C60.5519 209.134 61.5706 209.236 62.568 209.558C63.3498 209.809 64.1481 210.228 65.0223 209.795C65.1068 209.752 65.1989 209.727 65.2933 209.72C65.3877 209.714 65.4824 209.726 65.572 209.757C67.7681 210.905 70.1988 210.467 72.4991 210.623C74.8942 210.791 77.2941 211.272 79.7508 210.881C80.9875 210.682 82.3568 210.981 83.6077 211.272C85.0719 211.627 86.5767 211.786 88.0829 211.745C90.8926 211.644 93.6857 212.003 96.4954 212.02C98.3362 212.032 100.22 212.309 102.091 212.437C107.419 212.765 112.766 212.556 118.052 211.812C118.885 211.674 119.699 211.435 120.475 211.101C122.216 210.405 123.939 209.66 125.656 208.905C127.464 208.114 127.909 207.086 127.298 205.058C126.215 201.466 125.137 197.875 123.981 194.307C123.666 193.334 123.128 192.413 122.622 191.526C121.65 189.805 121.146 187.92 120.513 186.081C119.52 183.252 118.721 180.36 118.12 177.423C117.376 173.635 116.552 169.888 117.123 165.984C117.251 165.096 116.81 164.137 116.869 163.228C117.343 156.107 117.926 149 119.414 142C119.449 141.914 119.497 141.835 119.556 141.763C122.062 141.498 120.866 143.167 120.847 144.218Z" fill="black"/>
<path id="Vector_4" d="M120.846 144.218C120.818 143.78 120.784 143.342 120.761 142.904C120.723 142.144 120.247 141.848 119.576 141.761C119.871 139.82 120.341 137.909 120.981 136.053C121.23 135.376 121.552 135.277 122.36 135.719C122.613 135.859 122.834 136.015 123.087 135.923C124.554 135.407 126.067 135.594 127.562 135.615C139.602 135.779 151.62 135.293 163.62 134.405C168.957 134.01 174.295 133.496 179.525 132.275C181.537 131.801 183.541 131.285 185.519 130.691C189.933 129.365 193.704 126.83 196.95 123.712C200.03 120.758 201.527 117.083 200.966 112.51C200.359 107.571 199.34 102.697 198.85 97.7466C200.023 97.6448 199.89 96.7452 199.944 95.9592C200.84 98.0662 200.923 100.341 201.316 102.552C201.842 105.516 202.33 108.497 202.247 111.508C202.16 114.692 201.899 117.874 201.634 121.049C201.536 122.282 200.967 123.43 200.044 124.254C198.239 125.895 196.398 127.49 194.439 128.951C190.501 131.889 185.879 133.122 181.257 134.363C180.817 134.481 180.359 134.543 179.919 134.628C179.916 134.846 179.943 135.063 179.997 135.274C181.087 137.769 182.077 140.317 183.328 142.729C184.41 144.822 185.126 147.043 185.948 149.223C186.896 151.765 187.758 154.36 188.459 156.985C190.155 163.344 192.799 169.367 194.986 175.548C196.19 179.011 197.642 182.383 199.331 185.638C200.113 187.12 200.809 188.654 200.977 190.384C200.288 190.576 200.132 190.107 199.892 189.767C198.253 187.444 197.222 184.795 196.047 182.25C194.597 179.094 193.143 175.943 191.762 172.757C190.906 170.785 190.167 168.761 189.404 166.749C187.249 161.053 185.183 155.324 182.937 149.663C181.141 145.13 179.395 140.591 178.18 135.864C178.007 135.189 177.486 135.04 176.872 135.087C174.998 135.232 173.124 135.404 171.248 135.528C167.121 135.802 162.994 136.053 158.865 136.318C156.147 136.493 153.428 136.666 150.71 136.87C149.763 136.939 149.597 137.206 149.763 138.12C150.05 139.685 150.402 141.24 150.625 142.814C151.099 146.164 151.194 149.533 151.227 152.921C151.265 156.945 151.615 160.97 151.909 164.994C152.402 171.744 152.971 178.488 153.475 185.235C153.693 187.907 153.645 190.594 153.331 193.256C152.705 192.482 152.539 191.582 152.43 190.673C152.087 187.785 151.786 184.89 151.421 182.004C151.101 179.49 150.687 176.987 150.365 174.476C149.701 169.267 148.858 164.059 148.512 158.811C148.32 155.918 147.894 153.046 147.801 150.137C147.716 147.059 147.195 143.981 146.854 140.904C146.804 140.43 146.711 139.971 146.695 139.505C146.614 137.185 146.614 137.118 144.229 137.294C137.358 137.8 130.5 137.336 123.637 137.239C123.184 137.239 122.763 136.858 122.132 137.239C121.858 139.043 121.552 140.98 121.272 142.921C121.227 143.392 121.246 143.88 120.846 144.218Z" fill="black"/>
<path id="Vector_5" d="M51.1073 86.8876C48.9562 88.0074 46.7553 89.0491 44.6611 90.2683C41.188 92.2924 37.6391 94.2147 34.5854 96.8804C32.8205 98.412 30.9702 99.8159 29.7407 101.902C28.5687 103.824 27.9044 106.012 27.8099 108.26C27.7459 109.877 28.2718 110.836 30.4727 111.172C30.66 111.18 30.8476 111.176 31.0342 111.158L35.8055 111.205C36.5328 111.151 37.4638 110.495 37.7292 111.84C36.8502 112.155 35.9737 112.474 35.0948 112.787C32.7782 113.58 30.7382 115.021 29.2171 116.939C29.0087 117.249 28.7707 117.537 28.5064 117.801C28.1439 118.111 27.6725 118.317 27.2342 118C26.7959 117.682 26.8409 117.155 27.1465 116.764C27.8407 115.879 28.6035 115.052 29.3048 114.174C29.5819 113.828 30.1173 113.667 30.096 113.085C29.8212 113.068 29.544 113.066 29.2716 113.035C26.36 112.69 24.9954 111.08 24.9433 108.206C24.8793 104.707 26.4429 101.939 28.5467 99.3306C30.9939 96.2932 34.0974 94.0537 37.298 91.9302C40.7308 89.6504 44.3768 87.7304 48.037 85.8507C49.6226 85.009 51.4222 84.6556 53.2087 84.8351C53.2927 84.8426 53.3742 84.8675 53.448 84.9083C53.5219 84.9491 53.5864 85.0048 53.6375 85.0719C53.8033 85.3962 53.5617 85.5927 53.2987 85.704C52.5264 86.0307 51.6877 86.2153 51.1073 86.8876Z" fill="black"/>
<path id="Vector_6" d="M123.161 16.6427C123.161 16.252 123.197 15.7809 123.161 15.3193C123.031 13.8515 123.528 12.5779 124.239 11.3255C125.271 9.44405 126.588 7.73348 128.143 6.2546C128.956 5.50217 129.95 4.97356 131.029 4.72054C131.77 4.52169 132.389 5.08748 132.213 5.80716C132.024 6.62614 131.763 7.42699 131.434 8.20058C130.216 10.9302 128.892 13.6077 127.406 16.2023C126.156 18.3969 125.618 20.7004 126.099 23.2027C126.143 23.3846 126.155 23.5729 126.134 23.759C126.068 24.1212 126.054 24.5355 125.675 24.7344C125.296 24.9332 124.98 24.6752 124.699 24.4361C123.784 23.6572 123.405 22.5871 123.263 21.4674C123.066 19.8954 122.69 18.3164 123.161 16.6427Z" fill="black"/>
<path id="Vector_7" d="M129.386 90.3629C128.516 90.2398 127.666 90.4245 127.232 89.6267C126.974 89.1532 127.727 88.5329 128.957 88.1328C132.885 86.8642 136.899 85.8785 140.968 85.1831C143.574 84.7356 146.204 85.2494 148.805 85.5855C148.991 85.603 149.162 85.6927 149.282 85.8353C149.402 85.9779 149.462 86.162 149.447 86.3478C149.381 86.8213 148.973 86.8947 148.618 86.9634C144.754 87.7043 140.89 88.4477 137.024 89.1626C135.086 89.5201 133.141 89.835 131.198 90.1498C130.551 90.2658 129.895 90.3156 129.386 90.3629Z" fill="black"/>
<path id="Vector_8" d="M147.35 78.3696C147.376 78.3696 148.037 78.3956 148.688 78.4714C148.925 78.4998 149.344 78.4998 149.224 78.9093C149.16 79.12 148.883 79.3023 148.662 79.4207C148.402 79.5246 148.132 79.6039 147.857 79.6574C143.725 80.9264 139.565 82.0248 135.258 82.593C132.934 82.896 130.65 83.495 128.34 83.9116C126.582 84.2288 124.813 84.4845 123.043 84.7331C122.395 84.8215 121.74 84.8579 121.086 84.842C120.752 84.842 120.29 84.842 120.309 84.2904C120.32 84.153 120.377 84.0234 120.47 83.9224C120.564 83.8214 120.689 83.755 120.826 83.7341C121.643 83.5139 122.456 83.2819 123.28 83.0901C124.197 82.8747 125.123 82.7137 126.04 82.5077C131.533 81.2767 137.026 80.0449 142.519 78.8123C144.103 78.4559 145.727 78.3071 147.35 78.3696Z" fill="black"/>
<path id="Vector_9" d="M252.998 68.4363C252.761 69.3288 252.093 69.5016 251.449 69.6199C249.887 69.9277 248.329 70.2923 246.748 70.4604C244.429 70.6855 242.131 71.098 239.878 71.6938C239.167 71.8855 238.381 71.8192 237.635 71.7814C236.888 71.7435 236.279 71.1658 236.066 70.3775C235.87 69.6531 236.194 68.9831 236.917 68.4623C237.817 67.8113 238.864 67.7805 239.888 67.7663C241.387 67.7403 242.892 67.8634 244.389 67.8823C246.078 67.9036 247.767 67.9036 249.456 67.8657C250.681 67.8491 251.877 67.9107 252.998 68.4363Z" fill="black"/>
<path id="Vector_10" d="M237.004 50.8276C235.988 50.6476 235.509 50.6216 235.071 50.4748C234.062 50.1363 233.829 48.6732 234.63 47.9749C235.496 47.2332 236.587 46.8046 237.726 46.7581C241.849 46.571 245.902 45.6193 250.046 45.6951C250.602 45.7069 251.159 45.7921 251.716 45.8442C251.953 45.8655 252.076 45.9981 252.043 46.2207C252.017 46.3911 251.986 46.6491 251.875 46.706C251.385 46.9775 250.866 47.1935 250.328 47.3499C247.063 48.1666 243.801 49.0071 240.512 49.7173C239.681 49.8972 238.904 50.1908 238.089 50.3943C237.715 50.5047 237.351 50.6498 237.004 50.8276Z" fill="black"/>
<path id="Vector_11" d="M169.319 83.6536C169.296 84.3664 169.237 85.0775 169.141 85.7842C169.096 86.0209 168.821 86.3476 168.644 86.3524C168.509 86.3298 168.381 86.2766 168.269 86.197C168.158 86.1174 168.067 86.0135 168.002 85.8931C167.376 84.6313 166.751 83.3174 166.677 81.9206C166.44 77.5244 165.794 73.1614 165.893 68.7344C165.893 68.5473 165.879 68.3603 165.893 68.1733C165.929 66.8381 166.206 66.1231 166.604 66.3031C167.428 66.6676 167.388 67.5175 167.483 68.2112C167.684 69.6955 167.734 71.2011 167.923 72.6879C168.288 75.5698 168.683 78.4461 169.108 81.317C169.255 82.245 169.451 83.1588 169.319 83.6536Z" fill="black"/>
<path id="Vector_12" d="M162.11 79.9582V83.6418C162.11 83.8785 161.992 84.0206 161.779 83.9709C161.62 83.933 161.39 83.8738 161.336 83.7554C160.307 81.4446 159.667 78.9803 159.44 76.4615C159.163 73.7675 158.966 71.0639 158.749 68.3627C158.699 67.7106 158.684 67.0563 158.703 66.4025C158.7 66.2128 158.768 66.0287 158.895 65.8873C159.021 65.7458 159.197 65.6576 159.386 65.6402C159.574 65.6264 159.762 65.6691 159.926 65.7627C160.089 65.8564 160.222 65.9967 160.305 66.1658C161.042 67.4182 161.172 68.8599 161.328 70.2306C161.681 73.3816 162.409 76.5089 162.11 79.9582Z" fill="black"/>
<path id="Vector_13" d="M244.042 58.7867C245.731 58.7867 247.046 58.7678 248.358 58.7867C248.925 58.7681 249.484 58.9297 249.953 59.2484C250.011 59.2824 250.06 59.3305 250.095 59.3883C250.13 59.4461 250.149 59.5117 250.152 59.5791C250.155 59.6466 250.141 59.7136 250.111 59.7741C250.081 59.8347 250.036 59.8867 249.981 59.9255C249.315 60.5244 248.432 60.5694 247.612 60.7398C245.409 61.1967 243.203 61.63 240.979 62.0064C240.145 62.146 239.32 62.191 238.555 62.6385C237.949 62.9959 237.273 62.8989 236.646 62.6645C236.12 62.4704 235.584 62.2171 235.561 61.5329C235.533 61.251 235.578 60.9668 235.692 60.7074C235.806 60.4479 235.984 60.2219 236.21 60.0509C236.836 59.6389 237.544 59.3668 238.285 59.2531C240.322 58.8767 242.367 58.8104 244.042 58.7867Z" fill="black"/>
<path id="Vector_14" d="M33.9418 138.437C32.7454 138.492 32.0465 137.587 32.3308 136.574C32.5452 135.752 32.9869 135.006 33.6053 134.422C35.1305 133.035 36.7982 131.813 38.5804 130.776C38.9547 130.561 39.4783 130.559 39.9355 130.556C40.0049 130.552 40.0743 130.565 40.1373 130.595C40.2003 130.624 40.2549 130.669 40.2959 130.725C40.337 130.781 40.3632 130.847 40.3723 130.916C40.3814 130.985 40.3729 131.055 40.3477 131.12C40.1771 131.548 40.0018 132.033 39.6796 132.336C38.0638 133.904 36.633 135.652 35.4153 137.545C35.0552 138.084 34.5553 138.556 33.9418 138.437Z" fill="black"/>
<path id="Vector_15" d="M120.875 125.899C120.951 125.083 121.058 124.06 121.188 123.033C121.217 122.663 121.296 122.299 121.425 121.951C121.756 121.188 122.846 120.72 123.533 121.004C124.22 121.288 124.718 122.128 124.436 122.855C123.671 124.9 123.649 127.064 123.251 129.169C123.21 129.444 123.148 129.717 123.067 129.983C122.936 130.362 122.607 130.693 122.259 130.627C122.083 130.58 121.92 130.494 121.782 130.375C121.644 130.257 121.534 130.109 121.46 129.943C121.205 129.148 121.014 128.333 120.889 127.507C120.814 127.057 120.875 126.584 120.875 125.899Z" fill="black"/>
<path id="Vector_16" d="M176.748 81.3667C176.241 81.7171 176.249 82.245 176.234 82.7872C176.215 83.4974 176.149 84.1886 176.104 84.8894C175.218 80.4269 174.325 75.9691 173.458 71.5042C173.415 71.0444 173.415 70.5815 173.458 70.1217C173.979 69.8684 174.169 70.3063 174.223 70.5573C174.965 73.7272 176.256 76.7503 176.718 79.9889C176.754 80.4473 176.764 80.9072 176.748 81.3667Z" fill="black"/>
<path id="Vector_17" d="M37.7323 111.84C37.2585 111.13 36.4388 111.452 35.8086 111.205C38.9997 110.258 42.1885 109.311 45.3891 108.402C46.3604 108.125 47.3175 107.671 48.3812 107.879C48.9356 108.748 49.8927 108.192 50.6034 108.507C50.2741 108.663 49.9614 108.902 49.6179 108.961C45.7634 109.619 41.8995 110.235 38.2795 111.821C38.0998 111.861 37.9143 111.867 37.7323 111.84Z" fill="black"/>
<path id="Vector_18" d="M173.293 57.1271C172.752 57.0205 172.189 57.1085 171.706 57.3757C170.981 57.7498 170.233 58.1215 169.384 58.1167C168.937 57.5201 168.2 57.9036 167.662 57.5935C167.662 57.5012 167.631 57.3568 167.662 57.3236C167.818 57.2408 167.972 57.1579 168.124 57.0703C169.865 56.1297 171.406 54.8592 172.661 53.3299C172.879 53.06 173.085 52.7759 173.284 52.48C173.578 53.4639 173.578 54.5121 173.284 55.496C173.097 56.0855 173.334 56.5897 173.293 57.1271Z" fill="black"/>
<path id="Vector_19" d="M120.496 7.5449C120.438 6.89089 120.544 6.23269 120.806 5.63054C121.068 5.02838 121.477 4.50147 121.996 4.09798C122.101 4.00412 122.24 3.95551 122.381 3.96259C122.523 3.96968 122.655 4.0319 122.751 4.13587C122.808 4.19936 122.85 4.27508 122.873 4.35717C122.896 4.43927 122.9 4.52554 122.884 4.60934C122.401 5.84748 121.356 6.59795 120.496 7.5449Z" fill="black"/>
<path id="Vector_20" d="M179.095 105.77C178.955 103.821 178.687 101.871 179.047 99.9175C179.315 101.636 179.611 103.353 179.836 105.076C179.888 105.486 179.479 105.68 179.095 105.77Z" fill="black"/>
<path id="Vector_21" d="M178.957 97.7443C178.806 97.6349 178.681 97.493 178.592 97.3292C178.503 97.1653 178.452 96.9836 178.443 96.7974C178.388 95.4054 178.206 94.011 178.443 92.6213C179.094 94.2832 178.992 96.0162 178.957 97.7443Z" fill="black"/>
<path id="Vector_22" d="M178.362 92.0981C177.479 91.0399 177.86 89.8159 177.907 88.637C178.611 89.7189 178.53 90.9025 178.362 92.0981Z" fill="black"/>
<path id="Vector_23" d="M176.635 89.0513C175.846 90.0882 175.354 90.1261 173.984 89.2643C174.863 89.1199 175.778 89.4585 176.635 89.0513Z" fill="black"/>
<path id="Vector_24" d="M54.7109 107.839C55.5543 107.022 56.5351 107.207 57.5207 107.458C56.6299 107.929 55.6704 107.881 54.7109 107.839Z" fill="black"/>
<path id="Vector_25" d="M177.836 88.1423C176.986 87.2498 177.244 86.1916 177.391 85.1523C177.972 86.0851 177.953 87.1078 177.836 88.1423Z" fill="black"/>
<path id="Vector_26" d="M176.231 85.8789C177.124 86.7738 176.78 87.8391 176.645 88.8736C176.022 87.9433 176.245 86.8945 176.231 85.8789Z" fill="black"/>
<path id="Vector_27" d="M177.263 84.1911C176.474 83.5188 176.624 82.6665 176.804 81.8071C177.367 82.5221 177.334 83.353 177.263 84.1911Z" fill="black"/>
<path id="Vector_28" d="M51.3164 108.369C51.9726 107.585 52.7829 107.858 53.5812 108.033C52.9037 108.674 52.0982 108.435 51.3164 108.369Z" fill="black"/>
<path id="Vector_29" d="M167.736 58.666C167.973 58.1925 168.331 58.0529 168.817 58.2825C168.568 58.7157 168.186 58.7939 167.736 58.666Z" fill="black"/>
<path id="Vector_30" d="M177.284 92.697C177.18 92.5526 177.014 92.4177 176.983 92.2567C176.834 91.4636 176.337 91.2672 175.621 91.4139C176.926 90.8647 176.886 92.0721 177.284 92.697Z" fill="black"/>
<path id="Vector_31" d="M177.809 97.8628C177.167 96.5583 177.224 95.1758 177.335 93.7861C177.965 95.0977 177.212 96.5536 177.809 97.8628Z" fill="black"/>
<path id="Vector_32" d="M177.73 104.404C178.275 102.953 177.685 101.459 177.882 99.998C178.228 101.489 178.477 102.957 177.73 104.404Z" fill="black"/>
<path id="Vector_33" d="M178.208 104.191C178.177 104.3 177.895 104.335 177.734 104.404C178.279 102.953 177.689 101.459 177.886 99.998C178.886 101.324 178.632 102.756 178.208 104.191Z" fill="black"/>
<path id="Vector_34" d="M177.809 97.8628C177.167 96.5583 177.224 95.1758 177.335 93.7861C178.297 95.0503 177.923 96.4707 177.809 97.8628Z" fill="black"/>
<path id="Vector_35" d="M50.7188 107.316C51.7715 106.805 52.9517 106.616 54.1113 106.774C53.0973 107.683 51.9057 107.479 50.7188 107.316Z" fill="black"/>
<path id="Vector_36" d="M177.284 92.6971C177.18 92.5527 177.014 92.4178 176.983 92.2568C176.834 91.4637 176.337 91.2672 175.621 91.414C176.72 90.7488 177.128 90.8482 177.353 91.8875C177.37 92.1593 177.347 92.4321 177.284 92.6971Z" fill="black"/>
<path id="Vector_37" d="M48.4355 107.86C49.0397 107.096 49.902 107.418 50.6672 107.332C50.0939 108.23 49.241 107.948 48.4355 107.86Z" fill="black"/>
<path id="Vector_38" d="M96.9424 63.9098C95.6702 63.595 94.3601 63.3653 93.1519 64.0755C92.2043 64.6413 91.2566 65.2592 90.3516 65.9055C90.1592 66.0395 90.0147 66.2315 89.9393 66.4534C89.8638 66.6753 89.8614 66.9155 89.9323 67.1389C90.4464 69.1844 92.1095 70.5787 94.1019 70.6142C97.1296 70.7089 98.2501 68.8174 98.5557 66.308C98.6529 65.3965 97.8024 64.1276 96.9424 63.9098ZM93.9029 68.4812C93.5343 68.402 93.1922 68.2299 92.909 67.9813C92.6258 67.7327 92.4109 67.4158 92.2848 67.0608C92.219 66.9352 92.1996 66.7904 92.2299 66.6519C92.2602 66.5134 92.3384 66.39 92.4506 66.3032C92.9245 65.9884 93.358 65.6309 93.955 65.593C94.3791 65.5623 94.6657 65.728 94.7368 66.1683C94.8102 66.727 94.8458 67.2928 94.8884 67.7237C94.8718 68.3463 94.4312 68.6091 93.9029 68.4812Z" fill="black"/>
<path id="Vector_39" d="M90.5782 75.6473C90.6895 74.9631 90.7274 74.2009 91.3292 73.6516C91.4576 73.5178 91.6282 73.432 91.8123 73.4087C91.9965 73.3855 92.183 73.4261 92.3408 73.5238C92.4466 73.6076 92.5332 73.7131 92.5949 73.8331C92.6566 73.9532 92.6919 74.085 92.6985 74.2198C92.6796 75.1028 92.1205 75.7633 91.6324 76.438C91.4808 76.6464 91.2084 76.8902 90.9407 76.6748C90.7559 76.5185 90.6848 76.2226 90.5829 75.9835C90.5626 75.8725 90.561 75.7589 90.5782 75.6473Z" fill="black"/>
<path id="Vector_40" d="M93.315 74.3357C93.2961 74.4659 93.6846 74.2931 93.9878 74.4043C94.2911 74.5156 94.4356 74.9394 94.2887 75.3134C94.1987 75.5502 94.1087 75.8271 93.7391 75.7064C93.3695 75.5856 93.18 75.3229 93.315 74.3357Z" fill="black"/>
<path id="Vector_41" d="M153.362 19.2515C152.521 16.7065 150.663 14.7842 149.334 12.5518C147.259 9.10013 141.914 9.72749 139.983 11.941C139.377 12.6512 138.875 13.4324 138.325 14.1782C138.233 14.2951 138.161 14.4263 138.112 14.5664C136.938 16.9462 136.051 19.4566 135.468 22.045C134.728 23.856 134.326 25.7874 134.283 27.7432C134.179 30.506 136.034 32.2673 138.808 32.2413C140.033 32.2247 141.267 32.1111 142.362 31.5453C145.442 29.9449 148.704 28.8725 151.935 27.6864C152.115 27.5428 152.256 27.3579 152.348 27.1477C152.44 26.9374 152.48 26.708 152.464 26.4791C152.464 25.3806 152.464 24.2774 152.464 23.1789C152.537 22.8404 152.615 22.5042 152.689 22.1681C153.947 21.4484 153.734 20.3902 153.362 19.2515ZM150.602 24.0075C150.497 25.6812 149.502 26.4909 148.045 26.9573C145.816 27.6675 143.67 28.6287 141.44 29.3247C138.453 30.2574 136.939 29.1376 136.804 26.0387C136.773 25.3877 136.84 24.7296 136.79 24.0809C136.747 23.8705 136.715 23.6579 136.695 23.4441C138.095 21.0128 138.962 18.4181 138.915 15.5418C139.953 15.5418 140.554 14.6966 141.305 14.1427C143.788 12.315 145.615 12.5826 147.605 14.8529C149.424 16.9314 150.902 19.171 151.696 21.8272C150.685 22.1941 150.654 23.1529 150.602 24.0075Z" fill="black"/>
<path id="Vector_42" d="M159.914 35.532C159.914 34.9046 159.599 34.469 158.945 34.3483C157.109 34.0429 155.543 33.3114 154.491 31.6897C153.994 30.9274 153.226 30.9795 152.458 31.1263C151.97 31.1003 151.546 31.2092 151.302 31.6897L151.12 31.8342L150.914 31.7205C150.239 31.6897 149.507 31.4838 149.104 32.3005L148.502 32.6746L147.962 32.845C147.488 32.8 147.076 32.845 146.837 33.3327C145.811 34.3838 144.375 34.6324 143.129 35.2645C139.952 36.8767 139.059 39.5258 140.637 43.3538C141.544 45.565 143.243 47.26 144.795 49C146.619 51.0644 149.078 52.3475 151.757 53.0624C153.205 53.4459 154.536 53.1784 155.631 52.016C156.792 50.7892 157.68 49.3304 158.237 47.7358C159.362 44.5967 159.62 41.3273 159.859 38.0533C159.923 37.2199 159.923 36.3866 159.914 35.532ZM158.549 37.5419C158.166 39.5565 157.742 41.5664 157.365 43.5929C157.026 45.4489 156.296 47.17 155.564 48.884C155.283 49.4765 154.918 50.0258 154.482 50.5151C153.828 51.3035 153.025 51.5686 151.982 51.2254C150.447 50.7022 148.974 49.9754 147.922 48.8059C146.06 46.7273 144.214 44.5919 142.996 42.0328C142.835 41.6955 142.707 41.3436 142.613 40.9817C142.172 39.2914 142.482 38.3776 143.97 37.3809C146.609 35.6125 149.279 33.8985 151.925 32.1727C152.099 32.2306 152.259 32.3205 152.399 32.4378C153.629 33.9966 155.364 35.0789 157.306 35.4988C158.618 35.7948 158.793 36.2422 158.549 37.5419Z" fill="black"/>
<path id="Vector_43" d="M169.325 53.6685C169.699 54.0733 168.678 54.7267 167.221 54.9848C167.034 55.0179 166.842 55.0226 166.659 55.0629C164.233 55.6121 162.265 54.0899 162.563 51.5118C162.968 48.0815 163.238 44.6157 164.416 41.3321C164.452 41.257 164.507 41.1922 164.575 41.1434C164.643 41.0947 164.722 41.0635 164.804 41.0527C164.939 41.0527 165.162 41.2398 165.172 41.3629C165.262 42.1086 165.297 42.8567 165.359 43.716C165.209 45.7567 165.058 47.9063 164.885 50.0535C164.849 50.527 164.75 50.9863 164.724 51.4526C164.641 53.053 165.055 53.4507 166.685 53.3631C166.778 53.3631 166.87 53.3158 166.965 53.311C167.78 53.2779 168.661 52.9583 169.325 53.6685Z" fill="black"/>
<path id="Vector_44" d="M170.226 30.1438C170.352 30.3403 170.657 30.6812 170.596 30.7593C169.475 32.3336 169.03 34.4216 167.142 35.4065C166.886 35.5185 166.657 35.6844 166.471 35.8928C166.285 36.1011 166.146 36.347 166.064 36.6138C165.907 37.1181 165.841 37.7975 165.13 37.7975C164.716 37.7975 163.965 36.4765 164.01 35.9534C164.036 35.6929 164.161 35.3165 164.358 35.2171C166.609 34.0831 168.21 32.2744 169.632 30.2645C169.707 30.1533 169.989 30.1888 170.226 30.1438Z" fill="black"/>
<path id="Vector_45" d="M181.334 22.1067C181.097 24.4219 179.851 25.7429 177.543 25.8731C174.546 26.0341 171.533 26.0341 168.526 26.0957C168.246 26.1122 167.965 26.0595 167.709 25.9423C167.454 25.8251 167.231 25.6468 167.06 25.4233C165.914 24.044 164.374 23.0464 162.646 22.5635C162.019 21.645 160.704 21.9622 160.04 21.1005C160.277 20.3714 160.912 20.4495 161.441 20.5465C163.407 20.9087 165.345 21.5621 166.693 23.0346C167.984 24.4551 169.396 24.7179 171.142 24.6137C172.724 24.5166 174.321 24.6705 175.908 24.6871C176.471 24.6928 177.033 24.6508 177.588 24.5616C178.609 24.3959 179.341 23.8159 179.526 22.7861C180 20.2199 179.931 17.708 178.138 15.5987C176.006 13.1059 173.824 10.6911 171.007 8.89904C169.177 7.76304 167.178 6.92555 165.084 6.41803C163.544 6.01795 161.978 5.74331 160.434 5.36453C159.152 5.05435 157.818 5.03332 156.527 5.30298C155.667 5.47343 155.279 6.07001 155.492 6.96014C155.745 8.04677 156.15 9.10499 156.409 10.1869C157.084 13.0112 157.716 15.8449 158.363 18.674C158.51 19.3179 158.624 19.9642 158.837 20.5868C159.311 22.064 159.334 22.0569 157.652 21.8297C156.854 20.7572 156.409 19.5096 156.056 18.2549C155.267 15.4614 154.608 12.6276 153.836 9.8294C153.548 8.73806 153.427 7.60944 153.478 6.48196C153.556 4.26609 154.755 3.01612 157.02 2.93089C158.323 2.89017 159.626 3.01425 160.898 3.30019C162.909 3.74999 164.871 4.42943 166.866 4.95735C172.234 6.34463 176.122 9.79153 179.306 14.0907C181.019 16.4273 181.642 19.1853 181.334 22.1067Z" fill="black"/>
<path id="Vector_46" d="M185.048 21.858C183.833 18.0702 181.968 14.5925 179.213 11.6783C176.845 9.1329 174.091 6.97586 171.052 5.28636C163.146 0.939851 155.03 0.267516 146.693 3.86593C140.533 6.5245 136.342 11.0746 133.85 17.3339C132.573 20.5346 132.002 23.7779 131.874 27.187C131.713 31.5879 132.585 35.7332 134.3 39.7696C135.198 41.8718 136.617 43.6142 137.754 45.546C138.483 46.8623 139.415 48.0552 140.517 49.0805C141.576 50.0132 142.649 50.9199 143.717 51.8361C146.771 54.4402 150.351 56.0595 154.16 57.1769C157.266 58.0836 160.448 58.2091 163.653 58.157C164.577 57.6243 165.664 58.2186 166.588 57.7167L167.662 57.6078C167.871 57.3968 168.119 57.2295 168.394 57.1154C168.969 56.8786 169.621 56.81 170.208 56.6419C171.203 56.3673 172.002 55.979 172.504 55.3682C172.978 54.7977 173.189 54.0307 173.065 52.9795C173.044 52.828 173.205 52.6529 173.283 52.4871C173.11 50.3873 173.625 48.4342 174.558 46.5853C175.072 45.5602 176.093 45.5294 176.787 46.3982C177.157 46.8717 177.275 47.3925 177.42 47.9276C177.481 48.1643 177.597 48.2685 177.789 48.1903C177.967 48.1434 178.129 48.0531 178.263 47.9276C178.352 47.7661 178.423 47.5954 178.474 47.4186C178.836 46.6776 179.102 45.8348 180.132 45.7614C180.573 45.6746 180.983 45.4701 181.317 45.1696C182.246 44.3007 181.888 42.8235 182.07 41.6185C182.629 37.9207 182.594 37.9159 179.253 36.2043C177.121 35.1177 175.013 33.9814 173.181 32.4023C175.25 33.8549 177.454 35.1044 179.763 36.1333C181.509 36.9098 183.079 37.8994 183.624 39.94C183.67 40.1971 183.809 40.4282 184.015 40.5887C184.107 40.6374 184.209 40.664 184.313 40.6665C184.417 40.669 184.52 40.6472 184.615 40.6029C184.994 39.4547 185.486 38.335 185.73 37.1584C186.794 32.007 186.654 26.8745 185.048 21.858ZM184.051 40.3401C183.982 40.232 183.936 40.1107 183.917 39.9839C183.897 39.8572 183.904 39.7278 183.937 39.6039C184.217 38.2402 183.44 37.5064 182.454 36.853C181.98 36.5357 181.547 36.1428 181.033 35.9415C177.993 34.6799 175.127 33.0364 172.504 31.0505C172.355 30.941 172.196 30.8451 172.03 30.7641C171.772 30.6339 171.485 30.551 171.248 30.7641C171.011 30.9771 171.154 31.2731 171.315 31.4743C172.478 32.9584 173.923 34.1982 175.567 35.1224C177.204 36.0339 178.884 36.8672 180.542 37.7265C181.767 38.3586 181.803 38.4012 181.658 39.6394C181.476 41.1261 180.71 42.6175 181.118 44.0687C181.293 44.7008 181.101 44.992 180.826 45.2051C180.552 45.2051 180.253 45.224 179.919 45.2311C178.77 45.3637 178.024 47.3618 176.366 45.6288C175.506 44.7221 174.333 45.9295 173.76 46.9617C172.765 48.7277 172.575 50.6808 172.599 52.6647C172.644 52.8866 172.663 53.113 172.656 53.3394C171.401 54.8687 169.86 56.1392 168.119 57.0799C168 57.0657 167.882 57.0491 167.766 57.0278C167.33 57.0283 166.896 57.084 166.475 57.1935C165.527 57.506 164.541 57.4894 163.561 57.4681C155.416 57.577 148.131 55.302 142.239 49.4995C135.461 42.8306 131.848 34.9449 132.782 25.1842C133.668 15.8993 137.994 8.84927 146.357 4.85551C161.573 -2.40287 177.538 6.87724 183.091 19.0171C186.297 26.0033 186.406 33.1125 184.051 40.3401Z" fill="black"/>
<path id="Vector_47" d="M223.099 54.3242C223.082 54.7892 223.041 55.253 222.976 55.7139C222.929 55.9766 222.763 56.256 222.431 56.2299C222.347 56.2145 222.266 56.1811 222.196 56.1321C222.125 56.0831 222.066 56.0196 222.021 55.9459C221.881 55.7024 221.786 55.4352 221.742 55.1575C221.268 51.4644 220.638 47.7855 220.643 44.045C220.664 43.8609 220.701 43.6788 220.752 43.5006C220.797 43.2638 220.927 43.1431 221.114 43.2354C221.259 43.3135 221.462 43.4224 221.498 43.5526C222.178 46.0763 222.498 48.6662 222.829 51.2514C222.964 52.267 223.012 53.2991 223.099 54.3242Z" fill="black"/>
<path id="Vector_48" d="M184.155 44.1587C183.165 46.3911 183.065 46.448 180.675 45.8585C180.495 45.8159 180.313 45.7851 180.132 45.7496C180.308 45.5129 180.606 45.3803 180.843 45.1956C181.118 44.9826 181.317 44.6914 181.135 44.0593C180.737 42.6081 181.492 41.1166 181.675 39.6299C181.819 38.3918 181.784 38.3492 180.559 37.7171C178.901 36.8625 177.214 36.0291 175.584 35.113C173.94 34.1888 172.495 32.949 171.331 31.4648C171.17 31.2636 171 30.9914 171.265 30.7546C171.53 30.5179 171.789 30.6291 172.047 30.7546C172.213 30.8357 172.372 30.9316 172.521 31.0411C175.144 33.0269 178.01 34.6705 181.049 35.9321C181.556 36.1428 181.997 36.5263 182.471 36.8435C183.456 37.4969 184.233 38.2308 183.954 39.5944C183.921 39.7183 183.914 39.8477 183.933 39.9745C183.953 40.1012 183.999 40.2225 184.067 40.3307C184.134 40.4131 184.219 40.4794 184.315 40.5249C184.411 40.5704 184.516 40.5938 184.622 40.5935C184.86 41.8009 184.696 43.053 184.155 44.1587Z" fill="black"/>
<path id="Vector_49" d="M163.652 58.1452C164.555 57.4942 165.581 57.6551 166.59 57.7049C165.706 58.4908 164.685 58.3535 163.652 58.1452Z" fill="black"/>
<path id="Vector_50" d="M174.672 25.3972C171.27 25.3972 167.698 25.7381 165.049 22.7434C164.575 22.2107 163.763 21.955 163.047 21.7277C161.171 21.1264 163.462 22.6084 162.642 22.5634C162.014 21.6449 160.699 21.9621 160.036 21.1004C160.273 20.3713 160.908 20.4494 161.436 20.5464C163.403 20.9086 165.34 21.562 166.688 23.0345C167.98 24.455 169.392 24.7178 171.138 24.6136C172.72 24.5165 174.317 24.6704 175.904 24.687C176.467 24.6927 177.028 24.6507 177.584 24.5615C178.605 24.3958 179.337 23.8158 179.522 22.786C179.996 20.2197 179.927 17.7079 178.133 15.5986C176.001 13.1058 173.819 10.691 171.003 8.89894C169.173 7.76293 167.173 6.92544 165.08 6.41793C163.54 6.01784 161.974 5.74321 160.429 5.36443C159.148 5.05424 157.813 5.03321 156.523 5.30287C155.663 5.47333 155.274 6.06991 155.488 6.96004C155.741 8.04667 156.146 9.10489 156.404 10.1868C157.08 13.0111 157.712 15.8448 158.359 18.6739C158.506 19.3178 158.619 19.9641 158.833 20.5867C159.306 22.0639 159.33 22.0568 157.648 21.8296C158.214 20.8258 157.885 19.8031 157.648 18.8135C156.812 15.4353 156.175 12.012 155.227 8.65272C154.386 5.7006 155.45 4.12394 158.494 4.49325C164.601 5.2295 170.621 6.4558 175.158 11.2071C176.065 12.1541 177.053 13.0418 177.88 14.074C178.958 15.4045 179.794 16.8652 180.131 18.572C181.059 23.366 179.519 25.4019 174.672 25.3972Z" fill="black"/>
<path id="Vector_51" d="M181.334 22.1067C181.097 24.4219 179.851 25.7429 177.543 25.8731C174.546 26.0341 171.533 26.0341 168.526 26.0957C168.246 26.1122 167.965 26.0595 167.709 25.9423C167.454 25.8251 167.231 25.6468 167.06 25.4233C165.914 24.044 164.374 23.0464 162.646 22.5635C162.019 21.645 160.704 21.9622 160.04 21.1005C160.277 20.3714 160.912 20.4495 161.441 20.5465C163.407 20.9087 165.345 21.5621 166.693 23.0346C167.984 24.4551 169.396 24.7179 171.142 24.6137C172.724 24.5166 174.321 24.6705 175.908 24.6871C176.471 24.6928 177.033 24.6508 177.588 24.5616C178.609 24.3959 179.341 23.8159 179.526 22.7861C180 20.2199 179.931 17.708 178.138 15.5987C176.006 13.1059 173.824 10.6911 171.007 8.89904C169.177 7.76304 167.178 6.92555 165.084 6.41803C163.544 6.01795 161.978 5.74331 160.434 5.36453C159.152 5.05435 157.818 5.03332 156.527 5.30298C155.667 5.47343 155.279 6.07001 155.492 6.96014C155.745 8.04677 156.15 9.10499 156.409 10.1869C157.084 13.0112 157.716 15.8449 158.363 18.674C158.51 19.3179 158.624 19.9642 158.837 20.5868C159.311 22.064 159.334 22.0569 157.652 21.8297C156.854 20.7572 156.409 19.5096 156.056 18.2549C155.267 15.4614 154.608 12.6276 153.836 9.8294C153.548 8.73806 153.427 7.60944 153.478 6.48196C153.556 4.26609 154.755 3.01612 157.02 2.93089C158.323 2.89017 159.626 3.01425 160.898 3.30019C162.909 3.74999 164.871 4.42943 166.866 4.95735C172.234 6.34463 176.122 9.79153 179.306 14.0907C181.019 16.4273 181.642 19.1853 181.334 22.1067Z" fill="black"/>
<path id="Vector_52" d="M159.914 35.532C159.914 34.9046 159.599 34.469 158.945 34.3483C157.109 34.0429 155.543 33.3114 154.491 31.6897C153.994 30.9274 153.226 30.9795 152.458 31.1263C152.136 31.4412 151.591 31.3015 151.302 31.6897L151.12 31.8342L150.914 31.7205C150.369 32.104 149.571 31.6803 149.104 32.3005L148.502 32.6746L147.962 32.845C147.63 33.0983 147.142 33.0107 146.837 33.3327C145.811 34.3838 144.375 34.6324 143.129 35.2645C139.952 36.8767 139.059 39.5258 140.637 43.3538C141.544 45.565 143.243 47.26 144.795 49C146.619 51.0644 149.078 52.3475 151.757 53.0624C153.205 53.4459 154.536 53.1784 155.631 52.016C156.792 50.7892 157.68 49.3304 158.237 47.7358C159.362 44.5967 159.62 41.3273 159.859 38.0533C159.923 37.2199 159.923 36.3866 159.914 35.532ZM158.549 37.5419C158.166 39.5565 157.742 41.5664 157.365 43.5929C157.026 45.4489 156.296 47.17 155.564 48.884C155.283 49.4765 154.918 50.0258 154.482 50.5151C153.828 51.3035 153.025 51.5686 151.982 51.2254C150.447 50.7022 148.974 49.9754 147.922 48.8059C146.06 46.7273 144.214 44.5919 142.996 42.0328C142.835 41.6955 142.707 41.3436 142.613 40.9817C142.172 39.2914 142.482 38.3776 143.97 37.3809C146.609 35.6125 149.279 33.8985 151.925 32.1727C152.099 32.2306 152.259 32.3205 152.399 32.4378C153.629 33.9966 155.364 35.0789 157.306 35.4988C158.618 35.7948 158.793 36.2422 158.549 37.5419Z" fill="black"/>
<path id="Vector_53" d="M152.421 23.1695C151.691 24.6089 152.572 26.2305 151.904 27.6675C148.673 28.8512 145.401 29.926 142.331 31.5264C141.243 32.0922 140.009 32.2058 138.777 32.2224C136.003 32.2579 134.148 30.4966 134.252 27.7244C134.295 25.7685 134.696 23.8371 135.437 22.0261C136.039 22.0521 136.335 22.2794 136.489 22.5895C136.599 22.8551 136.662 23.1379 136.676 23.4252C136.696 23.639 136.727 23.8516 136.771 24.062C136.82 24.7107 136.754 25.3688 136.785 26.0198C136.929 29.1187 138.443 30.2385 141.421 29.3057C143.65 28.5955 145.797 27.6486 148.026 26.9384C149.483 26.4649 150.478 25.6624 150.582 23.9886C150.634 23.134 150.665 22.1752 151.677 21.8225C151.719 21.8225 151.764 21.7964 151.812 21.787C151.833 21.7781 151.855 21.7709 151.878 21.7657C152.024 21.763 152.168 21.7956 152.298 21.8607C152.429 21.9259 152.541 22.0216 152.627 22.1397C152.572 22.4948 152.494 22.831 152.421 23.1695Z" fill="black"/>
<path id="Vector_54" d="M152.647 22.1587C152.351 22.1114 152.055 22.0711 151.754 22.0238C151.739 21.9618 151.72 21.901 151.697 21.8415C150.903 19.1853 149.425 16.9457 147.605 14.8672C145.615 12.5874 143.789 12.3199 141.306 14.157C140.555 14.7109 139.953 15.5466 138.916 15.5561C138.893 15.5583 138.87 15.5583 138.847 15.5561C138.787 15.5632 138.727 15.5632 138.667 15.5561C138.193 15.3194 137.956 14.995 138.101 14.5902C138.15 14.4501 138.222 14.3189 138.314 14.202C138.864 13.4562 139.366 12.6632 139.972 11.9648C141.903 9.75128 147.248 9.12395 149.323 12.5756C150.664 14.808 152.521 16.7303 153.35 19.2752C153.734 20.3903 153.947 21.4485 152.647 22.1587Z" fill="black"/>
<path id="Vector_55" d="M167.221 54.9918C167.034 55.025 166.842 55.0297 166.659 55.07C164.233 55.6192 162.265 54.097 162.563 51.5189C162.968 48.0886 163.238 44.6227 164.416 41.3392C164.452 41.2641 164.507 41.1993 164.575 41.1505C164.643 41.1018 164.722 41.0706 164.804 41.0598C164.939 41.0598 165.162 41.2469 165.172 41.37C165.262 42.1157 165.297 42.8638 165.359 43.7231C165.209 45.7638 165.058 47.9134 164.885 50.0606C164.849 50.5341 164.75 50.9933 164.724 51.4597C164.641 53.0601 165.055 53.4578 166.685 53.3702C166.778 53.3702 166.87 53.3228 166.965 53.3181C167.773 53.2826 168.654 52.9512 169.317 53.6803C169.699 54.0804 168.678 54.7338 167.221 54.9918Z" fill="black"/>
<path id="Vector_56" d="M170.602 30.7593C169.481 32.3336 169.036 34.4216 167.148 35.4064C166.892 35.5185 166.663 35.6844 166.477 35.8927C166.291 36.1011 166.152 36.347 166.07 36.6138C165.913 37.1181 165.847 37.7975 165.136 37.7975C164.722 37.7975 163.971 36.4765 164.016 35.9533C164.042 35.6929 164.167 35.3165 164.364 35.2171C166.614 34.0831 168.216 32.2744 169.637 30.2645C169.708 30.1603 169.979 30.1959 170.232 30.1509C170.358 30.3403 170.663 30.6812 170.602 30.7593Z" fill="black"/>
<path id="Vector_57" d="M138.916 15.5537C138.963 18.43 138.096 21.0247 136.696 23.456C136.509 23.7756 136.312 24.0975 136.111 24.4148C136.068 23.9886 136.007 23.5601 135.992 23.134C135.978 22.7079 135.91 22.2746 135.457 22.0521C136.04 19.4637 136.927 16.9534 138.101 14.5736C138.174 14.4339 138.248 14.306 138.314 14.1853C138.444 14.5996 138.383 15.1181 138.911 15.3217C138.916 15.3903 138.916 15.4684 138.916 15.5537Z" fill="black"/>
<path id="Vector_58" d="M152.433 26.4697C152.449 26.6986 152.409 26.928 152.317 27.1383C152.225 27.3485 152.084 27.5334 151.905 27.677C151.871 27.2249 151.853 26.7703 151.81 26.3182C151.706 25.2102 151.691 24.1165 152.421 23.1696C152.428 24.268 152.428 25.3712 152.433 26.4697Z" fill="black"/>
<path id="Vector_59" d="M150.915 31.7276C150.402 32.1311 149.761 32.3369 149.109 32.3076C149.507 31.4837 150.239 31.6968 150.915 31.7276Z" fill="black"/>
<path id="Vector_60" d="M147.957 32.852C147.828 33.0238 147.656 33.159 147.459 33.2445C147.262 33.33 147.046 33.3628 146.832 33.3397C147.076 32.8639 147.495 32.8071 147.957 32.852Z" fill="black"/>
<path id="Vector_61" d="M152.459 31.1333C152.281 31.7489 151.914 31.9761 151.303 31.6967C151.547 31.2162 151.971 31.1073 152.459 31.1333Z" fill="black"/>
<path id="Vector_62" d="M149.109 32.3076C149.101 32.3761 149.078 32.442 149.041 32.5002C149.004 32.5584 148.955 32.6074 148.896 32.6435C148.837 32.6796 148.771 32.7018 148.702 32.7084C148.634 32.715 148.565 32.7059 148.5 32.6817L149.109 32.3076Z" fill="black"/>
<path id="Vector_63" d="M223.099 54.3242C223.082 54.7892 223.041 55.253 222.976 55.7139C222.929 55.9766 222.763 56.256 222.431 56.2299C222.347 56.2145 222.266 56.1811 222.196 56.1321C222.125 56.0831 222.066 56.0196 222.021 55.9459C221.881 55.7024 221.786 55.4352 221.742 55.1575C221.268 51.4644 220.638 47.7855 220.643 44.045C220.664 43.8609 220.701 43.6788 220.752 43.5006C220.797 43.2638 220.927 43.1431 221.114 43.2354C221.259 43.3135 221.462 43.4224 221.498 43.5526C222.178 46.0763 222.498 48.6662 222.829 51.2514C222.964 52.267 223.012 53.2991 223.099 54.3242Z" fill="black"/>
<path id="Vector_64" d="M151.038 18.127C150.032 16.7895 148.923 15.5229 148.008 14.138C146.502 11.8416 143.389 11.4889 141.176 13.236C140.378 13.8681 139.667 14.6186 138.921 15.3146C138.899 15.3903 138.878 15.4637 138.857 15.5513C138.2 17.9447 137.168 20.2198 136.518 22.6179C136.349 23.2063 136.214 23.8039 136.113 24.4077C136.127 25.5251 136.082 26.6496 136.165 27.7646C136.258 29.0028 137.03 29.7793 138.151 30.2575C139.114 30.6505 140.193 30.6505 141.157 30.2575C144.223 29.1338 147.282 27.9943 150.335 26.839C151.498 26.3987 151.434 26.3655 151.441 24.9451C151.441 23.9603 150.892 22.8997 151.756 22.0024C151.786 21.9314 151.813 21.8587 151.834 21.7846C152.294 20.4376 151.863 19.2421 151.038 18.127ZM150.612 24.0076C150.508 25.6813 149.513 26.491 148.056 26.9574C145.826 27.6676 143.68 28.6287 141.451 29.3247C138.463 30.2575 136.95 29.1377 136.815 26.0388C136.784 25.3878 136.85 24.7297 136.8 24.081C136.757 23.8706 136.725 23.658 136.706 23.4442C138.106 21.0129 138.973 18.4182 138.925 15.5418C139.963 15.5418 140.565 14.6967 141.316 14.1427C143.799 12.3151 145.625 12.5826 147.615 14.853C149.435 16.9315 150.913 19.171 151.706 21.8272C150.685 22.1942 150.655 23.153 150.603 24.0076H150.612Z" fill="black"/>
</g>
<defs>
<clipPath id="clip0_66_139">
<rect width="253" height="218" fill="white"/>
</clipPath>
</defs>
</svg>
