<svg width="362" height="204" viewBox="0 0 362 204" fill="none" xmlns="http://www.w3.org/2000/svg">
<g clip-path="url(#clip0_66_1226)">
<path d="M359.389 192.453C357.178 192.252 354.97 192.016 352.756 191.825C350.946 191.68 349.111 191.394 347.317 191.542C344.924 191.737 342.556 191.567 340.182 191.495C336.732 191.391 333.281 191.181 329.812 191.046C325.732 190.922 321.649 191.027 317.58 191.36C316.74 191.423 315.893 191.605 315.071 191.548C312.875 191.401 310.655 191.485 308.456 191.548C306.32 191.605 304.178 191.517 302.033 191.705C300.063 191.875 298.071 191.84 296.089 192.048C293.323 192.337 290.522 191.935 287.759 192.45C287.362 192.482 286.964 192.474 286.57 192.425C286.175 192.425 285.779 192.377 285.384 192.393C283.926 192.447 282.48 192.82 280.993 192.56C280.789 192.525 280.557 192.676 280.335 192.71C279.949 192.812 279.55 192.854 279.152 192.836C278.173 192.673 277.223 192.883 276.263 192.949C275.128 193.021 273.996 193.128 272.86 193.166C271.051 193.223 269.235 193.119 267.437 193.452C267.267 193.469 267.096 193.469 266.926 193.452C264.492 193.398 262.058 193.27 259.64 193.725C259.186 193.764 258.729 193.758 258.276 193.706C257.826 193.658 257.372 193.651 256.921 193.687C254.173 194.137 251.36 193.86 248.622 194.432C248.396 194.459 248.168 194.471 247.941 194.466C247.204 194.51 246.47 194.564 245.745 194.605C245.466 194.605 245.187 194.605 244.908 194.605C244.281 194.605 243.653 194.583 243.045 194.605C242.361 194.636 241.684 194.74 241 194.759C238.496 194.781 235.999 195.016 233.535 195.462C233.249 195.489 232.962 195.489 232.676 195.462C233.14 194.083 233.14 194.083 232.538 192.635C232.877 192.712 233.22 192.767 233.567 192.798C234.24 192.853 234.917 192.847 235.59 192.78C235.86 192.756 236.121 192.671 236.353 192.529C236.585 192.388 236.781 192.194 236.926 191.964C237.071 191.734 237.16 191.473 237.187 191.203C237.214 190.932 237.179 190.659 237.082 190.405C236.803 189.481 236.565 188.451 235.982 187.738C235.276 186.88 234.645 185.935 233.73 185.225C231.216 183.337 228.345 181.98 225.292 181.236C221.89 180.311 218.398 179.757 214.876 179.583C214.365 179.564 213.857 179.483 213.349 179.426C212.841 179.37 212.22 179.593 211.68 179.291C211.64 179.118 211.614 178.941 211.602 178.763C211.641 177.507 211.69 176.257 211.746 175.013C211.784 174.168 211.871 173.32 211.887 172.472C211.909 171.052 211.966 169.626 211.887 168.209C211.768 166.324 211.439 164.48 211.36 162.608C211.269 160.51 211.36 158.402 211.36 156.297C211.36 155.958 211.36 155.616 211.36 155.277C211.332 153.797 211.257 152.318 211.282 150.838C211.289 150.272 211.429 149.716 211.69 149.214C212.26 148.171 212.831 147.113 213.76 146.315C214.182 145.937 214.536 145.488 214.804 144.989C215.149 144.361 215.447 143.654 216.197 143.271C217.63 146.293 218.794 149.374 220.371 152.261C220.471 152.528 220.557 152.799 220.629 153.075C221.008 154.017 221.256 155.06 221.836 155.87C222.463 156.759 222.677 157.717 222.902 158.697C222.937 158.979 223.006 159.255 223.106 159.52C224.254 161.81 224.938 164.282 225.895 166.648C226.321 167.703 226.682 168.79 227.206 169.789C228.278 171.856 229.401 173.891 230.577 175.905C231.49 177.476 232.513 178.955 234.341 179.674C234.801 179.883 235.291 180.016 235.793 180.07C238.284 180.212 240.36 179.197 242.126 177.598C243.965 175.995 245.686 174.262 247.276 172.412C248.844 170.527 250.45 168.699 251.858 166.695C253.391 164.513 254.944 162.342 256.516 160.183C258.022 158.126 259.838 156.294 260.935 153.948C260.988 153.847 261.053 153.752 261.127 153.665C261.836 152.723 262.569 151.78 263.25 150.794C264.157 149.494 265.019 148.162 265.904 146.846C266.976 145.253 267.723 143.447 269.15 142.083C269.545 141.707 269.777 141.141 270.056 140.657C270.724 139.533 271.336 138.371 272.054 137.281C272.911 135.94 273.653 134.528 274.272 133.062C275.062 131.227 276.187 129.555 277.59 128.133C278.788 126.933 279.419 125.413 280.124 123.94C280.331 123.506 280.266 122.935 280.3 122.426C280.301 122.18 280.287 121.935 280.256 121.691C281.451 120.645 282.555 119.655 284.051 119.294C285.542 118.927 286.995 118.425 288.395 117.796C288.637 117.753 288.884 117.753 289.126 117.796C289.126 118.506 289.192 119.131 289.167 119.753C289.082 121.735 288.972 123.72 288.869 125.702C288.8 127.059 289.427 127.599 290.751 127.323C290.917 127.288 291.08 127.235 291.243 127.185C293.621 126.412 295.989 125.614 298.379 124.873C300.223 124.31 302.073 123.739 303.958 123.356C306.468 122.847 309.04 122.815 311.593 122.658C312.954 122.577 314.35 122.752 315.67 122.514C317.627 122.165 319.547 122.372 321.435 122.671C324.684 123.183 327.946 123.613 331.177 124.282C334.235 124.91 337.284 125.539 340.207 126.644C341.002 126.94 341.768 127.308 342.496 127.744C343.237 128.199 344.065 128.023 344.444 127.116C344.651 126.531 344.812 125.932 344.924 125.322C344.999 125.008 345.018 124.65 345.071 124.31C345.711 120.332 346.35 116.353 346.988 112.374L348.079 105.642C348.242 104.631 348.409 103.619 348.572 102.608C349.039 99.7525 349.284 96.8437 350.579 94.1799C350.712 93.8079 350.734 93.4051 350.642 93.0208C350.584 92.6804 350.455 92.3561 350.262 92.0696C350.07 91.7831 349.818 91.5409 349.525 91.3591C348.377 90.6429 347.248 89.7885 345.984 89.377C344.648 88.9435 343.368 88.3467 341.976 88.0231C339.492 87.4452 337.089 86.5091 334.605 85.9248C332.237 85.3657 329.916 84.6181 327.52 84.1595C325.951 83.8453 324.383 83.7762 322.787 83.6035C317.881 83.0182 312.918 83.1346 308.045 83.949C305.919 84.3197 303.77 84.5773 301.744 85.3814C301.368 85.5128 300.984 85.6178 300.593 85.6955C299.116 86.0953 297.675 86.6207 296.287 87.2661C295.919 87.4106 295.577 87.6132 295.274 87.8661C294.123 88.887 292.946 89.8325 291.369 90.1152C291.045 90.2229 290.741 90.382 290.469 90.5864C289.286 91.2586 288.1 91.934 286.905 92.5654C284.647 93.7653 282.423 95.0092 280.272 96.3882C279.795 96.7023 279.284 96.9505 278.795 97.2395C278.598 97.3505 278.413 97.4787 278.239 97.6227C277.509 98.251 276.765 98.8792 276.06 99.5294C274.601 100.886 273.152 102.256 272.199 104.05C271.907 104.602 271.552 105.121 271.258 105.674C270.859 106.418 270.63 107.323 270.072 107.901C269.461 108.485 268.894 109.115 268.378 109.785C267.55 110.938 266.738 112.11 265.869 113.241C264.11 115.617 262.198 117.877 260.145 120.004C258.985 121.176 257.818 122.335 256.654 123.503C256.011 124.131 255.343 124.76 254.738 125.435C253.712 126.572 252.79 127.807 251.714 128.89C249.795 130.835 248.129 132.996 246.338 135.05C245.095 136.47 244.069 138.066 243.293 139.787C242.919 139.055 242.487 138.531 242.408 137.987C242.239 136.731 241.612 135.622 241.329 134.413C241.176 133.753 241.097 133.074 241 132.405C240.925 131.906 240.921 131.388 240.799 130.901C240.441 129.291 239.928 127.721 239.265 126.211C238.519 124.618 237.911 122.963 237.233 121.339C237.116 121.081 236.977 120.834 236.816 120.601C235.859 119.127 234.89 117.661 233.937 116.184C233.755 115.901 233.623 115.578 233.46 115.283C232.983 114.447 232.519 113.596 232.008 112.789C231.139 111.45 230.279 110.118 229.778 108.586C229.611 108.226 229.41 107.883 229.178 107.562C228.065 105.583 226.854 103.654 225.888 101.593C225.375 100.584 224.793 99.6122 224.145 98.6844C223.931 98.3703 223.652 98.0751 223.426 97.7421C222.52 96.4448 221.936 94.915 220.676 93.8627C220.597 93.7794 220.53 93.6852 220.478 93.5831C219.537 92.1601 218.662 90.6963 217.655 89.3268C216.787 88.0605 215.764 86.9081 214.61 85.8965C213.951 85.3562 213.295 84.8097 212.671 84.2317C211.486 83.1354 210.2 82.2465 208.544 82.0329C208.281 81.9684 208.028 81.8702 207.791 81.7407C207.807 81.5522 207.791 81.4266 207.832 81.3449C208.606 80.1261 208.428 78.7 208.7 77.3744C208.728 77.148 208.696 76.9183 208.606 76.7085C208.214 75.6405 207.832 74.5662 207.386 73.517C207.22 73.0296 206.943 72.5875 206.577 72.226C205.081 71.0072 203.873 69.4209 202.079 68.579C201.138 68.1424 200.941 67.3697 201.044 66.4556C201.105 66.1184 201.192 65.7866 201.305 65.463C201.913 63.2233 202.475 60.9679 203.152 58.747C203.698 56.9471 203.579 55.166 203.318 53.3598C203.229 52.621 202.955 51.9166 202.522 51.3118C202.355 51.0856 202.224 50.8374 202.026 50.5202C202.587 49.3456 202.968 48.0928 203.155 46.8041C203.281 45.9748 203.745 45.2147 204.799 45.0827C205.237 44.9846 205.652 44.8033 206.022 44.5487C206.729 44.0802 207.397 43.555 208.02 42.9781C209.732 41.5771 211.119 40.0002 211.784 37.8517C211.878 37.6442 211.982 37.4419 212.097 37.2454C213.311 34.3555 213.876 31.3902 213.148 28.2741C213.073 28.0584 213.029 27.8331 213.016 27.605C213.063 27.2766 213.135 26.9522 213.23 26.6344C212.166 26.0393 210.955 25.7593 209.739 25.8271C208.544 25.8679 207.349 25.9056 206.157 25.9873C205.529 26.0281 204.924 26.1569 204.306 26.2386C204.037 26.2731 203.767 26.2857 203.532 26.3077C203.023 25.0983 203.017 25.0952 203.343 24.3099C203.469 23.9929 203.621 23.6871 203.798 23.3958C204.777 21.8597 205.031 20.1069 205.194 18.3698C205.238 17.5712 205.078 16.7745 204.73 16.0547C204.156 14.8265 203.594 13.57 202.7 12.5209C202.073 11.7858 201.446 11.0414 200.784 10.3503C199.755 9.28856 198.77 8.15144 197.613 7.2562C195.919 5.93375 194.091 4.77778 192.306 3.57156C191.936 3.32026 191.481 3.19461 191.108 2.94331C190.15 2.34115 189.135 1.83407 188.078 1.42927C186.699 0.910407 185.278 0.508981 183.831 0.2293C182.493 -0.0633422 181.116 -0.135468 179.754 0.0157185C177.492 0.263875 175.24 0.596848 172.988 0.923534C170.078 1.34446 167.434 2.49411 164.9 3.94849C163.329 4.8624 161.816 5.87051 160.367 6.96723C158.433 8.37811 156.721 10.0724 155.289 11.9932C153.746 14.1072 152.263 16.2683 150.864 18.4798C149.217 21.087 147.815 23.845 147.05 26.8417C146.212 30.1557 145.716 33.5472 145.569 36.9627C145.525 37.5849 145.45 38.2045 145.344 38.8191C145.014 40.8412 144.489 42.8264 143.775 44.7466C143.299 46.0816 142.907 47.4575 142.207 48.692C141.555 49.8228 140.952 51.0102 140.106 51.9966C138.635 53.7242 137.004 55.3137 135.445 56.9659C135.116 57.2811 134.816 57.6248 134.548 57.9931C133.293 59.947 131.756 61.7218 130.718 63.8232C129.987 65.3028 129.087 66.7226 128.974 68.4188C128.899 69.6089 128.886 70.8021 128.937 71.9935C128.993 73.6395 129.184 75.2824 129.197 76.9284C129.223 78.3564 128.9 79.7691 128.256 81.0434C127.528 82.4852 126.478 83.6914 125.465 84.9071C124.274 86.3561 123.232 87.9221 122.356 89.5812C121.306 91.5319 120.264 93.4857 119.204 95.4302C118.229 97.2175 117.667 99.0991 117.865 101.157C117.94 101.951 117.993 102.749 118.113 103.534C118.308 104.605 118.233 105.708 117.893 106.742C117.498 107.87 117.04 108.975 116.522 110.052C115.76 111.623 115.268 113.231 115.581 114.997C115.64 115.277 115.667 115.562 115.663 115.848C115.657 116.132 115.602 116.412 115.5 116.677C115.13 117.569 114.728 118.449 114.33 119.329C113.675 120.77 112.894 122.156 112.705 123.78C112.623 124.111 112.506 124.433 112.357 124.741C111.592 127.002 110.704 129.233 110.115 131.538C109.719 133.074 109.083 134.548 108.885 136.134C108.809 136.468 108.704 136.795 108.572 137.111C108.233 138.232 107.631 139.278 107.602 140.497C107.558 140.715 107.487 140.926 107.389 141.125C107.245 141.609 107.1 142.096 106.969 142.583C106.882 143.028 106.769 143.468 106.63 143.899C105.949 145.548 105.72 147.307 105.322 149.026C105.008 150.351 104.739 151.686 104.444 153.015C104.331 153.514 104.177 154.004 104.099 154.51C103.757 156.756 103.472 159.021 103.089 161.257C102.706 163.494 102.427 165.759 102.248 168.03C102.192 168.762 101.9 169.487 101.935 170.229C101.944 171.138 101.832 172.044 101.602 172.924C101.546 173.26 101.514 173.601 101.505 173.942C101.289 176.426 101.132 178.917 100.821 181.39C100.693 182.407 100.617 183.419 100.577 184.437C100.591 185.006 100.56 185.575 100.486 186.139C100.078 187.969 99.8625 189.837 99.8427 191.712C99.8615 193.235 99.482 194.768 100.028 196.285C100.207 196.788 100.112 197.391 100.147 198.066C99.4129 198.066 98.7637 198.186 98.1834 198.038C97.2425 197.805 96.38 197.925 95.4767 198.038C95.0269 198.077 94.5746 198.077 94.1249 198.038C93.4976 198.003 92.886 197.878 92.2681 197.887C91.531 197.887 90.8002 198.051 90.0726 198.082C87.9209 198.182 85.7724 198.164 83.6145 198.428C81.8957 198.638 80.1205 198.55 78.3703 198.672C76.4606 198.778 74.5466 198.778 72.6368 198.672C71.5046 198.629 70.3723 198.638 69.24 198.651C68.0513 198.651 66.8595 198.716 65.6707 198.745C65.444 198.732 65.2168 198.732 64.9901 198.745C63.8025 198.869 62.6052 198.869 61.4176 198.745C60.163 198.666 58.9304 198.826 57.6821 198.855C57.1176 198.855 56.5498 198.801 55.9821 198.773C55.422 198.71 54.8582 198.686 54.2947 198.701C51.3507 198.96 48.3925 199.02 45.4404 198.88C44.4368 198.833 43.4048 198.698 42.4011 199.068C42.0169 199.185 41.61 199.207 41.2156 199.131C39.0012 198.782 36.8245 199.364 34.629 199.373C33.7226 199.373 32.8223 199.577 31.9128 199.649C31.0032 199.722 30.1156 199.753 29.2154 199.778C28.3153 199.803 27.4935 200.152 26.5588 199.998C25.8029 199.872 24.9906 200.19 24.1971 199.97C23.9149 199.946 23.6307 199.976 23.3596 200.058C22.8592 200.166 22.352 200.238 21.8416 200.274C20.1371 200.277 18.4367 200.442 16.7635 200.768C16.5377 200.794 16.3104 200.807 16.0829 200.805C14.5586 200.922 13.0625 201.236 11.5319 201.333C9.27051 201.474 7.01857 201.789 4.7603 202.027C4.70385 202.027 4.64738 202.027 4.59092 202.027C3.28614 202.137 1.98452 202.241 0.682878 202.367C0.300228 202.407 -0.0479213 202.769 0.0555825 203.033C0.159086 203.296 0.369206 203.573 0.57935 203.604C1.64575 203.761 2.73725 204.003 3.7911 203.899C4.69198 203.816 5.59788 203.801 6.50099 203.855C7.41057 203.903 8.33588 204.028 9.22351 203.903C10.4064 203.767 11.5959 203.697 12.7865 203.692C15.233 203.617 17.6795 203.576 20.1259 203.557L33.7978 202.847C34.3404 202.654 34.918 202.58 35.4915 202.63C36.3854 202.63 37.2824 202.63 38.1763 202.63C40.1115 202.596 42.0467 202.502 43.9788 202.37C45.1612 202.288 46.3468 202.272 47.5324 202.26C48.718 202.247 49.9193 202.31 51.108 202.285C52.3626 202.26 53.6015 202.178 54.8436 202.109C55.6371 202.065 56.4119 201.993 57.2179 201.943C58.2403 201.935 59.257 201.792 60.2415 201.515C60.6292 201.428 61.027 201.394 61.4239 201.415C62.5029 201.371 63.585 201.358 64.6671 201.299C66.7625 201.163 68.8647 201.173 70.9588 201.327C72.4235 201.443 73.8851 201.795 75.3499 201.741C77.1 201.675 78.8377 202.222 80.5816 201.77C80.6894 201.733 80.8046 201.723 80.9171 201.741C82.5042 202.153 84.0819 201.691 85.6658 201.691C87.2497 201.691 88.843 201.481 90.4332 201.377C90.943 201.322 91.4572 201.322 91.9669 201.377C92.7538 201.479 93.5519 201.457 94.3318 201.311C94.8923 201.244 95.4604 201.282 96.0068 201.424C96.933 201.671 97.909 201.66 98.8296 201.393C99.646 201.153 100.489 201.013 101.339 200.978C101.848 200.968 102.349 201.1 102.788 201.358C103.78 201.919 104.872 202.281 106.003 202.423C108.532 202.832 111.09 203.035 113.653 203.029C115.475 203.029 117.297 202.954 119.116 202.985C121.158 203.017 123.194 203.161 125.236 203.205C129.438 203.296 133.648 203.45 137.85 203.387C140.413 203.35 142.95 203.598 145.5 203.632C146.52 203.632 147.542 203.61 148.565 203.632C149.819 203.658 151.043 203.435 152.31 203.598C153.476 203.749 154.681 203.629 155.866 203.598C157.915 203.557 159.96 203.491 162.005 203.447C164.451 203.394 166.897 203.365 169.344 203.312C172.985 203.234 176.63 203.485 180.262 203.058C182.533 203.252 184.791 202.866 187.062 202.97C188.539 203.036 190.023 203.014 191.5 202.97C192.425 202.938 193.278 202.656 193.852 201.829C194.106 201.459 194.429 201.138 194.793 200.714C196.506 201.028 198.221 200.607 199.962 200.359C202.498 200.007 205.052 199.797 207.612 199.731C209.212 199.684 210.783 199.847 212.361 199.948C213.145 199.998 213.91 200.29 214.691 200.435C215.748 200.633 216.811 200.856 217.881 200.953C218.136 200.974 218.393 200.941 218.635 200.856C218.876 200.772 219.098 200.638 219.285 200.463C219.472 200.288 219.621 200.076 219.721 199.84C219.822 199.604 219.872 199.35 219.869 199.093C219.855 198.557 219.811 198.023 219.738 197.491C220.189 197.595 220.56 197.664 220.92 197.768C222.065 198.098 223.194 198.484 224.351 198.76C224.845 198.899 225.368 198.887 225.854 198.726C227.422 198.038 229.097 198.198 230.728 198.195C231.813 198.195 232.88 198.148 233.955 198.044C234.918 197.95 235.887 197.909 236.854 197.903C238.441 197.903 240.037 197.831 241.615 197.966C243.726 198.148 245.799 197.652 247.906 197.796C248.622 197.846 249.359 197.62 250.086 197.554C252.799 197.306 255.519 197.18 258.241 197.149C259.938 197.13 261.632 196.835 263.329 196.703C263.89 196.628 264.459 196.621 265.022 196.684C266.277 196.891 267.531 196.759 268.764 196.665C269.607 196.554 270.457 196.497 271.308 196.496C272.957 196.549 274.608 196.471 276.245 196.26C276.414 196.26 276.583 196.222 276.756 196.213C279.265 196.112 281.752 196.021 284.221 195.585C284.611 195.5 285.013 195.482 285.409 195.531C286.937 195.798 288.452 195.503 289.97 195.494C290.366 195.465 290.759 195.408 291.146 195.321C291.414 195.229 291.694 195.183 291.977 195.183C293.461 195.465 294.922 195.019 296.4 195.098C297.413 195.151 298.438 195.183 299.433 194.809C299.821 194.711 300.224 194.688 300.621 194.74C301.917 194.787 303.218 194.991 304.482 194.517C306.013 194.938 307.522 194.463 309.043 194.432C309.438 194.462 309.83 194.516 310.219 194.592C310.551 194.664 310.893 194.673 311.229 194.62C312.236 194.306 313.255 194.407 314.277 194.372C315.41 194.334 316.542 194.124 317.671 194.137C318.916 194.172 320.161 194.067 321.382 193.822C321.604 193.775 321.833 193.766 322.056 193.731C323.072 193.571 324.057 194.002 325.101 193.782C326.104 193.606 327.125 193.554 328.141 193.625C330.289 193.706 332.438 193.901 334.586 193.995C336.343 194.074 338.105 194.067 339.862 194.099C340.31 194.099 340.771 194.017 341.198 194.181L346.329 194.356C346.364 194.303 346.403 194.253 346.445 194.206C347.766 194.049 349.001 193.892 350.244 193.756C351.658 193.615 353.066 193.461 354.49 193.408C356.197 193.345 357.906 193.408 359.612 193.373C360.393 193.373 361.209 193.455 362.049 192.88C361.176 192.666 360.286 192.523 359.389 192.453ZM209.936 29.1097C210.177 29.0477 210.422 29.0088 210.67 28.9934C211.05 30.0929 210.874 31.1703 210.808 32.2132C210.673 34.3492 209.676 36.2057 208.845 38.1344C207.982 40.129 206.383 41.329 204.792 42.5917C204.604 42.7425 204.309 42.7582 203.902 42.9059C204.482 39.061 203.839 35.3921 204.024 31.5441C204.062 31.4487 204.135 31.3713 204.228 31.3273C206.126 30.5734 208.026 29.8373 209.927 29.1191L209.936 29.1097ZM203.873 28.2521C204.913 28.0299 205.97 27.8944 207.032 27.8469C206.054 28.4861 204.959 28.9229 203.811 29.1316C203.45 28.7484 203.488 28.3463 203.873 28.2615V28.2521ZM294.411 90.9571C294.44 90.8401 294.483 90.7272 294.54 90.6209C296.149 89.9142 297.645 89.2451 299.15 88.598C301.284 87.6575 303.531 87.0006 305.834 86.6441C307.349 86.4211 308.864 86.1918 310.382 86.0159C311 85.9337 311.625 85.9033 312.248 85.9248C313.992 85.9939 315.736 85.8149 317.486 86.085C319.33 86.3677 321.212 86.3834 323.066 86.6159C324.471 86.7918 325.861 87.0996 327.247 87.398C328.075 87.5771 328.887 87.8473 329.7 88.0923C330.129 88.2211 330.543 88.4064 330.973 88.5289C331.39 88.6855 331.827 88.7786 332.271 88.8053C332.987 88.7865 333.598 89.0535 334.235 89.2891C334.975 89.5655 335.725 89.8356 336.487 90.0461C337.741 90.3979 339.021 90.6555 340.251 91.0418C340.79 91.2115 341.283 91.4973 341.879 91.4376C342.049 91.4428 342.217 91.4835 342.371 91.557C343.378 91.9402 344.407 92.2763 345.382 92.7287C346.288 93.1496 347.295 93.4606 347.891 94.4501C347.791 94.915 347.788 95.4741 347.549 95.8982C346.95 96.9725 346.79 98.163 346.542 99.3221C346.229 100.764 346.056 102.234 345.846 103.698C345.576 105.554 345.332 107.414 345.078 109.273C345.018 109.723 344.971 110.175 344.915 110.624C344.419 114.57 343.942 118.521 343.409 122.463C343.234 123.385 343.006 124.295 342.725 125.19C342.315 125.148 341.91 125.063 341.518 124.936C339.551 124.031 337.575 123.158 335.468 122.633C334.357 121.882 332.983 121.892 331.785 121.377C331.157 121.125 330.494 120.969 329.819 120.915C328.069 120.73 326.369 120.177 324.59 120.192C323.626 120.155 322.664 120.062 321.711 119.913C320.017 119.734 318.339 119.564 316.627 119.875C315.469 120.089 314.265 120.06 313.082 120.145C311.389 120.268 309.695 120.381 308.005 120.519C307.333 120.576 306.665 120.689 305.997 120.786C302.563 121.264 299.195 122.136 295.96 123.387C294.897 123.783 293.806 124.103 292.736 124.486C292.062 124.725 291.406 125.017 290.581 125.353C290.657 124.078 290.556 122.963 290.685 121.835C290.776 120.987 290.804 120.133 290.766 119.281C290.685 117.12 290.606 114.956 290.431 112.801C290.277 110.916 290.007 109.069 289.766 107.207C289.496 105.115 289.217 103.026 288.907 100.943C288.809 100.296 289.092 99.8561 289.474 99.4132C290.218 98.5525 291.008 97.7264 291.67 96.806C292.99 95.0785 293.925 93.0871 294.411 90.9665V90.9571ZM276.564 102.184C277.392 101.267 278.446 100.547 279.478 99.8341C281.047 98.7347 282.684 97.6949 284.318 96.6929C285.136 96.184 286.04 95.8165 286.871 95.3265C288.38 94.4344 289.863 93.5014 291.488 92.4994C291.494 92.7096 291.48 92.9199 291.447 93.1276C291.033 94.538 290.133 95.6689 289.145 96.6772C287.956 97.8897 287.326 99.4132 286.538 100.846C286.328 101.229 286.077 101.769 286.564 102.363L288.085 100.993C288.477 105.705 288.693 110.235 289.085 114.815C287.225 115.308 285.707 116.357 284.039 117.013C282.729 117.55 281.537 118.337 280.529 119.332C280.159 119.674 279.855 120.086 279.447 120.547C278.478 119.203 278.261 117.576 277.414 116.25C276.568 114.925 275.953 113.552 275.119 112.273C274.284 110.995 273.237 109.72 272.22 108.344C273.393 106.112 274.854 104.044 276.564 102.193V102.184ZM207.377 84.2788C207.763 84.3749 208.134 84.5228 208.481 84.7186C210.536 85.8224 212.424 87.2132 214.089 88.8493C215.281 90.0624 216.339 91.401 217.244 92.8418C217.903 93.8847 218.474 94.981 219.292 95.9422C220.889 97.8269 221.927 100.051 223.056 102.225C223.467 103.029 223.683 103.949 224.207 104.678C225.148 106.032 225.656 107.605 226.541 108.991C227.297 110.178 227.751 111.554 228.344 112.845C229.426 115.204 230.577 117.522 232.158 119.602C232.56 120.133 232.785 120.786 233.146 121.367C233.519 121.995 233.927 122.624 234.322 123.233C234.461 123.413 234.588 123.602 234.702 123.798C235.436 125.388 236.168 126.982 236.897 128.579C236.981 128.727 237.043 128.886 237.082 129.051C237.28 130.279 237.465 131.51 237.65 132.741C237.646 132.968 237.683 133.194 237.76 133.407C238.368 134.403 238.466 135.562 238.839 136.63C239.435 138.345 240.354 139.916 241.273 141.474C241.862 142.47 242.302 142.702 243.619 143.148C243.933 142.52 244.246 141.892 244.56 141.229C245.626 138.986 247.22 137.145 248.901 135.352C249.528 134.689 250.121 133.998 250.729 133.323C251.485 132.484 252.213 131.614 253.006 130.81C254.371 129.434 255.594 127.939 256.82 126.44C257.683 125.388 258.724 124.483 259.643 123.487C261.353 121.662 263.093 119.872 264.721 117.968C265.802 116.648 266.799 115.26 267.704 113.813C268.572 112.461 269.546 111.179 270.615 109.98C271.606 110.869 272.183 111.994 272.851 113.034C273.739 114.416 274.554 115.842 275.36 117.265C275.656 117.759 275.891 118.286 276.063 118.835C276.417 120.224 277.155 121.485 278.192 122.473C277.286 124.464 275.972 126.104 274.689 127.772C274.137 128.491 273.66 129.267 273.158 130.024C272.813 130.543 272.484 131.074 272.151 131.595C271.984 131.824 271.835 132.067 271.706 132.321C270.817 134.289 269.748 136.172 268.513 137.943C267.795 139.03 267.193 140.196 266.452 141.267C265.389 142.803 264.436 144.408 263.291 145.894C262.664 146.695 262.331 147.703 261.751 148.539C260.716 150.034 259.587 151.46 258.514 152.936C257.915 153.763 257.344 154.611 256.773 155.449C256.146 156.392 255.638 157.453 254.86 158.251C254.082 159.049 253.499 160.058 252.809 160.953C252.05 161.939 251.325 162.954 250.613 163.975C248.996 166.312 247.231 168.544 245.328 170.656C244.453 171.617 243.39 172.418 242.584 173.427C241.539 174.74 240.216 175.695 238.927 176.709C238.415 177.075 237.82 177.307 237.195 177.384C236.775 177.473 236.34 177.461 235.926 177.349C235.511 177.236 235.129 177.027 234.812 176.737C234.093 176.109 233.369 175.434 232.986 174.507C232.939 174.342 232.875 174.183 232.798 174.03C232.171 173.024 231.371 172.085 230.916 171.008C230.461 169.93 229.975 168.809 229.473 167.747C228.714 166.177 227.958 164.584 227.337 162.929C226.945 161.886 226.71 160.73 225.951 159.844C225.87 159.762 225.81 159.662 225.775 159.552C225.462 157.793 224.192 156.411 223.796 154.67C223.605 153.819 222.953 153.071 222.542 152.267C221.858 150.957 221.193 149.635 220.516 148.322C219.813 146.959 219.107 145.597 218.398 144.238C218.035 143.535 217.636 142.847 217.32 142.121C217.215 141.805 217.194 141.467 217.26 141.141C217.31 140.804 217.416 140.478 217.574 140.177C218.088 139.194 218.185 138.132 218.345 137.054C218.687 134.746 218.166 132.528 217.815 130.288C217.744 130.013 217.696 129.733 217.671 129.449C217.696 127.763 217.122 126.208 216.67 124.621C216.422 123.748 216.228 122.859 216.043 121.973C215.811 120.921 215.729 119.822 215.184 118.857C215.108 117.287 214.243 115.945 213.951 114.431C213.767 113.717 213.499 113.027 213.151 112.377C213.088 112.29 213.004 112.22 212.907 112.172C212.81 112.125 212.704 112.103 212.596 112.107C212.493 112.14 212.399 112.195 212.319 112.268C212.239 112.34 212.175 112.429 212.132 112.528C212.005 112.783 211.939 113.063 211.937 113.348C211.903 113.978 211.943 114.611 212.057 115.232C212.348 116.395 212.514 117.576 212.715 118.754C213.085 120.953 213.521 123.117 214.061 125.265C214.688 127.753 215.002 130.291 215.34 132.804C215.501 133.634 215.606 134.474 215.654 135.317C215.661 136.157 215.616 136.996 215.519 137.83C215.4 138.773 214.936 139.649 214.594 140.547C214.236 141.5 213.704 142.378 213.026 143.136C211.931 144.361 210.993 145.727 209.99 147.034C209.852 147.213 209.645 147.383 209.597 147.584C209.334 148.749 208.6 149.783 208.613 151.008C208.628 152.481 208.478 153.945 208.478 155.405C208.478 157.918 208.553 160.409 208.616 162.907C208.669 165.055 208.967 167.201 209.143 169.349C209.268 170.882 209.353 172.418 209.488 173.951C209.626 175.522 209.801 177.124 209.958 178.71C209.98 178.924 209.999 179.14 210.027 179.433C209.692 179.533 209.349 179.602 209.002 179.64C204.883 179.671 200.881 180.435 196.939 181.565C196.02 181.829 195.518 181.408 195.703 180.431C195.809 179.863 195.907 179.345 195.678 178.767C195.537 178.421 195.634 177.981 195.606 177.585C195.527 176.511 195.709 175.409 195.258 174.378C195.474 172.61 194.74 170.923 194.787 169.158C194.834 167.392 194.473 165.668 194.301 163.921C194.279 163.692 194.254 163.466 194.241 163.24C194.138 161.141 194.022 159.043 193.928 156.957C193.89 155.993 193.877 155.025 193.928 154.061C194.106 150.496 194.241 146.93 194.263 143.362C194.263 141.163 194.222 138.939 194.166 136.731C194.116 134.702 194.041 132.676 194.019 130.646C193.99 128.093 193.705 125.539 193.579 122.982C193.482 121.097 193.457 119.212 193.36 117.346C193.238 114.956 193.075 112.569 192.943 110.181C192.973 109.951 193.034 109.726 193.125 109.512C194.379 110.514 195.145 111.761 196.104 112.836C196.356 113.145 196.626 113.439 196.914 113.715C197.149 113.927 197.447 114.057 197.763 114.085C198.078 114.113 198.394 114.039 198.664 113.872C199.373 113.385 200.047 112.858 199.918 111.818C199.884 111.421 199.922 111.021 200.028 110.637C200.389 109.176 200.307 107.703 200.254 106.223C200.175 104.025 200.172 101.791 200.132 99.5734C200.132 98.9452 200.103 98.3169 200.059 97.7138C199.978 96.5233 199.765 95.3327 199.802 94.1485C199.887 91.6104 199.222 89.1917 198.824 86.729C198.651 85.6609 198.438 84.5961 198.168 83.55C197.942 82.6768 197.61 81.8287 197.287 80.858C197.576 80.8083 197.87 80.7978 198.162 80.8266C199.671 81.1659 201.022 81.9261 202.443 82.504C204.036 83.1888 205.652 83.8862 207.377 84.2757V84.2788ZM182.614 177.629C182.109 175.66 182.244 173.668 182.2 171.68C182.202 169.528 182.064 167.378 181.786 165.244C181.739 164.736 181.73 164.226 181.761 163.717C181.794 163.491 181.807 163.263 181.799 163.035C181.441 161.135 181.579 159.194 181.328 157.281C181.199 156.093 181.15 154.897 181.184 153.703C181.233 152.228 181.182 150.751 181.034 149.283C181.007 149.115 181.007 148.943 181.034 148.774C181.306 147.351 180.983 145.947 181.034 144.518C181.128 140.887 180.808 137.265 180.839 133.634C180.839 132.273 180.811 130.913 181.099 129.55C181.2 129.069 181.071 128.542 181.056 128.036C180.997 126.288 181.121 124.538 181.426 122.815C181.444 122.702 181.444 122.586 181.426 122.473C180.971 119.646 181.319 116.797 180.946 113.966C180.631 111.78 180.181 109.614 179.6 107.483C179.406 106.735 178.873 106.082 178.499 105.382C178.186 104.782 177.872 104.178 177.602 103.682C178.161 102.19 178.6 100.78 179.208 99.4446C180.008 97.6855 180.529 95.8134 181.426 94.1045C181.705 93.48 181.949 92.8403 182.156 92.1884C183.725 88.1582 185.293 84.1249 186.861 80.1041C187.211 79.2637 187.613 78.4455 188.062 77.654C188.63 76.6048 189.094 76.5232 190.098 77.2708C190.782 77.7796 191.444 78.3199 192.112 78.8414C193.002 79.5513 193.881 80.2706 194.778 80.9743C195.136 81.2568 195.433 81.6083 195.653 82.0082C195.873 82.408 196.01 82.8479 196.057 83.3019C196.456 86.2327 196.75 89.1728 197.077 92.113C197.277 93.9223 197.183 95.7285 197.39 97.5316C197.563 99.0457 197.39 100.601 197.343 102.137C197.312 103.33 197.252 104.524 197.221 105.721C197.19 106.918 197.168 108.196 197.146 109.453C196.547 109.409 196.293 108.937 196.026 108.51C195.599 107.835 195.226 107.128 194.458 106.77C194.304 106.691 194.174 106.571 194.081 106.424C193.303 105.228 192.118 104.54 190.882 103.962C189.646 103.384 188.542 102.611 187.153 102.344C185.763 102.077 184.443 101.496 183.075 101.138C182.304 100.951 181.516 100.846 180.723 100.824C180.566 100.804 180.406 100.816 180.254 100.86C180.102 100.905 179.96 100.98 179.838 101.081C179.716 101.182 179.616 101.308 179.544 101.449C179.473 101.591 179.431 101.746 179.421 101.904C179.373 102.219 179.442 102.54 179.616 102.807C179.789 103.074 180.055 103.267 180.362 103.349C180.521 103.41 180.688 103.448 180.858 103.462C183.286 103.616 185.475 104.574 187.68 105.479C188.536 105.786 189.326 106.252 190.01 106.852C190.414 107.16 190.85 107.425 191.309 107.643C191.654 108.46 191.622 109.314 191.622 110.156C191.641 112.713 191.679 115.27 191.676 117.827C191.676 120.101 191.61 122.372 191.6 124.647C191.6 125.721 191.651 126.798 191.679 127.876C191.679 128.215 191.71 128.557 191.704 128.897C191.672 130.706 191.616 132.512 191.622 134.325C191.622 136.926 191.672 139.536 191.553 142.14C191.481 143.67 191.28 145.193 191.18 146.72C191.139 147.348 191.237 147.976 191.224 148.605C191.196 150.254 191.127 151.9 191.105 153.549C191.083 155.085 191.155 156.624 191.083 158.154C191.011 159.684 190.945 161.201 191.324 162.702C191.334 162.759 191.334 162.816 191.324 162.872C191.117 165.335 191.713 167.71 192.061 170.097C192.203 171.039 192.281 172.016 192.391 172.977C192.645 175.239 192.905 177.498 193.153 179.759C193.187 180.092 193.153 180.431 193.153 180.95C189.847 181.264 186.723 181.044 183.609 181.05C183.196 181.022 182.786 180.963 182.382 180.874C182.465 180.516 182.53 180.153 182.577 179.787C182.605 179.09 182.787 178.308 182.614 177.626V177.629ZM167.224 177.472C167.104 176.294 167.192 175.082 166.534 174.017C166.463 173.799 166.436 173.57 166.455 173.342C166.278 171.247 165.979 169.164 165.561 167.103C165.301 165.884 165.317 164.609 165.201 163.359C164.956 160.692 164.693 158.019 164.467 155.361C164.388 154.454 164.429 153.536 164.357 152.629C164.166 150.301 163.952 147.976 163.73 145.652C163.507 143.327 163.24 141.012 163.043 138.688C162.842 136.307 162.729 133.919 162.528 131.538C162.356 129.446 162.193 127.348 161.92 125.256C161.559 122.548 161.107 119.85 160.665 117.155C160.471 115.974 160.207 114.808 159.982 113.668C160.204 112.996 160.703 112.613 161.236 112.267C162.657 111.325 164.131 110.464 165.502 109.459C167.252 108.174 169.247 107.326 171.047 106.148C171.615 105.777 172.149 105.357 172.643 104.891C172.795 104.756 172.891 104.57 172.914 104.368C172.936 104.167 172.884 103.964 172.766 103.798C172.667 103.656 172.527 103.547 172.364 103.487C172.201 103.428 172.024 103.42 171.856 103.465C171.364 103.591 170.89 103.779 170.445 104.025C168.328 105.237 166.239 106.5 164.119 107.712C161.897 108.98 159.813 110.475 157.899 112.173C156.958 113.002 155.986 113.781 154.944 114.651C154.791 114.362 154.693 114.265 154.693 114.171C154.722 112.638 154.866 111.099 154.778 109.575C154.671 107.69 154.706 105.806 154.27 103.974C154.222 103.694 154.195 103.41 154.192 103.126C153.956 99.7179 153.712 96.316 152.899 92.9768C152.617 91.8209 152.526 90.6178 152.303 89.4461C151.911 87.3729 151.234 85.3783 150.597 83.371C150.528 83.1606 150.478 82.9438 150.434 82.7742C150.495 82.6535 150.572 82.5415 150.663 82.4412C150.835 82.292 151.024 82.1624 151.224 82.0548C152.448 81.4486 153.668 80.8392 154.907 80.2644C155.376 80.0777 155.855 79.9193 156.343 79.79L156.713 80.3806L157.777 79.9345C157.88 80.013 158.002 80.0602 158.059 80.1513C159.339 82.2025 161.173 83.7668 162.764 85.5447C163.777 86.6982 164.719 87.9119 165.586 89.1791C166.982 91.1832 168.293 93.2376 170.034 94.9809C171.244 96.171 172.319 97.4909 173.239 98.9169C173.839 99.8593 174.18 100.974 174.626 102.014C175.297 103.585 175.981 105.121 176.636 106.682C176.903 107.31 177.238 107.938 177.32 108.598C177.497 109.772 177.777 110.929 178.157 112.053C178.232 112.268 178.282 112.49 178.308 112.716C178.437 114.758 178.6 116.8 178.662 118.842C178.697 119.919 178.549 121.003 178.496 122.083C178.396 124.069 178.374 126.066 178.183 128.052C177.991 130.037 178.12 132.016 178.104 134.001C178.082 137.237 178.208 140.466 178.305 143.698C178.405 147.106 178.396 150.518 178.468 153.926C178.512 155.921 178.622 157.909 178.7 159.894C178.722 160.463 178.716 161.034 178.75 161.603C178.788 162.231 178.866 162.837 178.91 163.459C178.998 164.703 179.077 165.948 179.149 167.194C179.29 169.751 179.415 172.308 179.563 174.865C179.622 175.946 179.729 177.02 179.807 178.098C179.87 178.943 179.923 179.784 179.983 180.651C179.393 180.858 178.764 180.931 178.142 180.865C177.176 180.827 176.21 180.764 175.244 180.717L168.591 180.403C168.089 180.375 167.566 180.46 167.054 180.117C167.184 179.707 167.28 179.287 167.34 178.861C167.341 178.395 167.302 177.929 167.224 177.469V177.472ZM202.487 72.7945C202.843 73.0648 203.153 73.3904 203.406 73.7589C203.704 74.2364 204.071 74.6761 204.403 75.1348C205.053 76.0206 205.555 76.9441 205.489 78.1063C205.488 78.5592 205.561 79.0091 205.705 79.4382C205.885 79.9451 205.892 80.4977 205.724 81.0088C205.213 81.1313 204.783 80.7732 204.306 80.6947C203.855 80.6466 203.41 80.554 202.976 80.4183C200.467 79.4414 197.839 79.0581 195.192 78.7346C194.748 78.6819 194.321 78.5363 193.937 78.3074C193.172 77.8205 192.46 77.2488 191.742 76.7085C190.111 75.5054 190.111 75.5023 188.376 75.1159C188.376 74.4028 188.329 73.6678 188.376 72.939C188.581 70.5018 188.545 68.0503 188.269 65.62C188.015 63.5154 188.185 61.4202 187.956 59.2528C188.379 59.1899 188.724 59.0423 189.019 59.1083C190.14 59.3378 191.305 59.2183 192.356 58.7659C192.984 58.524 193.68 58.4203 194.323 58.1973C195.069 57.9366 195.86 57.7513 196.437 57.1419C197.817 56.7209 198.576 55.5713 199.501 54.5881C199.622 54.508 199.754 54.4456 199.893 54.4027C199.984 54.5786 200.172 54.7671 200.154 54.9367C199.988 56.5178 199.799 58.0947 199.586 59.6674C199.541 60.064 199.427 60.4498 199.25 60.8076C198.595 62.0296 198.394 63.3834 198.093 64.6965C197.766 66.027 197.716 67.4105 197.945 68.7612C198.078 69.4281 198.441 70.0267 198.971 70.4512C200.028 71.4124 201.405 71.8647 202.487 72.7914V72.7945ZM200.292 49.0344C200.058 49.4276 199.849 49.8346 199.664 50.2532C199.255 51.3745 198.535 52.3554 197.588 53.0803C196.779 53.6771 196.176 54.5535 195.232 55.0058C193.492 55.8382 191.735 56.5984 189.759 56.6581C188.342 56.6989 186.936 56.7869 185.509 56.8497C184.779 56.8843 184.386 57.0979 184.255 57.5314C184.123 57.9649 184.471 58.5711 185.108 58.8507C185.548 59.0223 185.998 59.1712 186.453 59.2967C186.514 59.5657 186.545 59.8407 186.544 60.1166C186.278 62.4976 186.51 64.8787 186.466 67.2566C186.435 68.8963 186.588 70.5329 186.431 72.1789C186.353 73.4264 186.369 74.678 186.479 75.9232C186.555 76.6606 186.38 77.4022 185.983 78.0278C185.604 78.6642 185.277 79.3302 185.004 80.0193C184.142 82.0014 183.254 83.9741 182.454 85.9876C181.441 88.5226 180.513 91.089 179.531 93.6333C178.904 95.2762 178.211 96.8971 177.583 98.5399C177.361 99.121 177.27 99.7462 177.072 100.343C176.962 100.707 176.812 101.062 176.595 101.637C176.254 100.864 175.874 100.327 175.786 99.7525C175.529 98.0782 174.56 96.7809 173.493 95.6469C171.23 93.2516 169.171 90.671 167.337 87.9321C166.247 86.3972 164.984 84.9933 163.573 83.7479C162.005 82.2684 160.402 80.8172 159.182 78.9921C158.911 78.6797 158.602 78.4022 158.263 78.166C158.427 77.7818 158.629 77.4146 158.865 77.0697C159.492 76.319 159.627 75.474 159.552 74.5254C159.414 72.7097 159.342 70.891 159.238 69.0722C159.015 65.2116 158.749 61.3542 158.576 57.4905C158.432 54.3053 158.398 51.1139 158.31 47.9224C158.31 47.6962 158.266 47.4732 158.238 47.2093C157.011 46.0471 155.772 44.8817 154.546 43.7037C154.309 43.4579 154.091 43.1932 153.897 42.9121C153.535 42.3988 153.349 41.7821 153.367 41.1541C153.384 40.5262 153.604 39.9208 153.994 39.4285C154.24 39.1133 154.533 38.8378 154.863 38.6118C155.91 37.9333 156.93 37.1826 158.059 36.6831C159.345 36.1114 160.734 35.7847 162.136 35.3324C162.309 35.6465 162.544 35.8695 162.563 36.1146C162.682 37.5878 163.563 38.7689 164.078 40.0851C164.313 40.6913 164.852 41.2096 165.332 41.6777C166.719 43.0064 167.967 44.4702 169.563 45.5885C171.111 46.6657 172.942 47.2622 174.827 47.3036C177.124 47.3859 179.385 46.7081 181.259 45.3748C182.656 44.4058 183.989 43.3493 185.252 42.2117C185.82 41.7059 186.193 40.9552 186.563 40.2641C186.958 39.5165 187.244 38.7124 187.727 37.5878C188.316 39.727 189.609 41.1342 190.55 42.8619C188.564 43.7414 186.899 44.8346 185.98 47.0303C186.328 46.9612 186.507 46.9832 186.591 46.9015C187.583 45.978 188.815 45.5539 190.073 45.1801C190.387 45.0827 190.732 45.0042 191.055 44.8943C192.328 44.4702 192.353 44.4388 192.915 43.0284C194.05 43.9748 195.355 44.6955 196.76 45.1518C198.159 45.5822 199.645 45.7173 201.151 45.9968C201.039 47.0539 200.748 48.0842 200.292 49.0438V49.0344ZM201.041 26.8354C197.069 27.4729 193.174 28.5257 189.421 29.9766C189.364 30.3096 189.304 30.6771 189.226 31.1263L187.677 30.7054C187.536 30.319 187.41 29.8855 187.225 29.4834C186.729 28.4186 186.002 28.073 184.876 28.45C184.287 28.6575 183.655 28.7074 183.041 28.5945C178.86 27.8657 174.638 27.9663 170.432 28.205C168.456 28.3118 166.499 28.7987 164.536 29.1222C164.098 29.2371 163.653 29.3179 163.203 29.3641C162.945 29.3394 162.687 29.4144 162.482 29.5739C162.277 29.7333 162.141 29.965 162.102 30.2216C162.003 30.6636 161.943 31.1135 161.923 31.5661C161.892 32.0121 161.923 32.4613 161.923 32.9953C159.285 34.0037 156.591 34.6602 154.028 35.4392C153.954 35.4051 153.888 35.3557 153.835 35.2941C153.782 35.2326 153.742 35.1603 153.718 35.0822C153.695 35.004 153.688 34.9218 153.699 34.8409C153.71 34.76 153.738 34.6824 153.781 34.6131C154.483 32.942 155.073 31.2268 156.271 29.7913C157.268 28.5532 158.374 27.4063 159.574 26.3642C160.896 25.2908 162.378 24.4303 163.965 23.8136C167.663 22.2995 171.179 20.4933 174.102 17.6505C175.943 15.86 177.762 14.0695 179.152 11.8895C179.199 11.811 179.334 11.7858 179.44 11.7324C179.798 11.789 179.801 12.1282 179.898 12.3607C180.839 14.7134 182.548 16.2652 184.763 17.3866C186.265 18.1468 187.881 18.4075 189.496 18.6934C191.284 19.0075 193.093 19.2305 194.884 19.5352C196.675 19.8399 198.225 20.6347 199.84 21.3383C200.126 21.5241 200.389 21.7446 200.621 21.9948C200.223 23.6628 201.013 25.1706 201.041 26.8323V26.8354ZM189.712 36.5732C189.364 36.168 189.141 36.0203 189.085 35.8287C188.897 35.1314 188.749 34.4215 188.624 33.7084C188.552 33.3063 188.784 33.0802 189.173 33.0267C189.239 33.1053 189.351 33.1838 189.361 33.2686C189.48 34.2801 189.577 35.257 189.712 36.5794V36.5732ZM163.93 30.5609C164.743 30.096 165.724 30.0646 166.653 29.851C167.428 29.6716 168.217 29.5592 169.011 29.5149C171.442 29.3798 173.864 29.0405 176.313 29.3578C177.32 29.4897 178.355 29.4018 179.378 29.4332C179.82 29.4489 180.227 29.4583 180.588 29.8855C180.786 30.118 181.31 30.1243 181.692 30.1368C182.596 30.1714 183.502 30.1368 184.449 30.1368C185.202 30.8687 185.221 31.8582 185.362 32.7974C185.437 33.3 185.418 33.8183 185.503 34.3209C185.675 35.3009 185.651 36.3053 185.432 37.2759C185.214 38.2465 184.805 39.164 184.23 39.9751C182.577 42.4064 180.24 44.0053 177.565 45.0796C175.952 45.6963 174.163 45.6546 172.581 44.9634C171.621 44.6254 170.741 44.0905 169.999 43.3928C168.914 42.3153 167.76 41.3133 166.741 40.1636C166.178 39.522 165.737 38.7833 165.439 37.9836C165.213 37.4056 165.125 36.7774 164.878 36.2025C164.457 35.1533 164.297 34.1262 164.953 33.0613C164.181 32.3954 163.391 31.7671 163.93 30.5672V30.5609ZM201.584 43.5718C201.319 43.6807 201.038 43.7475 200.753 43.7697C198.419 43.5435 196.173 43.0786 194.285 41.5175C193.331 40.715 192.596 39.6827 192.149 38.5176C191.397 36.6988 191.271 34.7481 190.816 32.8854C190.75 32.6215 190.979 32.2886 191.064 32.0121C190.873 31.698 190.672 31.3839 190.368 30.9221C191.481 31.164 192.331 30.8782 193.191 30.6426C195.386 30.0426 197.557 29.4458 199.746 28.8772C200.219 28.7935 200.699 28.7452 201.179 28.7327C201.248 29.2384 201.308 29.6751 201.38 30.2028C200.097 30.385 199.034 30.5169 197.98 30.6928C196.302 30.9829 194.662 31.4613 193.09 32.1189C192.88 32.2039 192.678 32.3091 192.488 32.4331C192.325 32.55 192.21 32.7212 192.162 32.9159C192.115 33.1105 192.138 33.3157 192.228 33.4948C192.317 33.6413 192.454 33.7524 192.616 33.8096C192.777 33.8668 192.954 33.8666 193.115 33.8089C194.561 33.5168 196.01 33.2529 197.44 32.9042C198.711 32.5941 200.024 32.4975 201.327 32.6184C201.665 33.1587 201.477 33.7178 201.49 34.2644C200.439 34.1481 199.435 33.9502 198.432 33.9502C196.829 33.922 195.279 34.3555 193.749 34.7639C192.463 35.1062 191.886 35.8915 192.469 37.5689C192.656 38.1111 192.964 38.6034 193.369 39.0084C193.775 39.4134 194.267 39.7204 194.809 39.906C195.739 40.2734 196.743 40.4129 197.738 40.3129C198.732 40.2129 199.688 39.8763 200.527 39.3312C200.9 39.1018 201.286 38.8977 201.753 38.6307C202.399 40.3897 202.054 41.9666 201.584 43.5781V43.5718ZM198.72 35.4423H201.634C201.32 37.0381 200.204 37.7637 198.811 38.3448C198.498 37.8077 198.811 37.3334 198.811 36.8685C198.811 36.4035 198.752 36.0078 198.72 35.4486V35.4423ZM196.183 38.5302C194.793 38.7563 194.103 38.3762 193.153 36.7773C193.925 35.835 194.96 35.9952 195.913 35.7376C196.004 36.6926 196.095 37.6129 196.183 38.5365V38.5302ZM119.838 102.759C119.733 101.856 119.675 100.95 119.662 100.041C119.584 98.8949 120.161 97.9431 120.603 96.9756C121.469 95.1223 122.485 93.3318 123.347 91.4848C124.366 89.3825 125.65 87.42 127.168 85.6453C128.415 84.2498 129.424 82.6578 130.154 80.9334C130.72 79.4971 130.988 77.96 130.941 76.4164C130.9 75.1599 130.753 73.9034 130.627 72.6689C130.442 70.7276 130.314 68.7518 131.182 66.9582C132.026 65.2305 133.102 63.6128 134.102 61.9605C134.397 61.4767 134.799 61.059 135.112 60.5878C136.323 58.7722 138.061 57.4466 139.503 55.8414C141.089 54.1348 142.483 52.2587 143.659 50.2469C145.066 47.6457 146.121 44.8686 146.796 41.9886C147.267 39.9987 147.54 37.9668 147.611 35.9229C147.675 34.2768 147.854 32.6372 148.148 31.0164C148.461 29.2887 148.58 27.4951 149.264 25.8742C150.233 23.5811 151.096 21.2189 152.567 19.1614C153.759 17.4966 154.935 15.8223 156.077 14.1355C157.255 12.4561 158.632 10.9266 160.179 9.58071C160.948 8.9118 161.776 8.31263 162.651 7.79023C163.996 6.94524 165.379 6.16308 166.747 5.35893C167.004 5.23703 167.254 5.0985 167.493 4.94427C169.269 3.58412 171.408 3.05954 173.5 2.62605C175.673 2.19254 177.887 2.00393 180.102 2.06376C183.014 2.11772 185.874 2.8399 188.464 4.17469C189.214 4.56734 190.032 4.83433 190.744 5.29923C191.497 5.79868 192.228 6.32955 192.977 6.83843C194.851 8.13138 196.584 9.61686 198.149 11.2707C198.476 11.6614 198.779 12.0716 199.056 12.4989C200.069 13.8653 201.142 15.2035 201.879 16.7301C202.44 17.8798 202.892 19.1237 202.271 20.6064C201.355 20.0127 200.586 19.4222 199.74 18.9855C197.563 17.8637 195.185 17.1847 192.745 16.9877C191.048 16.8432 189.348 16.6359 187.674 16.328C185.401 15.9471 183.355 14.7223 181.943 12.8978C181.212 11.9555 180.642 10.9 179.992 9.90112C179.939 9.8163 179.829 9.76918 179.679 9.65609C179.531 9.79431 179.293 9.91053 179.227 10.0896C178.757 11.3461 177.878 12.3356 177.031 13.3219C175.158 15.4657 173.023 17.3653 170.677 18.9761C168.554 20.4462 166.195 21.4451 163.792 22.3184C161.01 23.3298 158.589 24.7968 156.622 27.0302C155.189 28.6699 153.894 30.3693 152.993 32.3702C152.431 33.5502 152.044 34.8064 151.846 36.0989C151.824 36.2685 151.72 36.4601 151.767 36.6015C152.244 38.0464 151.607 39.3909 151.4 40.7667C151.13 42.5321 151.773 43.9079 153.119 44.9602C154.06 45.6953 155.064 46.3361 156.045 47.0146C156.509 47.3287 156.986 47.6428 157.457 47.957C157.457 48.5224 157.488 49.0313 157.457 49.5276C157.093 54.7074 157.143 59.8936 157.253 65.0829C157.287 66.732 157.253 68.3843 157.297 70.0365C157.341 71.4501 157.469 72.8636 157.554 74.274C157.626 75.4331 157.24 76.5074 156.989 77.6163C155.051 77.8707 153.411 78.7063 151.83 79.7241C150.889 80.3523 149.857 80.8612 148.875 81.436C148.533 81.6371 148.041 81.813 147.934 82.1208C147.621 82.9721 146.868 83.2422 146.206 83.6506C141.668 86.487 137.3 89.5875 133.124 92.936C131.079 94.5537 129.263 96.4636 127.403 98.3075C125.502 100.259 123.76 102.36 122.193 104.59C121.629 105.363 121.136 106.189 120.597 106.98C120.377 107.294 120.117 107.583 119.869 107.891C119.461 107.659 119.656 107.364 119.703 107.141C120.019 105.701 120.065 104.215 119.838 102.759ZM193.2 195.55C192.998 196.438 192.884 197.344 192.858 198.255C192.849 198.531 192.781 198.802 192.659 199.05C192.537 199.298 192.365 199.517 192.152 199.693C192.24 200.008 192.315 200.265 192.425 200.636C192.316 200.744 192.187 200.832 192.046 200.893C191.562 201.05 191.064 201.162 190.559 201.226C189.426 201.343 188.288 201.395 187.15 201.383C183.336 201.255 179.531 201.522 175.723 201.591C172.653 201.644 169.579 201.61 166.509 201.628C164.686 201.628 162.867 201.688 161.045 201.694C156.782 201.694 152.52 201.732 148.257 201.537C145.206 201.399 142.147 201.405 139.093 201.336C138.183 201.314 137.267 201.17 136.364 201.217C132.914 201.399 129.438 201.151 125.97 201.352C123.197 201.512 120.402 201.352 117.617 201.314C116.479 201.314 115.34 201.286 114.205 201.286C111.796 201.3 109.392 201.056 107.035 200.56L107.712 199.279C107.085 198.798 106.457 198.899 105.855 198.823L104.256 198.619C104.089 198.484 103.998 198.415 103.914 198.343C102.571 197.184 102.302 195.767 102.559 194.03C102.898 191.727 102.957 189.384 103.149 187.059C103.189 186.551 103.299 186.048 103.352 185.539C103.459 184.468 103.553 183.394 103.641 182.319C103.621 181.924 103.638 181.527 103.691 181.135C104.3 178.971 104.158 176.737 104.337 174.539C104.356 174.312 104.246 174.061 104.312 173.86C104.939 172.007 104.861 170.065 105.03 168.156C105.049 167.933 105.156 167.719 105.19 167.496C105.332 166.601 105.482 165.709 105.589 164.807C105.808 162.947 106.122 161.107 106.451 159.263C106.74 157.645 106.956 156.012 107.367 154.425C107.925 152.277 108.358 150.106 108.731 147.92C108.76 147.753 108.813 147.606 108.838 147.42C108.951 146.685 109.757 146.227 109.635 145.394C109.531 144.681 109.92 144.081 110.099 143.428C110.764 140.959 111.382 138.477 112.006 135.999C112.257 134.828 112.597 133.679 113.022 132.559C113.382 131.66 113.653 130.728 113.831 129.776C114.382 127.108 115.125 124.484 116.055 121.923C116.826 119.73 117.713 117.58 118.712 115.481C119.552 113.743 120.327 111.975 121.287 110.298C122.356 108.432 123.388 106.55 124.605 104.76C126.242 102.437 128.064 100.25 130.053 98.2227C131.107 97.1138 132.029 95.8668 133.152 94.8333C134.783 93.3381 136.486 91.9088 138.255 90.5832C141.307 88.2964 144.428 86.1039 147.533 83.8862C148.028 83.5312 148.474 83.038 149.242 83.0098C149.39 83.4904 149.556 83.9521 149.678 84.4453C150.19 86.5459 150.588 88.6724 150.873 90.8157C151.146 93.1339 151.547 95.4364 151.864 97.7484C151.914 98.3144 151.934 98.8827 151.924 99.4509C151.912 99.9037 151.926 100.357 151.968 100.808C152.467 104.194 152.398 107.618 152.639 111.023C152.724 112.211 152.658 113.41 152.683 114.604C152.667 115.293 152.844 115.972 153.194 116.564C153.314 116.794 153.509 116.975 153.747 117.077C153.985 117.179 154.25 117.195 154.499 117.123C154.829 117.052 155.147 116.93 155.44 116.762C156.161 116.31 156.851 115.82 157.56 115.336C158.018 115.022 158.407 114.585 158.95 114.532C159.066 114.614 159.141 114.639 159.147 114.673C159.292 115.616 159.461 116.583 159.564 117.544C159.79 119.743 160.013 121.967 160.192 124.185C160.43 127.423 160.747 130.665 160.772 133.923C160.794 136.257 161.07 138.565 161.126 140.893C161.192 143.676 161.612 146.45 161.754 149.236C161.892 151.73 162.186 154.212 162.23 156.718C162.274 159.225 162.575 161.707 162.757 164.204C162.845 165.46 162.886 166.717 163.024 167.942C163.168 169.233 163.435 170.515 163.598 171.806C163.799 173.439 164.012 175.073 164.1 176.712C164.114 177.623 164.354 178.516 164.799 179.31C164.903 179.548 164.986 179.795 165.047 180.048C163.479 180.155 162.042 179.734 160.587 179.646C159.132 179.558 157.645 179.48 156.174 179.379C154.643 179.272 153.113 179.128 151.582 179.03C150.118 178.936 148.645 178.865 147.163 178.817C145.685 178.767 144.205 178.757 142.615 178.726C142.443 178.319 142.305 177.899 142.201 177.469C141.329 172.079 140.172 166.739 139.692 161.286C139.438 158.396 138.904 155.531 138.553 152.651C138.407 151.635 138.371 150.607 138.446 149.585C138.864 145.319 138.713 141.047 138.663 136.775C138.663 135.697 138.591 134.623 138.663 133.543C138.714 132.849 138.596 132.154 138.321 131.516C138.108 131.865 137.913 132.054 137.876 132.27C137.691 133.222 137.555 134.182 137.468 135.148C137.317 137.419 137.182 139.693 137.12 141.97C137.073 143.673 137.236 145.385 137.145 147.084C137.049 149.13 136.849 151.169 136.546 153.194C136.11 156.062 135.533 158.908 135.006 161.763C134.745 163.161 134.429 164.546 134.197 165.947C133.629 169.362 132.898 172.751 132.804 176.235C132.776 177.309 132.562 178.383 132.672 179.467C132.732 180.058 132.986 180.224 133.56 180.221C135.605 180.221 137.637 180.221 139.695 180.221C141.341 180.221 142.994 180.259 144.641 180.347C146.909 180.469 149.176 180.661 151.444 180.818C152.971 180.928 154.499 181.057 156.026 181.17C158.463 181.352 160.9 181.543 163.341 181.701C165.492 181.839 167.644 181.983 169.805 181.971C171.332 181.971 172.86 182.109 174.39 182.194C175.802 182.269 177.213 182.382 178.622 182.429C181.005 182.508 183.389 182.539 185.77 182.608C187.024 182.643 188.279 182.712 189.533 182.756C191.067 182.813 192.601 182.844 194.135 182.907C194.947 182.938 195.436 183.318 195.537 184.091C195.634 184.817 195.788 185.542 195.571 186.29C195.305 187.232 195.138 188.175 194.897 189.117C194.329 191.269 193.721 193.402 193.2 195.556V195.55ZM137.245 162.385C137.278 162.106 137.278 161.823 137.245 161.543C137.28 160.755 137.324 159.973 137.364 159.181L137.612 159.228C138.541 165.67 139.471 172.111 140.404 178.553C139.513 178.735 135.228 178.974 134.404 178.867C134.664 177.372 134.896 175.874 135.197 174.391C135.376 173.502 135.58 172.629 135.68 171.718C135.812 170.546 136.188 169.403 136.458 168.262C136.551 167.995 136.611 167.718 136.637 167.436C136.579 165.733 136.784 164.032 137.245 162.391V162.385ZM226.977 196.602C226.585 196.062 226.196 195.528 225.641 194.771L230.032 195.94C229.031 196.628 228.034 196.615 226.977 196.609V196.602ZM223.527 190.037C224.202 190.447 224.915 190.791 225.656 191.064C227.341 191.658 228.774 192.66 230.185 193.709C230.22 193.735 230.217 193.813 230.229 193.866C229.439 194 228.628 193.924 227.877 193.647C225.659 192.94 223.439 192.233 221.209 191.57C220.607 191.41 219.99 191.317 219.368 191.291C219.258 191.299 219.151 191.334 219.058 191.393C218.965 191.452 218.888 191.534 218.834 191.63C218.763 191.892 218.781 192.17 218.885 192.421C218.995 192.62 219.165 192.78 219.371 192.877C220.158 193.317 220.958 193.738 221.758 194.155C223.042 194.787 224.072 195.84 224.675 197.14C224.119 197.407 223.58 197.25 223.037 197.118C221.422 196.728 219.957 195.974 218.505 195.198C218.003 194.931 217.52 194.62 217.003 194.385C216.694 194.248 216.361 194.176 216.024 194.171C215.852 194.158 215.681 194.195 215.53 194.279C215.379 194.362 215.256 194.487 215.175 194.64C215.094 194.792 215.06 194.965 215.076 195.137C215.092 195.308 215.158 195.472 215.265 195.607C215.563 196.021 215.897 196.407 216.266 196.759C216.705 197.206 217.207 197.586 217.624 198.054C217.862 198.324 217.962 198.713 218.201 199.21C217.877 199.255 217.549 199.268 217.222 199.247C215.551 198.933 213.894 198.515 212.204 198.233C211.028 198.037 209.839 197.923 208.647 197.89C206.492 197.834 204.331 197.837 202.177 197.865C200.701 197.883 199.231 198.041 197.786 198.336C196.907 198.519 196.02 198.651 195.044 198.814C194.996 198.576 194.969 198.334 194.963 198.091C195.129 195.99 195.781 193.97 195.951 191.859C196.06 190.512 196.484 189.18 196.87 187.87C197.367 186.347 197.433 184.716 197.061 183.158C197.429 183.035 197.805 182.937 198.187 182.866C201.349 182.514 204.511 182.175 207.675 181.848C208.354 181.76 209.039 181.735 209.723 181.773C210.63 181.825 211.54 181.777 212.436 181.628C213.166 181.555 213.9 181.546 214.632 181.603C218.562 181.735 222.473 182.09 226.183 183.488C228.491 184.313 230.595 185.623 232.356 187.33C232.53 187.555 232.731 187.757 232.955 187.933C233.911 188.482 234.244 189.484 234.749 190.355C234.824 190.483 234.78 190.669 234.79 190.885C234.247 191.049 233.667 191.049 233.124 190.885C230.43 190.185 227.723 189.525 225.029 188.825C224.599 188.676 224.132 188.676 223.702 188.825C223.188 189.02 223.04 189.77 223.52 190.044L223.527 190.037Z" fill="black"/>
<path d="M138.023 44.9853C138.004 45.2109 137.955 45.4329 137.876 45.645C136.953 47.0837 136.041 48.5317 134.394 49.2919C133.883 49.5275 133.453 49.9202 132.932 50.1558C132.362 50.4245 131.865 50.8268 131.483 51.3288C131.101 51.8307 130.845 52.4175 130.737 53.0394C130.536 54.0917 130.21 55.1157 130.172 56.2183C130.096 57.4851 129.578 58.6848 128.708 59.6077C127.667 60.8166 126.462 61.8739 125.129 62.7489C123.68 63.6598 122.501 64.753 122.024 66.443C121.487 68.3434 121.274 70.247 122.181 72.116C122.207 72.2184 122.217 72.3245 122.209 72.4301C121.964 72.6688 121.798 72.471 121.666 72.3013C121.036 71.5541 120.659 70.6257 120.59 69.6501C120.479 68.2839 120.564 66.9088 120.841 65.5665C121.176 63.9972 122.021 62.5832 123.244 61.5458C124.185 60.7385 125.082 59.8558 126.048 59.0674C126.691 58.5418 127.204 57.8751 127.548 57.1191C127.892 56.3631 128.058 55.5379 128.033 54.7074C128.033 52.8478 128.777 51.2709 129.602 49.7191C129.942 49.1233 130.425 48.6214 131.007 48.2585C131.874 47.7212 132.803 47.2909 133.773 46.9768C134.701 46.7088 135.576 46.2839 136.361 45.7204C136.797 45.3968 137.204 44.9602 138.023 44.9853Z" fill="black"/>
<path d="M244.633 126.911C243.94 126.779 243.692 126.305 243.529 125.828C243.215 124.973 242.961 124.097 242.704 123.224C241.958 120.711 241.23 118.198 240.11 115.81C239.558 114.639 239.132 113.407 238.417 112.311C238.231 112.021 238.116 111.691 238.082 111.349C238.047 111.006 238.093 110.66 238.216 110.338C238.504 109.481 239.282 109.082 240.098 109.474C240.509 109.661 240.859 109.962 241.105 110.341C241.804 111.576 242.419 112.854 243.056 114.111C243.116 114.27 243.154 114.437 243.168 114.607C243.764 118.144 244.358 121.682 244.95 125.221C245.02 125.556 245.036 125.9 244.997 126.239C244.917 126.483 244.794 126.711 244.633 126.911Z" fill="black"/>
<path d="M115.188 61.1689C113.864 60.0663 113.507 58.7627 114.247 57.324C114.8 56.1947 115.655 55.2403 116.715 54.566C117.581 54.0289 118.45 53.4917 119.268 52.8886C119.694 52.6044 120.05 52.2272 120.31 51.7855C120.57 51.3437 120.726 50.8489 120.767 50.338C120.846 49.2635 121.049 48.202 121.373 47.1748C121.909 45.5727 123.004 44.4482 124.757 44.2031C125.433 44.1378 126.113 44.1494 126.786 44.2377C126.89 44.2664 126.985 44.3214 127.061 44.3974C127.137 44.4733 127.193 44.5676 127.222 44.6712C127.221 44.7764 127.193 44.8795 127.142 44.9712C127.09 45.0628 127.017 45.14 126.928 45.1958C126.264 45.5138 125.576 45.7775 124.87 45.9842C124.453 46.0778 124.072 46.2896 123.772 46.5943C123.473 46.899 123.267 47.2837 123.179 47.7025C122.881 48.7393 122.711 49.8091 122.674 50.8877C122.631 52.5871 121.793 53.7839 120.382 54.6163C119.651 55.0466 118.876 55.3985 118.133 55.8068C117.376 56.1871 116.643 56.6129 115.937 57.0821C114.802 57.8989 114.545 58.8852 114.996 60.2234C115.072 60.5375 115.37 60.7951 115.188 61.1689Z" fill="black"/>
<path d="M322.564 128.652C323.394 128.364 324.285 128.303 325.146 128.476C326.087 128.62 327.028 128.878 327.969 129.054C329.298 129.342 330.641 129.562 331.993 129.713C333.934 129.864 335.386 130.951 336.754 132.123C337.695 132.924 338.4 133.989 339.197 134.95C339.294 135.063 339.298 135.264 339.388 135.543C339.043 135.539 338.7 135.482 338.372 135.374C336.741 134.466 335.12 133.542 333.52 132.581C332.175 131.771 330.663 131.548 329.17 131.249C329.007 131.218 328.806 131.3 328.665 131.249C326.908 130.464 324.964 130.156 323.298 129.142L322.564 128.652Z" fill="black"/>
<path d="M248.747 122.611C248.493 122.24 248.226 122.005 248.157 121.722C247.684 119.746 247.232 117.764 246.824 115.773C246.763 115.326 246.787 114.872 246.893 114.435C246.959 114.061 247.59 113.907 247.872 114.183C248.078 114.372 248.243 114.602 248.355 114.859C248.556 115.327 248.692 115.82 248.76 116.326C248.916 118.242 249.189 120.148 249.073 122.077C249.07 122.174 248.967 122.262 248.747 122.611Z" fill="black"/>
<path d="M346.18 138.568C345.049 137.916 344.091 137.002 343.386 135.902C343.243 135.719 343.172 135.489 343.188 135.257C343.203 135.025 343.304 134.807 343.47 134.645C343.576 134.575 343.696 134.529 343.821 134.509C343.946 134.489 344.075 134.496 344.197 134.529C344.319 134.563 344.433 134.622 344.531 134.703C344.628 134.785 344.707 134.886 344.763 135C345.296 135.917 345.769 136.885 346.243 137.827C346.306 137.975 346.221 138.166 346.18 138.568Z" fill="black"/>
<path d="M252.123 118.524C252.75 117.774 253.302 116.878 254.3 116.052C254.181 117.171 253.636 118.2 252.779 118.926C252.55 119.121 252.252 118.945 252.123 118.524Z" fill="black"/>
<path d="M149.492 166.594C149.265 168.525 149.24 170.473 149.416 172.409C149.431 172.633 149.382 172.858 149.275 173.056C149.219 173.109 149.15 173.148 149.075 173.167C149 173.186 148.921 173.186 148.846 173.166C148.641 173.081 148.47 172.931 148.359 172.739C148.09 172.247 147.896 171.717 147.782 171.168C147.613 169.767 147.522 168.341 147.469 166.946C147.478 166.497 147.57 166.053 147.738 165.636C147.798 165.442 147.926 165.275 148.1 165.168C148.273 165.061 148.479 165.021 148.679 165.055C148.877 165.073 149.063 165.159 149.204 165.299C149.345 165.439 149.434 165.624 149.454 165.822C149.479 166.095 149.476 166.381 149.492 166.594Z" fill="black"/>
<path d="M112.578 180.23C111.791 179.967 111.606 179.42 111.531 178.861C111.325 177.175 111.313 175.47 111.496 173.782C111.502 173.725 111.515 173.669 111.534 173.615C111.681 173.191 111.772 172.71 112.327 172.629C112.77 172.563 113.177 172.974 113.309 173.612C113.357 173.833 113.371 174.059 113.353 174.284C113.18 176.085 112.997 177.884 112.804 179.681C112.752 179.873 112.676 180.057 112.578 180.23Z" fill="black"/>
<path d="M108.23 181.101C107.872 179.668 107.954 175.707 108.424 173.841C108.631 173.012 108.612 172.051 109.302 171.347C109.447 171.501 109.578 171.579 109.575 171.661C109.379 174.839 108.929 177.995 108.23 181.101Z" fill="black"/>
<path d="M202.692 148.573C203.535 148.611 204.379 148.639 205.223 148.69C205.393 148.689 205.559 148.742 205.698 148.841C205.837 148.94 205.94 149.081 205.994 149.242C206.039 149.436 206.021 149.639 205.943 149.822C205.865 150.004 205.732 150.158 205.562 150.26C204.52 150.92 203.366 151.052 202.162 151.045C201.6 151.045 201.039 151.045 200.477 151.08C199.574 151.121 199.041 150.712 198.962 149.902C198.893 149.183 199.486 148.564 200.327 148.479C200.44 148.473 200.553 148.473 200.666 148.479H202.695L202.692 148.573Z" fill="black"/>
<path d="M336.748 99.7022C336.434 99.3881 336.171 99.1179 335.876 98.8729C335.484 98.5588 335.042 98.2761 334.668 97.9306C334.534 97.8048 334.426 97.6538 334.349 97.4861C334.273 97.3184 334.231 97.1373 334.225 96.9532C334.219 96.7691 334.249 96.5856 334.314 96.4132C334.379 96.2408 334.477 96.0828 334.602 95.9484C334.76 95.784 334.96 95.6656 335.18 95.606C335.885 95.4333 337.494 96.0835 337.651 96.7871C337.808 97.4908 338.181 97.8269 338.592 98.2792C338.86 98.5425 339.035 98.8857 339.092 99.2572C339.148 99.6288 339.083 100.009 338.906 100.34C338.443 101.325 337.737 102.175 336.854 102.809C336.289 103.147 335.81 103.613 335.456 104.169C335.653 104.483 335.857 104.797 336.083 105.111C336.368 105.532 336.71 105.931 336.949 106.368C337.538 107.395 337.576 108.419 336.854 109.418C336.622 109.732 336.428 110.09 336.208 110.426C335.469 111.649 334.97 113.002 334.74 114.413C334.559 115.317 333.953 115.744 333.172 116.046C333.097 116.077 332.972 115.974 332.752 115.883C332.796 115.173 332.943 114.474 333.188 113.806C333.834 112.167 334.411 110.492 335.148 108.893C335.65 107.803 335.603 106.93 334.722 106.117C334.679 106.079 334.639 106.038 334.602 105.994C333.235 104.241 333.238 103.682 334.687 102.027C335.133 101.518 335.65 101.084 336.111 100.572C336.341 100.295 336.553 100.005 336.748 99.7022Z" fill="black"/>
<path d="M309.307 114.328C309.203 114.208 309.14 114.167 309.147 114.139C309.487 112.41 309.351 110.62 308.751 108.962C308.359 107.822 308.504 106.613 308.82 105.444C308.937 105.008 309.068 104.571 309.134 104.128C309.215 103.824 309.212 103.503 309.127 103.2C309.042 102.897 308.878 102.622 308.651 102.404C308.525 102.287 308.414 102.156 308.319 102.014C306.891 99.8906 307.177 99.5576 308.221 97.8708C308.491 97.4373 308.78 97.0164 309.071 96.5955C309.524 96.003 309.746 95.2666 309.699 94.5223C309.683 94.239 309.705 93.9548 309.765 93.6773C309.814 93.4825 309.936 93.3143 310.106 93.2078C310.276 93.1012 310.481 93.0646 310.677 93.1056C310.845 93.1385 310.994 93.2348 311.092 93.3746C311.191 93.5144 311.232 93.687 311.207 93.8564C310.997 95.7191 310.752 97.5567 309.485 99.0927C308.858 99.8404 308.974 100.264 309.551 101.084C309.981 101.607 310.347 102.18 310.64 102.79C310.847 103.292 310.942 103.833 310.919 104.375C310.896 104.918 310.756 105.449 310.508 105.931C310.263 106.379 310.118 106.876 310.083 107.385C310.049 107.895 310.125 108.407 310.307 108.884C310.859 110.455 310.508 112.025 309.887 113.53C309.726 113.818 309.531 114.086 309.307 114.328Z" fill="black"/>
<path d="M323.215 94.1014L322.409 94.9464C322.428 95.1317 322.409 95.2605 322.456 95.3484C322.93 95.9767 323.397 96.6458 323.914 97.2332C324.355 97.6825 324.655 98.2508 324.778 98.8684C324.901 99.486 324.842 100.126 324.608 100.71C324.397 101.42 324.149 102.117 323.864 102.799C323.514 103.52 323.423 104.34 323.607 105.121C323.883 106.377 323.557 107.609 323.193 108.796C322.835 109.935 322.416 111.054 321.938 112.148C321.587 112.974 321.204 113.806 320.449 114.368C319.875 114.073 319.959 113.536 320.041 113.156C320.289 111.994 320.612 110.844 320.982 109.701C321.265 108.836 321.597 107.989 321.976 107.163C322.356 106.39 322.454 105.509 322.252 104.672C322.081 103.89 322.143 103.075 322.431 102.328C322.716 101.468 322.951 100.591 323.227 99.7241C323.347 99.4033 323.376 99.056 323.313 98.7195C323.25 98.383 323.097 98.0701 322.87 97.8143C322.462 97.3419 322.085 96.8435 321.741 96.3222C321.5 95.937 321.313 95.5205 321.186 95.0846C321.118 94.8338 321.143 94.5673 321.254 94.3329C321.366 94.0985 321.557 93.9117 321.794 93.8061C322.239 93.5611 322.729 93.3349 323.215 94.1014Z" fill="black"/>
<path d="M298.721 115.11C298.862 114.516 298.956 113.904 299.154 113.329C299.357 112.829 299.421 112.283 299.339 111.749C299.257 111.215 299.033 110.714 298.689 110.297C298.443 109.986 298.252 109.633 298.128 109.255C297.816 108.453 297.768 107.573 297.99 106.742C298.25 105.872 298.413 104.976 298.617 104.094C298.776 103.482 298.701 102.834 298.407 102.275C298.05 101.568 297.689 100.858 297.369 100.133C297.141 99.6394 297.026 99.1014 297.031 98.558C297.037 98.0145 297.164 97.4793 297.403 96.9913C297.508 96.7575 297.668 96.5526 297.869 96.394C298.07 96.2353 298.306 96.1277 298.558 96.0803C298.802 96.0207 299.185 96.3505 299.094 96.5861C298.989 96.9056 298.854 97.2148 298.693 97.5096C298.484 97.8826 298.365 98.2992 298.346 98.7263C298.327 99.1534 298.408 99.5791 298.583 99.9692C298.805 100.55 299.103 101.103 299.383 101.659C300.101 103.092 300.324 104.552 299.655 106.057C299.633 106.109 299.613 106.163 299.596 106.217C298.809 108.523 298.777 108.538 300.041 110.662C300.419 111.301 300.544 112.058 300.392 112.785C300.286 113.552 299.778 114.35 298.721 115.11Z" fill="black"/>
<path d="M130.973 89.1572C131.286 88.2525 131.547 87.3227 131.914 86.4463C132.769 84.5163 133.181 82.419 133.121 80.3084C133.057 78.1286 133.675 75.9834 134.89 74.1736C135.963 72.5496 137.283 71.1392 138.428 69.5874C139.338 68.3592 140.429 67.2597 141.069 65.8462C141.324 65.3415 141.514 64.8064 141.634 64.2536C141.844 62.9626 141.947 61.6558 142.123 60.3554C142.362 58.263 142.863 56.2091 143.616 54.2426C144.331 52.4431 145.22 50.7177 146.269 49.091C146.972 47.9947 147.797 46.9769 148.593 45.9497C148.815 45.6895 149.069 45.4583 149.349 45.2618C149.773 44.9257 150.102 44.9037 150.435 45.155C150.767 45.4063 150.814 45.8649 150.416 46.3549C148.681 48.4847 147.458 50.938 146.087 53.2876C145.049 55.0655 144.61 57.101 144.243 59.1271C144.003 60.4129 143.861 61.715 143.817 63.0222C143.799 64.8525 143.209 66.6313 142.129 68.1079C140.875 69.8041 139.62 71.5004 138.246 73.0836C137.32 74.0939 136.57 75.2536 136.029 76.5138C135.558 77.727 135.235 78.9926 135.066 80.2832C134.859 81.7504 134.413 83.1735 133.745 84.4956C133.052 85.8683 132.394 87.2599 131.707 88.6357C131.572 88.8728 131.423 89.1015 131.261 89.3205L130.973 89.1572Z" fill="black"/>
<path d="M157.57 21.888C157.479 21.6053 157.332 21.3949 157.366 21.2221C157.476 20.4935 157.668 19.78 157.94 19.0955C158.467 18.0247 159.059 16.9872 159.713 15.9888C160.268 15.1307 160.867 14.3014 161.507 13.5041C162.665 12.0427 163.976 10.7096 165.418 9.52732C166.823 8.37135 168.504 7.87505 170.047 7.06462C170.502 6.82274 171.158 6.87927 171.71 6.93582C171.948 6.96095 172.152 7.32221 172.475 7.62691C171.349 8.33682 170.345 8.94936 169.36 9.59646C166.076 11.7513 163.037 14.1983 160.578 17.2799C159.807 18.2442 159.255 19.3908 158.615 20.4588C158.329 20.9237 158.204 21.5017 157.57 21.888Z" fill="black"/>
<path d="M150.627 61.1281C149.999 62.0705 149.551 62.7175 149.159 63.4023C148.71 64.1908 148.306 65.0075 147.904 65.8242C147.555 66.5508 147.488 67.3816 147.716 68.155C147.806 68.6014 147.919 69.0428 148.055 69.4775C148.51 70.6617 148.224 71.6951 147.506 72.6721C147.07 73.2657 146.687 73.9034 146.223 74.4751C144.655 76.4227 143.062 78.3483 141.471 80.277C141.415 80.3461 141.28 80.3523 141.076 80.4246C141.111 79.7335 141.468 79.2246 141.779 78.7126C142.663 77.2551 143.57 75.807 144.467 74.3557C144.586 74.1641 144.714 73.9757 144.824 73.7746C145.681 72.204 146.251 70.6051 146.022 68.7487C145.662 65.7928 147.035 63.4746 149.058 61.4736C149.207 61.3023 149.396 61.1706 149.607 61.0904C149.947 61.0628 150.29 61.0754 150.627 61.1281Z" fill="black"/>
<path d="M194.246 15.1815C193.634 15.037 192.969 14.9051 192.317 14.7229C190.799 14.2926 189.255 13.9125 187.894 13.058C186.912 12.3926 186.129 11.4717 185.63 10.3943C185.506 10.078 185.465 9.73523 185.51 9.39856C185.512 9.32664 185.527 9.2557 185.557 9.19004C185.586 9.12438 185.628 9.06537 185.681 9.01661C185.734 8.96784 185.796 8.9303 185.864 8.90633C185.931 8.88235 186.003 8.87242 186.075 8.87711C186.412 8.88211 186.746 8.94698 187.06 9.06872C187.941 9.44566 188.807 9.86972 189.676 10.2812C189.829 10.351 189.972 10.443 190.099 10.5545C191.354 11.7011 192.869 12.4927 194.346 13.3188C194.696 13.5037 195.026 13.7248 195.331 13.9784C195.478 14.1402 195.557 14.3532 195.55 14.5721C195.55 14.8863 195.271 15.0402 194.98 15.0998C194.772 15.1438 194.559 15.1501 194.246 15.1815Z" fill="black"/>
<path d="M166.189 18.9918C166.251 18.8023 166.338 18.6217 166.447 18.4546C168.059 16.6233 169.674 14.792 171.308 12.9795C171.693 12.5653 172.113 12.1848 172.563 11.8424C172.753 11.7303 172.969 11.6687 173.19 11.6633C173.26 11.6661 173.328 11.6849 173.39 11.7182C173.451 11.7515 173.504 11.7984 173.545 11.8554C173.585 11.9124 173.612 11.9779 173.624 12.047C173.635 12.1161 173.63 12.1869 173.61 12.2539C173.489 12.5075 173.331 12.7423 173.143 12.9512C171.292 14.7983 169.439 16.639 167.563 18.4609C167.218 18.7402 166.847 18.9863 166.456 19.196L166.189 18.9918Z" fill="black"/>
<path d="M193.48 49.0595C193.195 49.3885 192.88 49.6893 192.539 49.9579C189.716 51.8427 186.629 52.8635 183.233 52.6971C181.642 52.6185 180.096 52.1913 178.87 51.0542C178.712 50.9308 178.601 50.7561 178.558 50.56C178.514 50.3639 178.54 50.1588 178.631 49.9799C178.848 49.4773 179.221 49.248 179.707 49.4333C180.353 49.6464 180.974 49.9275 181.561 50.2721C183.129 51.2898 184.857 51.3526 186.623 51.1767C188.661 50.9484 190.623 50.2658 192.363 49.1789C192.639 49.0156 192.943 48.8993 193.235 48.7611L193.48 49.0595Z" fill="black"/>
<path d="M191.604 74.8394C191.484 74.6667 191.29 74.5253 191.262 74.3305C191.161 73.828 191.121 73.3159 191.064 72.8071C190.879 71.1705 190.732 69.5245 190.493 67.8942C190.381 67.3369 190.168 66.8048 189.866 66.3236C189.617 65.9074 189.457 65.4446 189.394 64.9638C189.33 64.483 189.366 63.9943 189.499 63.5279C189.763 62.5353 189.991 61.5364 190.622 60.7008C190.801 60.4621 190.995 60.2736 191.321 60.349C191.648 60.4244 191.789 60.7636 191.707 61.1846C191.651 61.4641 191.56 61.7343 191.481 62.0076C191.324 62.5541 191.168 63.1007 191.008 63.6473C190.769 64.4703 190.832 65.2179 191.5 65.8461C192.312 66.6063 192.501 67.6178 192.52 68.6544C192.52 70.6468 192.309 72.6337 191.892 74.5819C191.895 74.6573 191.757 74.7138 191.604 74.8394Z" fill="black"/>
<path d="M182.785 36.1648C182.531 36.0643 182.158 36.0674 182.029 35.8852C181.364 34.9743 180.37 34.7638 179.379 34.5188C177.688 34.0979 175.988 34.2675 174.291 34.4245C173.668 34.472 173.051 34.5771 172.447 34.7387C171.484 35.0088 170.86 35.6025 170.879 36.6956C170.875 36.8779 170.857 37.0596 170.826 37.2391C170.481 37.7323 169.844 37.8454 169.885 38.6181L171.359 38.1312L171.716 38.8945C171.23 39.3971 170.775 39.8369 170.383 40.2955C170.27 40.4274 170.292 40.6725 170.227 40.9677C171.114 40.7416 171.651 40.2452 172.228 39.8149C172.469 39.6358 172.751 39.6296 172.911 40.0505C172.648 40.4463 172.359 40.8609 172.099 41.2912C172.048 41.3473 172.01 41.4145 171.99 41.4876C171.969 41.5606 171.965 41.6375 171.979 41.7121C171.993 41.7867 172.025 41.8571 172.07 41.9176C172.116 41.9781 172.175 42.0272 172.243 42.0609L174.398 40.5939C176.051 40.9058 177.753 40.8382 179.376 40.396C180.983 39.9719 182.367 38.9451 183.24 37.5281C183.607 36.9438 183.428 36.4287 182.785 36.1648ZM176.631 39.1207C175.618 39.3688 174.771 39.1207 173.921 38.8066C173.18 38.5071 172.546 37.9889 172.105 37.3208C172.005 37.1994 171.935 37.056 171.9 36.9024C171.865 36.7487 171.867 36.5891 171.905 36.4362C171.943 36.2833 172.017 36.1416 172.119 36.0225C172.222 35.9033 172.352 35.81 172.497 35.7502C172.901 35.5425 173.333 35.3974 173.78 35.3198C175.042 35.0944 176.333 35.0869 177.597 35.2978C176.474 36.5009 176.402 37.7637 176.631 39.127V39.1207ZM179.981 37.8893C179.937 37.1354 179.896 36.4381 179.849 35.6371C180.574 35.5271 181.126 36.0297 181.797 36.4067C181.342 37.126 180.878 37.7134 179.981 37.8956V37.8893Z" fill="black"/>
<path d="M182.327 32.4927C181.147 33.2991 179.743 33.7114 178.315 33.6707C177.299 33.6487 176.28 33.6707 175.263 33.6958C174.473 33.7272 173.695 33.8152 172.895 33.9063C171.954 34.0162 170.982 33.9062 170.032 34.189C169.476 34.303 168.905 34.3178 168.344 34.2329C167.896 34.2015 167.673 33.8466 167.57 33.4382C167.521 33.2396 167.551 33.0298 167.655 32.8536C167.759 32.6775 167.928 32.549 168.125 32.4958C169.144 32.1817 170.123 31.7137 171.239 31.7231C172.139 31.7231 173.04 31.5409 173.943 31.5158C175.696 31.4655 177.456 31.3901 179.203 31.4749C180.308 31.5705 181.377 31.9187 182.327 32.4927Z" fill="black"/>
</g>
<defs>
<clipPath id="clip0_66_1226">
<rect width="362" height="204" fill="white"/>
</clipPath>
</defs>
</svg>
