<svg width="64" height="64" viewBox="0 0 64 64" fill="none" xmlns="http://www.w3.org/2000/svg">
<path id="Vector" d="M31.8076 0.0250233C27.6407 0.0134702 23.5129 0.829977 19.6632 2.42727C15.8134 4.02456 12.3183 6.37091 9.38007 9.33047C6.4254 12.2736 4.08291 15.7745 2.48825 19.6306C0.893591 23.4866 0.0784305 27.6213 0.0899645 31.7951C0.0784305 35.9689 0.893591 40.1035 2.48825 43.9596C4.08291 47.8157 6.4254 51.3166 9.38007 54.2597C12.3183 57.2192 15.8134 59.5656 19.6632 61.1629C23.5129 62.7602 27.6407 63.5767 31.8076 63.5651C35.9745 63.5767 40.1023 62.7602 43.952 61.1629C47.8018 59.5656 51.2969 57.2192 54.2351 54.2597C57.1898 51.3166 59.5323 47.8157 61.127 43.9596C62.7216 40.1035 63.5368 35.9689 63.5252 31.7951C63.5368 27.6213 62.7216 23.4866 61.127 19.6306C59.5323 15.7745 57.1898 12.2736 54.2351 9.33047C51.2969 6.37091 47.8018 4.02456 43.952 2.42727C40.1023 0.829977 35.9745 0.0134702 31.8076 0.0250233ZM33.4992 60.3362V51.9161H30.3274V60.35C15.7976 59.6087 4.10752 47.9226 3.30612 33.3836H11.7198V30.2066H3.30612C4.10752 15.6982 15.7373 4.04923 30.2217 3.24651V33.3836H47.0321V30.2066H33.3935V3.24651C48.3991 4.07359 60.3535 16.5624 60.3535 31.7951C60.3535 46.9928 48.4551 59.4562 33.4992 60.3362Z" fill="#3BC4F4"/>
</svg>
